/* XPM */
static char * collapse_xpm[] = {
"24 24 124 2",
"  	c None",
". 	c #B2B1B1",
"+ 	c #848484",
"@ 	c #919191",
"# 	c #919190",
"$ 	c #8F8F8F",
"% 	c #9B9B9A",
"& 	c #B2B2B1",
"* 	c #B3B3B2",
"= 	c #90908F",
"- 	c #B3B3B3",
"; 	c #DADADA",
"> 	c #EBEBEB",
", 	c #ECECEC",
"' 	c #B4B4B4",
") 	c #909090",
"! 	c #A1A1A0",
"~ 	c #A1A1A1",
"{ 	c #DFDFDF",
"] 	c #E6E6E6",
"^ 	c #E0E0E0",
"/ 	c #A3A3A3",
"( 	c #9F9F9E",
"_ 	c #A09F9F",
": 	c #ACACAC",
"< 	c #AEAEAE",
"[ 	c #AFAFAE",
"} 	c #9C9C9C",
"| 	c #D9D9D9",
"1 	c #B9B9B9",
"2 	c #9E9E9E",
"3 	c #AEADAC",
"4 	c #C3C2C1",
"5 	c #898989",
"6 	c #CECECE",
"7 	c #D5D5D5",
"8 	c #707070",
"9 	c #000000",
"0 	c #333333",
"a 	c #C8C8C8",
"b 	c #D0D0D0",
"c 	c #8A8A89",
"d 	c #A8A7A7",
"e 	c #A0A0A0",
"f 	c #787878",
"g 	c #2C2C2C",
"h 	c #C0C0C0",
"i 	c #A4A4A4",
"j 	c #A9A8A8",
"k 	c #C9C9C9",
"l 	c #DCDCDC",
"m 	c #565656",
"n 	c #282828",
"o 	c #BBBBBB",
"p 	c #848483",
"q 	c #C2C2C2",
"r 	c #C3C3C3",
"s 	c #E1E1E1",
"t 	c #5A5A5A",
"u 	c #232323",
"v 	c #B1B1B1",
"w 	c #858585",
"x 	c #818181",
"y 	c #BDBDBD",
"z 	c #DDDDDD",
"A 	c #606060",
"B 	c #383838",
"C 	c #838383",
"D 	c #808080",
"E 	c #B7B7B7",
"F 	c #4F4F4F",
"G 	c #424242",
"H 	c #828282",
"I 	c #B2B2B2",
"J 	c #ADADAD",
"K 	c #2E2E2E",
"L 	c #CDCDCD",
"M 	c #8C8C8C",
"N 	c #9F9F9F",
"O 	c #AAAAAA",
"P 	c #A2A2A2",
"Q 	c #2F2F2F",
"R 	c #373737",
"S 	c #D7D7D7",
"T 	c #8B8B8B",
"U 	c #888888",
"V 	c #525252",
"W 	c #414141",
"X 	c #A6A6A6",
"Y 	c #8A8A8A",
"Z 	c #9F9E9E",
"` 	c #B4B3B2",
" .	c #7D7C7C",
"..	c #979797",
"+.	c #9A9A9A",
"@.	c #7C7C7C",
"#.	c #020202",
"$.	c #505050",
"%.	c #D4D4D4",
"&.	c #7D7D7D",
"*.	c #A0A09F",
"=.	c #7E7E7E",
"-.	c #929292",
";.	c #B5B5B5",
">.	c #E7E7E7",
",.	c #CFCFCF",
"'.	c #939393",
").	c #A09F9E",
"!.	c #8E8E8D",
"~.	c #8E8D8D",
"{.	c #8D8C8C",
"].	c #767676",
"^.	c #777777",
"/.	c #9D9C9C",
"(.	c #787777",
"_.	c #757575",
":.	c #7A7A7A",
"<.	c #747474",
"[.	c #999998",
"}.	c #6D6C6C",
"|.	c #777776",
"1.	c #727272",
"2.	c #757574",
"3.	c #999897",
"                                                ",
"                                                ",
"                . + @ # # $ % &                 ",
"            * = - ; > , , > ; ' ) .             ",
"          ! ~ { ] ] ] ] ] ] ] ] ^ / (           ",
"        _ : { ^ ^ ^ ^ ^ ^ ^ ^ ^ ^ { < _         ",
"      [ } | ; ; ; ; 1 | ; ; ; ; ; ; | 2 3       ",
"    4 5 6 7 7 7 7 8 9 0 a 7 7 7 7 7 7 b c       ",
"    d e 6 6 6 6 6 f 9 9 g h 6 6 6 6 6 6 i j     ",
"    = 1 k k k k k l m 9 9 n 1 k k k k k o #     ",
"    p q r r r r r r s t 9 9 u v r r r r q w     ",
"    x y y y y y y y y z A 9 9 B y y y y y C     ",
"    D E E E E E E E E ' F 9 9 G E E E E E H     ",
"    D I I I I I I I J B 9 9 K L I I I I I H     ",
"    M N O O O O O P Q 9 9 R S < O O O O e T     ",
"    e U P P P P P V 9 9 W 7 X P P P P P Y Z     ",
"    `  ...+.+.+.+.@.#.$.%.} +.+.+.+.+...&.      ",
"      *.=.@ -.-.-.;.>.,.'.-.-.-.-.-.@ &.).      ",
"        !.&.5 Y Y Y T Y Y Y Y Y Y 5 @.~.        ",
"          {.].D H H H H H H H H D ^.{.          ",
"            /.(._.^.:.:.:.:.].<.^.%             ",
"                [.}.|.1.1.2.D 3.                ",
"                                                ",
"                                                "};
