/* XPM */
static char * desktop_xpm[] = {
"20 16 162 2",
"  	c None",
". 	c #233F78",
"+ 	c #3C5587",
"@ 	c #052566",
"# 	c #2B467D",
"$ 	c #0D2C6B",
"% 	c #324B7F",
"& 	c #A2AFC6",
"* 	c #7E92B0",
"= 	c #7D90AE",
"- 	c #798DAB",
"; 	c #788BAA",
"> 	c #7688A6",
", 	c #7485A3",
"' 	c #7182A1",
") 	c #70819D",
"! 	c #6D7E9A",
"~ 	c #6A7A96",
"{ 	c #687792",
"] 	c #62708B",
"^ 	c #66748D",
"/ 	c #14316C",
"( 	c #052360",
"_ 	c #738AAC",
": 	c #5A749C",
"< 	c #58739A",
"[ 	c #557097",
"} 	c #526C94",
"| 	c #506992",
"1 	c #4D668E",
"2 	c #4B638B",
"3 	c #475E86",
"4 	c #445B81",
"5 	c #42577C",
"6 	c #33486E",
"7 	c #102652",
"8 	c #2C3F66",
"9 	c #05225C",
"0 	c #6985AD",
"a 	c #587AA8",
"b 	c #D2D2D2",
"c 	c #567AAE",
"d 	c #5478AC",
"e 	c #5277AA",
"f 	c #4E72A6",
"g 	c #4B6FA2",
"h 	c #486B9C",
"i 	c #446596",
"j 	c #2B4E84",
"k 	c #143B77",
"l 	c #16407C",
"m 	c #305B97",
"n 	c #052159",
"o 	c #566E90",
"p 	c #485F81",
"q 	c #455C7F",
"r 	c #435A7D",
"s 	c #41587B",
"t 	c #3F577A",
"u 	c #3E557A",
"v 	c #3B5579",
"w 	c #355178",
"x 	c #1B3C6B",
"y 	c #123466",
"z 	c #11315E",
"A 	c #0E2952",
"B 	c #152849",
"C 	c #052056",
"D 	c #496998",
"E 	c #456697",
"F 	c #F3C300",
"G 	c #3F6093",
"H 	c #3D5E90",
"I 	c #395A8D",
"J 	c #37578A",
"K 	c #27497F",
"L 	c #11356D",
"M 	c #0E2F67",
"N 	c #0D2C61",
"O 	c #0C295D",
"P 	c #0B2657",
"Q 	c #0D2654",
"R 	c #051F52",
"S 	c #42679A",
"T 	c #3E6398",
"U 	c #3C5F94",
"V 	c #385B91",
"W 	c #375B92",
"X 	c #335A92",
"Y 	c #224C8C",
"Z 	c #18468A",
"` 	c #184588",
" .	c #184486",
"..	c #194587",
"+.	c #194686",
"@.	c #163F7B",
"#.	c #10336A",
"$.	c #051E4F",
"%.	c #375784",
"&.	c #396198",
"*.	c #3965A1",
"=.	c #3966A5",
"-.	c #305F9F",
";.	c #1E4D8F",
">.	c #184482",
",.	c #163D77",
"'.	c #13386E",
").	c #123366",
"!.	c #102F5F",
"~.	c #0F2B58",
"{.	c #10305F",
"].	c #163F78",
"^.	c #051D4C",
"/.	c #2F548B",
"(.	c #2B4C7E",
"_.	c #264874",
":.	c #193B6B",
"<.	c #103267",
"[.	c #10356E",
"}.	c #113875",
"|.	c #113977",
"1.	c #103773",
"2.	c #10336E",
"3.	c #0F3169",
"4.	c #0E2E64",
"5.	c #0D2B5E",
"6.	c #0B2552",
"7.	c #051C48",
"8.	c #264D87",
"9.	c #5C7AA5",
"0.	c #5573A3",
"a.	c #5272A2",
"b.	c #5171A0",
"c.	c #51709F",
"d.	c #506E9C",
"e.	c #4F6C9A",
"f.	c #4F6B97",
"g.	c #4E6994",
"h.	c #4D6791",
"i.	c #4C648D",
"j.	c #4C6389",
"k.	c #0B285A",
"l.	c #051B45",
"m.	c #1B447F",
"n.	c #51719F",
"o.	c #080F16",
"p.	c #033A70",
"q.	c #090909",
"r.	c #101010",
"s.	c #373737",
"t.	c #171717",
"u.	c #4C638A",
"v.	c #0C2A5C",
"w.	c #051842",
"x.	c #051942",
"y.	c #53617D",
"z.	c #1B2229",
"A.	c #0B4278",
"B.	c #1D1D1D",
"C.	c #232323",
"D.	c #484848",
"E.	c #2A2A2A",
"                                        ",
"                                        ",
"        . + @ @ @ @ @ @ @ @ @ @ @ @ # $ ",
"        % & * = - ; > , ' ) ! ~ { ] ^ / ",
"        ( _ : < [ } | 1 2 3 4 5 6 7 8 ( ",
"        9 0 a b c d e f g h i j k l m 9 ",
"        n o p q r s t u v w x y z A B n ",
"        C D E F G H I J K L M N O P Q C ",
"        R S T U V W X Y Z `  ...+.@.#.R ",
"        $.%.&.*.=.-.;.>.,.'.).!.~.{.].$.",
"        ^./.(._.:.<.[.}.|.1.2.3.4.5.6.^.",
"        7.8.9.0.a.b.c.d.e.f.g.h.i.j.k.7.",
"        l.m.n.o.p.o.q.q.q.q.r.s.t.u.v.l.",
"        w.x.y.z.A.z.B.B.B.B.C.D.E.y.x.w.",
"                                        ",
"                                        "};
