/* XPM */
static char * start_xpm[] = {
"60 25 126 2",
"  	c None",
". 	c #DBDAD9",
"+ 	c #C5C4C3",
"@ 	c #969594",
"# 	c #868584",
"$ 	c #838282",
"% 	c #858484",
"& 	c #979796",
"* 	c #C7C6C5",
"= 	c #C3C2C1",
"- 	c #8B8B8A",
"; 	c #C6C5C5",
"> 	c #DBDBDA",
", 	c #DDDDDC",
"' 	c #C4C4C3",
") 	c #8B8A89",
"! 	c #C4C3C3",
"~ 	c #929292",
"{ 	c #D8D8D7",
"] 	c #D4D4D3",
"^ 	c #C2C2C1",
"/ 	c #939393",
"( 	c #81807F",
"_ 	c #D8D7D7",
": 	c #D2D1D0",
"< 	c #D1D1D0",
"[ 	c #7E7D7D",
"} 	c #D9D8D7",
"| 	c #D0CFCE",
"1 	c #7D7C7C",
"2 	c #7D7C7B",
"3 	c #D7D6D6",
"4 	c #CECDCC",
"5 	c #4E4E4E",
"6 	c #343434",
"7 	c #0D0D0D",
"8 	c #D7D7D6",
"9 	c #7C7B7A",
"0 	c #7C7B7B",
"a 	c #D6D6D5",
"b 	c #CDCCCB",
"c 	c #C4C4C4",
"d 	c #E8E8E8",
"e 	c #818181",
"f 	c #CCCCCC",
"g 	c #B2B2B2",
"h 	c #9E9E9E",
"i 	c #D7D6D5",
"j 	c #7B7A7A",
"k 	c #D5D4D3",
"l 	c #CBCAC9",
"m 	c #D5D4D4",
"n 	c #7A7979",
"o 	c #7A7978",
"p 	c #D3D3D2",
"q 	c #C9C8C7",
"r 	c #E0E0E0",
"s 	c #D4D3D2",
"t 	c #797877",
"u 	c #787877",
"v 	c #C7C7C6",
"w 	c #636363",
"x 	c #D2D1D1",
"y 	c #777776",
"z 	c #787776",
"A 	c #D1D0D0",
"B 	c #C6C6C6",
"C 	c #777675",
"D 	c #767675",
"E 	c #757574",
"F 	c #CECDCD",
"G 	c #CECECD",
"H 	c #747473",
"I 	c #747373",
"J 	c #C1C0BF",
"K 	c #737272",
"L 	c #737372",
"M 	c #CCCBCA",
"N 	c #C0BFBE",
"O 	c #CCCBCB",
"P 	c #727271",
"Q 	c #727272",
"R 	c #CACACA",
"S 	c #BEBDBD",
"T 	c #CBCACA",
"U 	c #717171",
"V 	c #727170",
"W 	c #CAC9C8",
"X 	c #BDBCBB",
"Y 	c #71706F",
"Z 	c #707070",
"` 	c #C8C7C7",
" .	c #BBBBBB",
"..	c #C8C8C8",
"+.	c #6F6F6F",
"@.	c #706F6F",
"#.	c #BBBAB9",
"$.	c #C8C7C6",
"%.	c #6F6E6E",
"&.	c #6A6968",
"*.	c #C2C1C0",
"=.	c #B9B8B7",
"-.	c #6A6A69",
";.	c #777676",
">.	c #A6A5A4",
",.	c #B6B5B4",
"'.	c #B7B6B5",
").	c #A4A3A3",
"!.	c #A09F9E",
"~.	c #A4A3A2",
"{.	c #B9B8B8",
"].	c #BCBBBA",
"^.	c #BBBABA",
"/.	c #BAB9B8",
"(.	c #A3A2A1",
"_.	c #6E6E6D",
":.	c #A1A09F",
"<.	c #ADACAB",
"[.	c #9E9D9D",
"}.	c #757474",
"|.	c #676665",
"1.	c #646362",
"2.	c #646463",
"3.	c #666565",
"4.	c #767574",
"5.	c #9F9E9E",
". + @ # $ $ $ $ $ $ $ $ $ $ $ $ $ $ $ $ $ $ $ $ $ $ $ $ $ $ $ $ $ $ $ $ $ $ $ $ $ $ $ $ $ $ $ $ $ $ $ $ $ $ $ $ % & * . ",
"= - ; > , , , , , , , , , , , , , , , , , , , , , , , , , , , , , , , , , , , , , , , , , , , , , , , , , , , , > ' ) ! ",
"~ ' { ] ] ] ] ] ] ] ] ] ] ] ] ] ] ] ] ] ] ] ] ] ] ] ] ] ] ] ] ] ] ] ] ] ] ] ] ] ] ] ] ] ] ] ] ] ] ] ] ] ] ] ] ] ] { ^ / ",
"( _ : < : : : : : : : : : : : : : : : : : : : : : : : : : : : : : : : : : : : : : : : : : : : : : : : : : : : : : : { ( ",
"[ } | | | | | | | | | | | | | | | | | | | | | | | | | | | | | | | | | | | | | | | | | | | | | | | | | | | | | | | | } 1 ",
"[ } | | | | | | | | | | | | | | | | | | | | | | | | | | | | | | | | | | | | | | | | | | | | | | | | | | | | | | | | } 1 ",
"2 3 4 4 4 4 4 4 4 4 4 4 4 4 4 4 4 4 4 4 4 4 4 5 5 6 4 7 5 5 6 4 7 5 5 4 5 5 5 6 4 7 5 5 5 4 4 4 4 4 4 4 4 4 4 4 4 4 8 9 ",
"0 a b b b b b b b b b b b b b b b b b b b b 6 c d d 7 e d d f 7 g d d 7 d d d h 7 5 d d d 5 b b b b b b b b b b b b i j ",
"j k l l l l l l l 5 5 l l l l l l l l l l l 6 h d d 6 f d d d 6 g d d 7 d d d d 7 h d d d 5 l l l l l l l l l l l l m n ",
"o p q q q q q q 5 r r 7 q q q q q q q q q q 6 6 f d e d d d d e d d h 7 d d c d 7 c d d d 5 q q q q 7 7 q q q q q q s t ",
"u : v v v v v v 5 r r 7 v 7 5 5 6 7 6 7 7 5 5 7 7 h d d d g d d d d e 7 d d g d 5 d h d d w v v v 7 5 d v v v v v v x y ",
"z A * * * * * * 5 r r 7 7 B r r r g 7 5 r r r r 5 6 d d h w d d d d 5 7 d d 5 6 6 7 7 d d 5 * * * 7 d c * * * * * * < C ",
"D | + + + + + + 5 r r 7 e r e 7 e w 7 B r w w r B 7 d d e 7 d d d d 7 7 d d 7 g h w 6 d d 5 + + 6 g d g + + + + + + | E ",
"E F = = = = = = 5 r r 7 h r 5 = 7 7 7 r r h h h h 6 d d 7 7 f d d g 7 7 d 7 h h h e 5 7 6 7 = 7 h d d c = = = = = = G H ",
"I b J J J J J J 5 r r 7 w r h 5 B B 7 g r w 5 h e 5 d d 7 6 e d d h 6 7 7 w f w h h e 5 e 5 7 7 f f d d J J J J J J b K ",
"L M N N N N N N 5 r r 7 7 e r r B w 6 7 B r r g 7 6 5 6 7 N 6 w 5 7 7 6 w e g h e h e w w e 5 e c h f d N N N N N N O P ",
"Q R S S S S S S S 7 7 S S 7 7 7 7 7 S 6 7 7 7 7 S S S S S S S S 7 7 e f g w h e e g e e w 5 w c h g h d S S S S S S T U ",
"V W X X X X X X X X X X X X X X X X X X X X X X X X X X X 7 6 6 w c d h h h e w h c e w w 6 h h c g g d X X X X X X W Y ",
"Z `  . . . . . . . . . . . . . .5 6 6 7 7 7 7 7 6 7 7 6 6 w w e g d c e h w e w c h e e w e f h e g f c  . . . . . ...+.",
"@.v #.#.#.#.#.#.#.#.#.#.#.#.#.7 5 w e e e e e e h h e h e h f f c f e h g w w g e h h w 5 d g g w h d c #.#.#.#.#.#.$.%.",
"&.*.=.=.=.=.=.=.=.=.=.=.=.=.=.=.=.=.=.=.=.=.=.=.=.=.=.=.=.=.=.=.=.=.=.=.=.=.=.=.=.=.=.=.=.=.=.=.=.=.=.=.=.=.=.=.=.=.*.-.",
"&.*.=.=.=.=.=.=.=.=.=.=.=.=.=.=.=.=.=.=.=.=.=.=.=.=.=.=.=.=.=.=.=.=.=.=.=.=.=.=.=.=.=.=.=.=.=.=.=.=.=.=.=.=.=.=.=.=.*.-.",
";.>.,.'.'.'.'.'.'.'.'.'.'.'.'.'.'.'.'.'.'.'.'.'.'.'.'.'.'.'.'.'.'.'.'.'.'.'.'.'.'.'.'.'.'.'.'.'.'.'.'.'.'.'.'.'.'.,.).u ",
"!.%.~.{.].].].].].].].].].].].].].].].].].].].].].].].].].].].].].].].].].].].].].].].].].].].].].].].].].].^.]./.(._.:.",
"<.[.}.|.1.1.1.1.1.1.1.1.1.1.1.1.1.1.1.1.1.1.1.1.1.1.1.1.1.1.1.1.1.1.1.1.1.1.1.1.1.1.1.1.1.1.1.1.1.1.1.1.1.1.2.1.3.4.5.<."};
