/* XPM */
static char * workspacebuttonactive_xpm[] = {
"50 29 115 2",
"  	c None",
". 	c #D5D4D3",
"+ 	c #D6D5D4",
"@ 	c #D2D1D0",
"# 	c #DBDAD9",
"$ 	c #C1C1C0",
"% 	c #8B8B8A",
"& 	c #847F7E",
"* 	c #8D8D8C",
"= 	c #C4C3C2",
"- 	c #D0CFCE",
"; 	c #BFBEBE",
"> 	c #7A7979",
", 	c #8E8D8C",
"' 	c #ACA8A7",
") 	c #C1C0BF",
"! 	c #CECDCC",
"~ 	c #898887",
"{ 	c #929191",
"] 	c #A3A2A2",
"^ 	c #AFAEAD",
"/ 	c #A2A1A0",
"( 	c #919090",
"_ 	c #8A8A89",
": 	c #CCCBCA",
"< 	c #757574",
"[ 	c #A1A09F",
"} 	c #AEAEAD",
"| 	c #757473",
"1 	c #CAC9C8",
"2 	c #767574",
"3 	c #A6A6A5",
"4 	c #ADACAB",
"5 	c #C9C8C7",
"6 	c #7F7E7D",
"7 	c #A8A7A6",
"8 	c #ACABAA",
"9 	c #A9A8A7",
"0 	c #C7C6C5",
"a 	c #828181",
"b 	c #A9A9A8",
"c 	c #C5C4C3",
"d 	c #81807F",
"e 	c #A7A6A5",
"f 	c #AAA9A8",
"g 	c #ABAAA9",
"h 	c #C2C1C0",
"i 	c #7F7F7E",
"j 	c #A5A4A4",
"k 	c #A6A5A4",
"l 	c #C0BFBE",
"m 	c #7E7D7C",
"n 	c #A3A2A1",
"o 	c #A7A7A6",
"p 	c #A4A3A2",
"q 	c #BEBDBC",
"r 	c #7C7C7B",
"s 	c #7B7A7A",
"t 	c #9F9F9E",
"u 	c #A5A4A3",
"v 	c #A09F9F",
"w 	c #BCBBBA",
"x 	c #797878",
"y 	c #9D9C9B",
"z 	c #9E9D9C",
"A 	c #BBBAB9",
"B 	c #787777",
"C 	c #9B9A9A",
"D 	c #A2A1A1",
"E 	c #9C9B9B",
"F 	c #B9B8B8",
"G 	c #767575",
"H 	c #999898",
"I 	c #9F9E9E",
"J 	c #999999",
"K 	c #B6B5B5",
"L 	c #757474",
"M 	c #989796",
"N 	c #9E9D9D",
"O 	c #999897",
"P 	c #B5B4B3",
"Q 	c #747373",
"R 	c #969595",
"S 	c #979695",
"T 	c #B3B2B1",
"U 	c #737271",
"V 	c #959493",
"W 	c #9B9A99",
"X 	c #959494",
"Y 	c #B1B0AF",
"Z 	c #717171",
"` 	c #939292",
" .	c #949393",
"..	c #AFAEAE",
"+.	c #71706F",
"@.	c #929190",
"#.	c #939291",
"$.	c #AEADAC",
"%.	c #6F6F6E",
"&.	c #90908F",
"*.	c #969695",
"=.	c #91908F",
"-.	c #727170",
";.	c #8D8C8B",
">.	c #878686",
",.	c #908F8E",
"'.	c #8D8C8C",
").	c #8F8E8D",
"!.	c #828180",
"~.	c #80807F",
"{.	c #BDBCBB",
"].	c #CDCCCB",
"^.	c #D3D2D2",
"/.	c #D3D3D2",
"(.	c #BCBCBB",
". . . . . . . . . . . . . . . . . . . . . . . . . . . . . . . . . . . . . . . . . . . . . . . . . . ",
"+ + + + + + + + + + + + + + + + + + + + + + + + + + + + + + + + + + + + + + + + + + + + + + + + + + ",
"@ @ # $ % & & & & & & & & & & & & & & & & & & & & & & & & & & & & & & & & & & & & & & & & * = # @ @ ",
"- - ; > , ' ' ' ' ' ' ' ' ' ' ' ' ' ' ' ' ' ' ' ' ' ' ' ' ' ' ' ' ' ' ' ' ' ' ' ' ' ' ' ' , > ) - - ",
"! ! ~ { ] ^ ^ ^ ^ ^ ^ ^ ^ ^ ^ ^ ^ ^ ^ ^ ^ ^ ^ ^ ^ ^ ^ ^ ^ ^ ^ ^ ^ ^ ^ ^ ^ ^ ^ ^ ^ ^ ^ ^ ^ / ( _ ! ! ",
": : < [ } } } } } } } } } } } } } } } } } } } } } } } } } } } } } } } } } } } } } } } } } } [ | : : ",
"1 1 2 3 4 4 4 4 4 4 4 4 4 4 4 4 4 4 4 4 4 4 4 4 4 4 4 4 4 4 4 4 4 4 4 4 4 4 4 4 4 4 4 4 4 4 3 2 1 1 ",
"5 5 6 7 8 8 8 8 8 8 8 8 8 8 8 8 8 8 8 8 8 8 8 8 8 8 8 8 8 8 8 8 8 8 8 8 8 8 8 8 8 8 8 8 8 8 9 6 5 5 ",
"0 0 a 9 8 8 8 8 8 8 8 8 8 8 8 8 8 8 8 8 8 8 8 8 8 8 8 8 8 8 8 8 8 8 8 8 8 8 8 8 8 8 8 8 8 8 b a 0 0 ",
"c c d e f f g g g g g g g g g g g g g g g g g g g g g g g g g g g g g g g g g g g g g g g f 7 d c c ",
"h h i j 9 9 9 9 9 9 9 9 9 9 9 9 9 9 9 9 9 9 9 9 9 9 9 9 9 9 9 9 9 9 9 9 9 9 9 9 9 9 9 9 9 9 k i h h ",
"l l m n o o o o o o o o o o o o o o o o o o o o o o o o o o o o o o o o o o o o o o o o o o p m l l ",
"q q r [ 3 3 3 3 3 3 3 3 3 3 3 3 3 3 3 3 3 3 3 3 3 3 3 3 3 3 3 3 3 3 3 3 3 3 3 3 3 3 3 3 3 3 / r q q ",
"q q s t u u u u u u u u u u u u u u u u u u u u u u u u u u u u u u u u u u u u u u u u u u v s q q ",
"w w x y p p p p p p p p p p p p p p p p p p p p p p p p p p p p p p p p p p p p p p p p p p z x w w ",
"A A B C D D D D D D D D D D D D D D D D D D D D D D D D D D D D D D D D D D D D D D D D D D E B A A ",
"F F G H I I I I I I I I I I I I I I I I I I I I I I I I I I I I I I I I I I I I I I I I I I J G F F ",
"K K L M N N N N N N N N N N N N N N N N N N N N N N N N N N N N N N N N N N N N N N N N N N O L K K ",
"P P Q R y y y y y y y y y y y y y y y y y y y y y y y y y y y y y y y y y y y y y y y y y y S Q P P ",
"T T U V W W W W W W W W W W W W W W W W W W W W W W W W W W W W W W W W W W W W W W W W W W X U T T ",
"Y Y Z ` H H H H H H H H H H H H H H H H H H H H H H H H H H H H H H H H H H H H H H H H H H  .Z Y Y ",
"....+.@.M M M M M M M M M M M M M M M M M M M M M M M M M M M M M M M M M M M M M M M M M M #.+.....",
"$.$.%.&.*.*.*.*.*.*.*.*.*.*.*.*.*.*.*.*.*.*.*.*.*.*.*.*.*.*.*.*.*.*.*.*.*.*.*.*.*.*.*.*.*.*.=.%.$.$.",
"8 8 -., #.#.#.#.#.#.#.#.#.#.#.#.#.#.#.#.#.#.#.#.#.#.#.#.#.#.#.#.#.#.#.#.#.#.#.#.#.#.#.#.#.#.;.-.8 8 ",
"e e -.>.,.@.=.=.=.=.=.=.=.=.=.=.=.=.=.=.=.=.=.=.=.=.=.=.=.=.=.=.=.=.=.=.=.=.=.=.=.=.=.=.=.,.;.-.e e ",
"u u 4 m ~ '.).).).).).).).).).).).).).).).).).).).).).).).).).).).).).).).).).).).).).).).~ m 4 u u ",
"n n 4 4 ,.!.~.~.~.~.~.~.~.~.~.~.~.~.~.~.~.~.~.~.~.~.~.~.~.~.~.~.~.~.~.~.~.~.~.~.~.~.~.~.!.&.4 4 n n ",
"n n n {.].^././././././././././././././././././././././././././././././././././././././.^.].(.n n n ",
"4 4 4 4 4 4 4 4 4 4 4 4 4 4 4 4 4 4 4 4 4 4 4 4 4 4 4 4 4 4 4 4 4 4 4 4 4 4 4 4 4 4 4 4 4 4 4 4 4 4 "};
