/* XPM */
static char * closeA_xpm[] = {
"21 38 183 2",
"  	c None",
". 	c #E0DFDE",
"+ 	c #DDDCDB",
"@ 	c #DCDCDB",
"# 	c #DCDBDA",
"$ 	c #D1D0CF",
"% 	c #CBCAC9",
"& 	c #D5D5D5",
"* 	c #DCDCDA",
"= 	c #D6D5D5",
"- 	c #C5C5C3",
"; 	c #E2E1E0",
"> 	c #ECEBEA",
", 	c #ECEAE9",
"' 	c #EBEBE9",
") 	c #EDEBEA",
"! 	c #E1E1E0",
"~ 	c #C4C4C3",
"{ 	c #C1C0BF",
"] 	c #E5E5E3",
"^ 	c #E8E8E7",
"/ 	c #E7E7E5",
"( 	c #E9E9E6",
"_ 	c #E6E6E3",
": 	c #C0BFBE",
"< 	c #DFDEDD",
"[ 	c #C8C7C6",
"} 	c #D7D7D4",
"| 	c #E5E5E4",
"1 	c #C2C2C2",
"2 	c #969696",
"3 	c #E3E3E2",
"4 	c #AAA9A8",
"5 	c #ADADAD",
"6 	c #E5E5E5",
"7 	c #D4D4D4",
"8 	c #B9B7B6",
"9 	c #E4E3E2",
"0 	c #323130",
"a 	c #878685",
"b 	c #A3A3A1",
"c 	c #272625",
"d 	c #BDBBBB",
"e 	c #E4E4E3",
"f 	c #B8B7B6",
"g 	c #D5D5D4",
"h 	c #BBBABA",
"i 	c #E0DFDF",
"j 	c #DFDEDE",
"k 	c #32302F",
"l 	c #666363",
"m 	c #C3C3C1",
"n 	c #E1E0DF",
"o 	c #B9B8B8",
"p 	c #CFCECD",
"q 	c #DDDBDA",
"r 	c #D9D7D6",
"s 	c #DEDCDC",
"t 	c #9D9C9C",
"u 	c #171614",
"v 	c #797977",
"w 	c #E1DFDF",
"x 	c #DDDBDB",
"y 	c #B7B6B4",
"z 	c #ACACAB",
"A 	c #DAD9D8",
"B 	c #D5D4D2",
"C 	c #9F9D9C",
"D 	c #282726",
"E 	c #B1B1AF",
"F 	c #848382",
"G 	c #DBDAD8",
"H 	c #D8D7D6",
"I 	c #A9A8A8",
"J 	c #D8D6D6",
"K 	c #D1D0CE",
"L 	c #ADACA9",
"M 	c #C1C1BF",
"N 	c #D4D4D2",
"O 	c #302F2E",
"P 	c #92918F",
"Q 	c #D8D7D5",
"R 	c #A7A6A6",
"S 	c #B8B8B7",
"T 	c #B4B3B2",
"U 	c #D2CFCE",
"V 	c #C9C7C5",
"W 	c #D0CFCE",
"X 	c #D9D8D7",
"Y 	c #CECCCA",
"Z 	c #D6D4D2",
"` 	c #DBDAD9",
" .	c #C3C1BF",
"..	c #D3D1D0",
"+.	c #AFAEAD",
"@.	c #A2A1A0",
"#.	c #C2C2C0",
"$.	c #D3D2D0",
"%.	c #CAC8C6",
"&.	c #D2D1CE",
"*.	c #D5D4D3",
"=.	c #A1A0A0",
"-.	c #C5C4C3",
";.	c #9A9998",
">.	c #A7A7A5",
",.	c #CCCCCB",
"'.	c #CDCCCB",
").	c #CCCBC9",
"!.	c #A6A5A4",
"~.	c #CAC9C8",
"{.	c #B1B1B0",
"].	c #8B8B8A",
"^.	c #838181",
"/.	c #888887",
"(.	c #8A8A89",
"_.	c #C0C0BF",
":.	c #BDBCBB",
"<.	c #DEDDDC",
"[.	c #C1C0BE",
"}.	c #CAC9C7",
"|.	c #C5C3C3",
"1.	c #E1E0DE",
"2.	c #DBDBD8",
"3.	c #D7D6D5",
"4.	c #DBDAD7",
"5.	c #E2E0DF",
"6.	c #BFBDBC",
"7.	c #DADAD9",
"8.	c #D6D5D4",
"9.	c #CCCAC9",
"0.	c #D7D6D4",
"a.	c #DCDBD9",
"b.	c #BEBDBC",
"c.	c #CFCECC",
"d.	c #B2B1AF",
"e.	c #8A8988",
"f.	c #D0CECC",
"g.	c #9C9A98",
"h.	c #9F9E9C",
"i.	c #B8B6B5",
"j.	c #E0E0DD",
"k.	c #807F7D",
"l.	c #9A9997",
"m.	c #262524",
"n.	c #B4B2B1",
"o.	c #E0E0DE",
"p.	c #B7B6B5",
"q.	c #BBBAB9",
"r.	c #DDDDDB",
"s.	c #D4D4D3",
"t.	c #31302F",
"u.	c #646261",
"v.	c #272624",
"w.	c #DADAD8",
"x.	c #DFDFDD",
"y.	c #9E9D9C",
"z.	c #171615",
"A.	c #DDDDDC",
"B.	c #B7B7B4",
"C.	c #ADADAC",
"D.	c #E0DEDD",
"E.	c #A5A4A3",
"F.	c #898888",
"G.	c #DFDFDE",
"H.	c #ABAAA9",
"I.	c #DDDCDC",
"J.	c #BBBAB8",
"K.	c #292827",
"L.	c #9E9C9B",
"M.	c #B9B8B7",
"N.	c #D2D1D0",
"O.	c #E8E8E8",
"P.	c #E7E7E6",
"Q.	c #DDDCDA",
"R.	c #D3D3D2",
"S.	c #B3B3B2",
"T.	c #C9C9C8",
"U.	c #EBEBEA",
"V.	c #E9E9E8",
"W.	c #E7E7E7",
"X.	c #AEAEAC",
"Y.	c #DAD9D7",
"Z.	c #898988",
". . . . . . . . . . . . . . . . . . . . . ",
". . . . . . . . + @ # @ + . . . . . . . . ",
". . . . . . @ $ % & * = % $ @ . . . . . . ",
". . . . . # - ; > > , ' ) ! ~ # . . . . . ",
". . . . @ { ] ^ / / / / / ( _ : @ . . . . ",
". . . < [ } | 1 2 3 3 3 4 5 6 7 [ < . . . ",
". . . @ 8 9 . % 0 a . b c d . e f @ . . . ",
". . . g h i # j g k l c m ! # n o g . . . ",
". . . p f q r r s t u v w r r x y p . . . ",
". . . $ z A B B C D E 0 F B B G 4 $ . . . ",
". . . H I J K L D M i N O P K Q R H . . . ",
". . . @ S T U V W X Y Z `  ...+.S @ . . . ",
". . . . W @.#.$.B %.%.%.&.*.{ =.W . . . . ",
". . . . + -.;.>.,.'.).'.,.!.;.-.+ . . . . ",
". . . . . @ ~.{.].^./.^.(.{.~.@ . . . . . ",
". . . . . . < ` % _.:._.% ` < . . . . . . ",
". . . . . . . . . <.+ <.. . . . . . . . . ",
". . . . . . . . . . . . . . . . . . . . . ",
". . . . . . . . . . . . . . . . . . . . . ",
". . . . . . . . . . . . . . . . . . n . . ",
". . . . . . . . + @ # @ + . . . . . . . . ",
". . . . . . @ $ [.-.}.|.[.$ @ . . . . . . ",
". . . . . # M $ 1.2.3.4.5.$ _.# . . . . . ",
". . . . @ 6.7.8.9.9.9.9.9.0.a.b.@ . . . . ",
". . . < [ c.3.d.e.f.f.f.g.h.H '.[ < . . . ",
". . . @ i.j.$._.O k.$.l.m.n.$.o.p.@ . . . ",
". . . g q.r.0.` s.t.u.v.#.<.0.+ f g . . . ",
". . . p S <.w.w.x.y.z.v ! w.w.A.B.p . . . ",
". . . $ C.D.<.<.E.D E 0 F.<.<.G.H.$ . . . ",
". . . H I I.; J.K.m ^ g 0 L.; q R H . . . ",
". . . @ S M.9 @ N.O.| P.Q.R.3 S.S @ . . . ",
". . . . W @.T.^ U.V.V.V.' W.[ =.W . . . . ",
". . . . + -.;.X.Y.e / e X C.;.-.+ . . . . ",
". . . . . @ ~.{.].^.Z.^.(.{.~.@ . . . . . ",
". . . . . . < ` % _.:._.% ` < . . . . . . ",
". . . . . . . . . <.+ <.. . . . . . . . . ",
". . . . . . . . . . . . . . . . . . . . . ",
". . . . . . . . . . . . . . . . . . . . . "};
