/* XPM */
static char * closeO_xpm[] = {
"21 38 227 2",
"  	c None",
". 	c #E0DFDE",
"+ 	c #DEDCDB",
"@ 	c #DFDCDB",
"# 	c #DFDBDA",
"$ 	c #DDDCDB",
"% 	c #DCD0CF",
"& 	c #DECAC9",
"* 	c #E3D5D5",
"= 	c #E7DCDA",
"- 	c #E4D5D5",
"; 	c #DBC5C3",
"> 	c #E9E1E0",
", 	c #ECEBEA",
"' 	c #ECEAE9",
") 	c #EBEBE9",
"! 	c #EDEBEA",
"~ 	c #DAC4C3",
"{ 	c #DAC0BF",
"] 	c #E8E5E3",
"^ 	c #E8E8E7",
"/ 	c #E7E7E5",
"( 	c #E9E9E6",
"_ 	c #E9E6E3",
": 	c #D9BFBE",
"< 	c #DFDEDD",
"[ 	c #D9C7C6",
"} 	c #E2D7D4",
"| 	c #E5E5E4",
"1 	c #DABFBF",
"2 	c #CF9090",
"3 	c #E3E3E2",
"4 	c #D4A4A3",
"5 	c #D5A8A8",
"6 	c #E5E5E5",
"7 	c #E0D4D4",
"8 	c #D6B7B6",
"9 	c #E4E3E2",
"0 	c #DBC8C7",
"a 	c #B52323",
"b 	c #C97F7E",
"c 	c #D19E9D",
"d 	c #B21717",
"e 	c #D8B8B8",
"f 	c #E5E4E3",
"g 	c #DCD5D4",
"h 	c #D7BABA",
"i 	c #E0DFDF",
"j 	c #DCDBDA",
"k 	c #DFDEDE",
"l 	c #E6D3D2",
"m 	c #B52222",
"n 	c #C05A5A",
"o 	c #E1BFBE",
"p 	c #E1E1E0",
"q 	c #E1E0DF",
"r 	c #D7B8B8",
"s 	c #DBCECD",
"t 	c #D7B7B6",
"u 	c #DDDBDA",
"v 	c #D9D7D6",
"w 	c #DEDCDC",
"x 	c #D49796",
"y 	c #AE0505",
"z 	c #CB6F6E",
"A 	c #E1DFDF",
"B 	c #DDDBDB",
"C 	c #D7B6B4",
"D 	c #D3ACAB",
"E 	c #DAD9D8",
"F 	c #D5D4D2",
"G 	c #CA9998",
"H 	c #B21818",
"I 	c #DDABAA",
"J 	c #C57C7B",
"K 	c #DBDAD8",
"L 	c #D3A9A8",
"M 	c #DDD7D6",
"N 	c #D3A8A8",
"O 	c #DBD6D6",
"P 	c #D1D0CE",
"Q 	c #CAA8A6",
"R 	c #B11818",
"S 	c #DFBDBC",
"T 	c #E5D2D0",
"U 	c #B32121",
"V 	c #C58C8A",
"W 	c #DBD7D5",
"X 	c #D2A6A6",
"Y 	c #D7B8B7",
"Z 	c #D2B3B3",
"` 	c #D2CFCE",
" .	c #D0C6C4",
"..	c #E3CDCC",
"+.	c #D9D8D7",
"@.	c #CECCCA",
"#.	c #D6D4D2",
"$.	c #E7D9D8",
"%.	c #D1BFBD",
"&.	c #D3D1D0",
"*.	c #D1AEAD",
"=.	c #DCCFCE",
"-.	c #D1A1A0",
";.	c #D3C2C0",
">.	c #D3D2D0",
",.	c #CAC8C6",
"'.	c #D2D1CE",
").	c #D5D4D3",
"!.	c #D3C0BF",
"~.	c #D1A0A0",
"{.	c #CF9998",
"].	c #CDA7A6",
"^.	c #D1CCCB",
"/.	c #CDCCCB",
"(.	c #CCCBC9",
"_.	c #CDA5A4",
":.	c #DAC9C8",
"<.	c #D4B1B0",
"[.	c #CC8B8A",
"}.	c #CA8282",
"|.	c #C78988",
"1.	c #CC8A89",
"2.	c #E0DEDD",
"3.	c #DEDAD9",
"4.	c #DACAC9",
"5.	c #D9C0BF",
"6.	c #D9BCBB",
"7.	c #DFDDDC",
"8.	c #DCDCDB",
"9.	c #D1D0CF",
"0.	c #C1C0BE",
"a.	c #C5C4C3",
"b.	c #CAC9C7",
"c.	c #C5C3C3",
"d.	c #C1C1BF",
"e.	c #E1E0DE",
"f.	c #DBDBD8",
"g.	c #D7D6D5",
"h.	c #DBDAD7",
"i.	c #E2E0DF",
"j.	c #C0C0BF",
"k.	c #BFBDBC",
"l.	c #DADAD9",
"m.	c #D6D5D4",
"n.	c #CCCAC9",
"o.	c #D7D6D4",
"p.	c #DCDBD9",
"q.	c #BEBDBC",
"r.	c #C8C7C6",
"s.	c #CFCECC",
"t.	c #B2B1AF",
"u.	c #8A8988",
"v.	c #D0CECC",
"w.	c #9C9A98",
"x.	c #9F9E9C",
"y.	c #D8D7D6",
"z.	c #B8B6B5",
"A.	c #E0E0DD",
"B.	c #302F2E",
"C.	c #807F7D",
"D.	c #9A9997",
"E.	c #262524",
"F.	c #B4B2B1",
"G.	c #E0E0DE",
"H.	c #B7B6B5",
"I.	c #D5D5D4",
"J.	c #BBBAB9",
"K.	c #DDDDDB",
"L.	c #DBDAD9",
"M.	c #D4D4D3",
"N.	c #31302F",
"O.	c #646261",
"P.	c #272624",
"Q.	c #C2C2C0",
"R.	c #DEDDDC",
"S.	c #B8B7B6",
"T.	c #CFCECD",
"U.	c #B8B8B7",
"V.	c #DADAD8",
"W.	c #DFDFDD",
"X.	c #9E9D9C",
"Y.	c #171615",
"Z.	c #797977",
"`.	c #DDDDDC",
" +	c #B7B7B4",
".+	c #ADADAC",
"++	c #A5A4A3",
"@+	c #282726",
"#+	c #B1B1AF",
"$+	c #323130",
"%+	c #898888",
"&+	c #DFDFDE",
"*+	c #ABAAA9",
"=+	c #A9A8A8",
"-+	c #DDDCDC",
";+	c #E2E1E0",
">+	c #BBBAB8",
",+	c #292827",
"'+	c #C3C3C1",
")+	c #9E9C9B",
"!+	c #A7A6A6",
"~+	c #B9B8B7",
"{+	c #D2D1D0",
"]+	c #E8E8E8",
"^+	c #E7E7E6",
"/+	c #DDDCDA",
"(+	c #D3D3D2",
"_+	c #B3B3B2",
":+	c #D0CFCE",
"<+	c #A2A1A0",
"[+	c #C9C9C8",
"}+	c #EBEBEA",
"|+	c #E9E9E8",
"1+	c #E7E7E7",
"2+	c #A1A0A0",
"3+	c #9A9998",
"4+	c #AEAEAC",
"5+	c #DAD9D7",
"6+	c #E4E4E3",
"7+	c #CAC9C8",
"8+	c #B1B1B0",
"9+	c #8B8B8A",
"0+	c #838181",
"a+	c #898988",
"b+	c #8A8A89",
"c+	c #CBCAC9",
"d+	c #BDBCBB",
". . . . . . . . . . . . . . . . . . . . . ",
". . . . . . . . + @ # @ + . . . . . . . . ",
". . . . . . $ % & * = - & % $ . . . . . . ",
". . . . . # ; > , , ' ) ! > ~ # . . . . . ",
". . . . @ { ] ^ / / / / / ( _ : @ . . . . ",
". . . < [ } | 1 2 3 3 3 4 5 6 7 [ < . . . ",
". . . @ 8 9 . 0 a b . c d e . f 8 @ . . . ",
". . . g h i j k l m n d o p j q r g . . . ",
". . . s t u v v w x y z A v v B C s . . . ",
". . . % D E F F G H I a J F F K L % . . . ",
". . . M N O P Q R S i T U V P W X M . . . ",
". . . + Y Z `  ...+.@.#.$.%.&.*.Y + . . . ",
". . . . =.-.;.>.F ,.,.,.'.).!.~.=.. . . . ",
". . . . + ~ {.].^./.(./.^._.{.~ + . . . . ",
". . . . . $ :.<.[.}.|.}.1.<.:.$ . . . . . ",
". . . . . . 2.3.4.5.6.5.4.3.2.. . . . . . ",
". . . . . . . . . 7.+ 7.. . . . . . . . . ",
". . . . . . . . . . . . . . . . . . . . . ",
". . . . . . . . . . . . . . . . . . . . . ",
". . . . . . . . . . . . . . . . . . q . . ",
". . . . . . . . $ 8.j 8.$ . . . . . . . . ",
". . . . . . 8.9.0.a.b.c.0.9.8.. . . . . . ",
". . . . . j d.9.e.f.g.h.i.9.j.j . . . . . ",
". . . . 8.k.l.m.n.n.n.n.n.o.p.q.8.. . . . ",
". . . < r.s.g.t.u.v.v.v.w.x.y./.r.< . . . ",
". . . 8.z.A.>.j.B.C.>.D.E.F.>.G.H.8.. . . ",
". . . I.J.K.o.L.M.N.O.P.Q.R.o.$ S.I.. . . ",
". . . T.U.R.V.V.W.X.Y.Z.p V.V.`. +T.. . . ",
". . . 9..+2.R.R.++@+#+$+%+R.R.&+*+9.. . . ",
". . . y.=+-+;+>+,+'+^ I.$+)+;+u !+y.. . . ",
". . . 8.U.~+9 8.{+]+| ^+/+(+3 _+U.8.. . . ",
". . . . :+<+[+^ }+|+|+|+) 1+r.2+:+. . . . ",
". . . . $ a.3+4+5+6+/ 6++..+3+a.$ . . . . ",
". . . . . 8.7+8+9+0+a+0+b+8+7+8.. . . . . ",
". . . . . . < L.c+j.d+j.c+L.< . . . . . . ",
". . . . . . . . . R.$ R.. . . . . . . . . ",
". . . . . . . . . . . . . . . . . . . . . ",
". . . . . . . . . . . . . . . . . . . . . "};
