/* XPM */
static char * aboveO_xpm[] = {
"21 38 243 2",
"  	c None",
". 	c #E0DFDE",
"+ 	c #DDDDDE",
"@ 	c #DCDFDF",
"# 	c #DCDEDF",
"$ 	c #DCDDDF",
"% 	c #D4DAE0",
"& 	c #D0DCE6",
"* 	c #D9E2E9",
"= 	c #DFE6EA",
"- 	c #DAE3EA",
"; 	c #CADAE3",
"> 	c #E4E8EA",
", 	c #ECEBEA",
"' 	c #ECEAE9",
") 	c #EBEBE9",
"! 	c #EDEBEA",
"~ 	c #E3E8EB",
"{ 	c #C9D9E4",
"] 	c #C8D8E4",
"^ 	c #E6E8E7",
"/ 	c #E8E8E7",
"( 	c #E7E7E5",
"_ 	c #E9E9E6",
": 	c #E6E9E7",
"< 	c #C7D7E3",
"[ 	c #DFDEDE",
"} 	c #CCD7E1",
"| 	c #DAE1E4",
"1 	c #E5E5E4",
"2 	c #E3E3E2",
"3 	c #BFD6E8",
"4 	c #38A6FE",
"5 	c #A8CEEB",
"6 	c #E5E5E5",
"7 	c #D7E0E7",
"8 	c #C1D3E3",
"9 	c #E4E3E2",
"0 	c #BDD3E5",
"a 	c #42AAFC",
"b 	c #9CCEF4",
"c 	c #44ABFC",
"d 	c #A9CCE8",
"e 	c #E4E5E4",
"f 	c #C0D4E4",
"g 	c #D7DCE0",
"h 	c #C2D6E4",
"i 	c #E0DFDF",
"j 	c #DCDBDA",
"k 	c #C3D3E0",
"l 	c #43AAFC",
"m 	c #B7D7F0",
"n 	c #CADFF0",
"o 	c #46ABFB",
"p 	c #AECCE4",
"q 	c #E1E0DF",
"r 	c #C1D6E5",
"s 	c #D2D9E0",
"t 	c #DDDBDA",
"u 	c #D9D7D6",
"v 	c #CBD4DC",
"w 	c #C1DBEF",
"x 	c #D7DEE4",
"y 	c #4FAEF8",
"z 	c #C5D6E4",
"A 	c #D2E3EE",
"B 	c #C1D2DF",
"C 	c #DDDBDB",
"D 	c #C1D4E4",
"E 	c #D4DBE0",
"F 	c #B7D1E4",
"G 	c #DAD9D8",
"H 	c #D5D4D2",
"I 	c #D9D9D7",
"J 	c #D5DCE0",
"K 	c #54AFF6",
"L 	c #68B8F7",
"M 	c #47ABFA",
"N 	c #C7D5E0",
"O 	c #DBDAD8",
"P 	c #B5CFE5",
"Q 	c #D9DCDF",
"R 	c #B5D0E7",
"S 	c #D9D9DA",
"T 	c #D1D0CE",
"U 	c #C9CED1",
"V 	c #54AEF5",
"W 	c #86C2F1",
"X 	c #ECECEA",
"Y 	c #A3CEF0",
"Z 	c #47ABF9",
"` 	c #BDCBD4",
" .	c #D9DAD9",
"..	c #B4CFE7",
"+.	c #C0D5E4",
"@.	c #BCD0E0",
"#.	c #D2CFCE",
"$.	c #B1C5D4",
"%.	c #92C5EE",
"&.	c #E6E5E4",
"*.	c #CFCDCB",
"=.	c #E2E1E0",
"-.	c #A7CFEE",
";.	c #A0C1DA",
">.	c #D3D1D0",
",.	c #B9CEDF",
"'.	c #D3DAE0",
").	c #AFCDE6",
"!.	c #C7D2D9",
"~.	c #D6D5D4",
"{.	c #CBC9C7",
"].	c #CAC8C6",
"^.	c #DFDEDD",
"/.	c #DBDBD9",
"(.	c #C6D1DA",
"_.	c #AECDE6",
":.	c #CAD8E2",
"<.	c #AACBE7",
"[.	c #B2CBDD",
"}.	c #CED1D3",
"|.	c #CDCCCB",
"1.	c #CCCBC9",
"2.	c #B2CBDE",
"3.	c #CED8E1",
"4.	c #BBD2E5",
"5.	c #9EC9EA",
"6.	c #97C5EA",
"7.	c #9BC5E6",
"8.	c #9DC8EA",
"9.	c #DFDFDE",
"0.	c #DBDDDF",
"a.	c #CFD8E1",
"b.	c #C6D7E3",
"c.	c #C4D6E3",
"d.	c #DEDEDE",
"e.	c #DDDCDB",
"f.	c #DCDCDB",
"g.	c #D1D0CF",
"h.	c #C1C0BE",
"i.	c #C5C4C3",
"j.	c #CAC9C7",
"k.	c #C5C3C3",
"l.	c #C1C1BF",
"m.	c #E1E0DE",
"n.	c #DBDBD8",
"o.	c #D7D6D5",
"p.	c #DBDAD7",
"q.	c #E2E0DF",
"r.	c #C0C0BF",
"s.	c #BFBDBC",
"t.	c #DADAD9",
"u.	c #CCCAC9",
"v.	c #D7D6D4",
"w.	c #DCDBD9",
"x.	c #BEBDBC",
"y.	c #C8C7C6",
"z.	c #CFCECC",
"A.	c #D0CECC",
"B.	c #A9A7A6",
"C.	c #1A1917",
"D.	c #908F8E",
"E.	c #D8D7D6",
"F.	c #B8B6B5",
"G.	c #E0E0DD",
"H.	c #D3D2D0",
"I.	c #ADACAA",
"J.	c #242321",
"K.	c #8E8E8C",
"L.	c #272625",
"M.	c #969594",
"N.	c #E0E0DE",
"O.	c #B7B6B5",
"P.	c #D5D5D4",
"Q.	c #BBBAB9",
"R.	c #DDDDDB",
"S.	c #BAB9B7",
"T.	c #262524",
"U.	c #AEADAB",
"V.	c #E7E6E5",
"W.	c #C4C4C2",
"X.	c #292827",
"Y.	c #A1A09F",
"Z.	c #B8B7B6",
"`.	c #CFCECD",
" +	c #B8B8B7",
".+	c #DEDDDC",
"++	c #DADAD8",
"@+	c #C8C8C7",
"#+	c #BABABA",
"$+	c #D6D6D5",
"%+	c #353533",
"&+	c #C1C1BE",
"*+	c #CDCDCC",
"=+	c #BCBCBA",
"-+	c #DDDDDC",
";+	c #B7B7B4",
">+	c #ADADAC",
",+	c #E0DEDD",
"'+	c #D9D8D8",
")+	c #3C3B3A",
"!+	c #525150",
"~+	c #2D2C2B",
"{+	c #C8C6C6",
"]+	c #E2E1E1",
"^+	c #ABAAA9",
"/+	c #A9A8A8",
"(+	c #DDDCDC",
"_+	c #3F3E3D",
":+	c #797878",
"<+	c #EEEEEC",
"[+	c #999898",
"}+	c #2E2D2D",
"|+	c #A7A6A6",
"1+	c #B9B8B7",
"2+	c #BEBEBC",
"3+	c #878786",
"4+	c #ECECEC",
"5+	c #EBEBEA",
"6+	c #A0A09E",
"7+	c #A7A7A5",
"8+	c #B3B3B2",
"9+	c #D0CFCE",
"0+	c #A2A1A0",
"a+	c #C9C9C8",
"b+	c #E9E9E8",
"c+	c #EDEDEC",
"d+	c #EDEDEB",
"e+	c #EAEAE8",
"f+	c #A1A0A0",
"g+	c #9A9998",
"h+	c #AEAEAC",
"i+	c #DAD9D7",
"j+	c #E4E4E3",
"k+	c #D9D8D7",
"l+	c #CAC9C8",
"m+	c #B1B1B0",
"n+	c #8B8B8A",
"o+	c #838181",
"p+	c #898988",
"q+	c #8A8A89",
"r+	c #DBDAD9",
"s+	c #CBCAC9",
"t+	c #BDBCBB",
". . . . . . . . . . . . . . . . . . . . . ",
". . . . . . . . + @ # @ + . . . . . . . . ",
". . . . . . $ % & * = - & % $ . . . . . . ",
". . . . . # ; > , , ' ) ! ~ { # . . . . . ",
". . . . @ ] ^ / ( ( ( ( ( _ : < @ . . . . ",
". . . [ } | 1 2 2 3 4 5 2 2 6 7 } [ . . . ",
". . . @ 8 9 . . 0 a b c d . . e f @ . . . ",
". . . g h i j k l m / n o p j q r g . . . ",
". . . s 8 t u v w x y z A B u C D s . . . ",
". . . E F G H I J K L M N j H O P E . . . ",
". . . Q R S T U V W X Y Z ` T  ...Q . . . ",
". . . # +.@.#.$.%.&.*.=.-.;.>.,.+.# . . . ",
". . . . '.).!.~.9 {.].].^./.(._.'.. . . . ",
". . . . + :.<.[.}.|.1.|.}.2.<.:.+ . . . . ",
". . . . . $ 3.4.5.6.7.6.8.4.3.$ . . . . . ",
". . . . . . 9.0.a.b.c.b.a.0.9.. . . . . . ",
". . . . . . . . . d.+ d.. . . . . . . . . ",
". . . . . . . . . . . . . . . . . . . . . ",
". . . . . . . . . . . . . . . . . . . . . ",
". . . . . . . . . . . . . . . . . . . . . ",
". . . . . . . . e.f.j f.e.. . . . . . . . ",
". . . . . . f.g.h.i.j.k.h.g.f.. . . . . . ",
". . . . . j l.g.m.n.o.p.q.g.r.j . . . . . ",
". . . . f.s.t.~.u.u.u.u.u.v.w.x.f.. . . . ",
". . . ^.y.z.o.A.A.B.C.D.A.A.E.|.y.^.. . . ",
". . . f.F.G.H.H.I.J.K.L.M.H.H.N.O.f.. . . ",
". . . P.Q.R.v.S.T.U.V.W.X.Y.v.e.Z.P.. . . ",
". . . `. +.+++@+#+$+%+&+*+=+++-+;+`.. . . ",
". . . g.>+,+.+q '+)+!+~+{+]+.+9.^+g.. . . ",
". . . E./+(+=.o._+:+<+[+}+y.=.t |+E.. . . ",
". . . f. +1+9 2+3+4+1 5+6+7+2 8+ +f.. . . ",
". . . . 9+0+a+b+c+b+b+b+d+e+y.f+9+. . . . ",
". . . . e.i.g+h+i+j+( j+k+>+g+i.e.. . . . ",
". . . . . f.l+m+n+o+p+o+q+m+l+f.. . . . . ",
". . . . . . ^.r+s+r.t+r.s+r+^.. . . . . . ",
". . . . . . . . . .+e..+. . . . . . . . . ",
". . . . . . . . . . . . . . . . . . . . . ",
". . . . . . . . . . . . . . . . . . . . . "};
