/* XPM */
static char * aboveA_xpm[] = {
"21 38 203 2",
"  	c None",
". 	c #E0DFDE",
"+ 	c #DDDCDB",
"@ 	c #DCDCDB",
"# 	c #DCDBDA",
"$ 	c #D1D0CF",
"% 	c #CBCAC9",
"& 	c #D5D5D5",
"* 	c #DCDCDA",
"= 	c #D6D5D5",
"- 	c #C5C5C3",
"; 	c #E2E1E0",
"> 	c #ECEBEA",
", 	c #ECEAE9",
"' 	c #EBEBE9",
") 	c #EDEBEA",
"! 	c #E1E1E0",
"~ 	c #C4C4C3",
"{ 	c #C1C0BF",
"] 	c #E5E5E3",
"^ 	c #E8E8E7",
"/ 	c #E7E7E5",
"( 	c #E9E9E6",
"_ 	c #E6E6E3",
": 	c #C0BFBE",
"< 	c #DFDEDD",
"[ 	c #C8C7C6",
"} 	c #D7D7D4",
"| 	c #E5E5E4",
"1 	c #E3E3E2",
"2 	c #B8B8B7",
"3 	c #1A1918",
"4 	c #9C9C9C",
"5 	c #E5E5E5",
"6 	c #D4D4D4",
"7 	c #B9B7B6",
"8 	c #E4E3E2",
"9 	c #B7B6B6",
"0 	c #252422",
"a 	c #8F8F8D",
"b 	c #282726",
"c 	c #9F9E9D",
"d 	c #E4E4E3",
"e 	c #B8B7B6",
"f 	c #D5D5D4",
"g 	c #BBBABA",
"h 	c #E0DFDF",
"i 	c #BEBDBD",
"j 	c #272625",
"k 	c #AEADAC",
"l 	c #2A2927",
"m 	c #A5A4A3",
"n 	c #E1E0DF",
"o 	c #B9B8B8",
"p 	c #CFCECD",
"q 	c #DDDBDA",
"r 	c #D9D7D6",
"s 	c #C8C6C5",
"t 	c #BABABA",
"u 	c #D5D4D4",
"v 	c #353533",
"w 	c #C0BFBD",
"x 	c #CDCDCB",
"y 	c #BCBAB8",
"z 	c #DDDBDB",
"A 	c #B7B6B4",
"B 	c #ACACAB",
"C 	c #DAD9D8",
"D 	c #D5D4D2",
"E 	c #D9D9D7",
"F 	c #D3D3D2",
"G 	c #3B3A38",
"H 	c #51504F",
"I 	c #2C2B2A",
"J 	c #C3C1C0",
"K 	c #DBDAD8",
"L 	c #AAA9A8",
"M 	c #D8D7D6",
"N 	c #A9A8A8",
"O 	c #D8D6D6",
"P 	c #D1D0CE",
"Q 	c #C7C6C4",
"R 	c #3C3A39",
"S 	c #767574",
"T 	c #ECECEA",
"U 	c #979695",
"V 	c #2C2B2B",
"W 	c #B9B8B6",
"X 	c #D8D7D5",
"Y 	c #A7A6A6",
"Z 	c #B4B3B2",
"` 	c #D2CFCE",
" .	c #ABAAA7",
"..	c #838280",
"+.	c #E6E5E4",
"@.	c #CFCDCB",
"#.	c #9C9C9A",
"$.	c #979693",
"%.	c #D3D1D0",
"&.	c #AFAEAD",
"*.	c #D0CFCE",
"=.	c #A2A1A0",
"-.	c #C2C2C0",
";.	c #D6D5D4",
">.	c #CBC9C7",
",.	c #CAC8C6",
"'.	c #DBDBD9",
").	c #A1A0A0",
"!.	c #C5C4C3",
"~.	c #9A9998",
"{.	c #A7A7A5",
"].	c #CCCCCB",
"^.	c #CDCCCB",
"/.	c #CCCBC9",
"(.	c #A6A5A4",
"_.	c #CAC9C8",
":.	c #B1B1B0",
"<.	c #8B8B8A",
"[.	c #838181",
"}.	c #888887",
"|.	c #8A8A89",
"1.	c #DBDAD9",
"2.	c #C0C0BF",
"3.	c #BDBCBB",
"4.	c #DEDDDC",
"5.	c #C1C0BE",
"6.	c #CAC9C7",
"7.	c #C5C3C3",
"8.	c #C1C1BF",
"9.	c #E1E0DE",
"0.	c #DBDBD8",
"a.	c #D7D6D5",
"b.	c #DBDAD7",
"c.	c #E2E0DF",
"d.	c #BFBDBC",
"e.	c #DADAD9",
"f.	c #CCCAC9",
"g.	c #D7D6D4",
"h.	c #DCDBD9",
"i.	c #BEBDBC",
"j.	c #CFCECC",
"k.	c #D0CECC",
"l.	c #A9A7A6",
"m.	c #1A1917",
"n.	c #908F8E",
"o.	c #B8B6B5",
"p.	c #E0E0DD",
"q.	c #D3D2D0",
"r.	c #ADACAA",
"s.	c #242321",
"t.	c #8E8E8C",
"u.	c #969594",
"v.	c #E0E0DE",
"w.	c #B7B6B5",
"x.	c #BBBAB9",
"y.	c #DDDDDB",
"z.	c #BAB9B7",
"A.	c #262524",
"B.	c #AEADAB",
"C.	c #E7E6E5",
"D.	c #C4C4C2",
"E.	c #292827",
"F.	c #A1A09F",
"G.	c #DADAD8",
"H.	c #C8C8C7",
"I.	c #D6D6D5",
"J.	c #C1C1BE",
"K.	c #CDCDCC",
"L.	c #BCBCBA",
"M.	c #DDDDDC",
"N.	c #B7B7B4",
"O.	c #ADADAC",
"P.	c #E0DEDD",
"Q.	c #D9D8D8",
"R.	c #3C3B3A",
"S.	c #525150",
"T.	c #2D2C2B",
"U.	c #C8C6C6",
"V.	c #E2E1E1",
"W.	c #DFDFDE",
"X.	c #ABAAA9",
"Y.	c #DDDCDC",
"Z.	c #3F3E3D",
"`.	c #797878",
" +	c #EEEEEC",
".+	c #999898",
"++	c #2E2D2D",
"@+	c #B9B8B7",
"#+	c #BEBEBC",
"$+	c #878786",
"%+	c #ECECEC",
"&+	c #EBEBEA",
"*+	c #A0A09E",
"=+	c #B3B3B2",
"-+	c #C9C9C8",
";+	c #E9E9E8",
">+	c #EDEDEC",
",+	c #EDEDEB",
"'+	c #EAEAE8",
")+	c #AEAEAC",
"!+	c #DAD9D7",
"~+	c #D9D8D7",
"{+	c #898988",
". . . . . . . . . . . . . . . . . . . . . ",
". . . . . . . . + @ # @ + . . . . . . . . ",
". . . . . . @ $ % & * = % $ @ . . . . . . ",
". . . . . # - ; > > , ' ) ! ~ # . . . . . ",
". . . . @ { ] ^ / / / / / ( _ : @ . . . . ",
". . . < [ } | 1 1 2 3 4 1 1 5 6 [ < . . . ",
". . . @ 7 8 . . 9 0 a b c . . d e @ . . . ",
". . . f g h # i j k ^ ~ l m # n o f . . . ",
". . . p e q r s t u v w x y r z A p . . . ",
". . . $ B C D E F G H I J # D K L $ . . . ",
". . . M N O P Q R S T U V W P X Y M . . . ",
". . . @ 2 Z `  ...+.@.; #.$.%.&.2 @ . . . ",
". . . . *.=.-.;.8 >.,.,.< '.{ ).*.. . . . ",
". . . . + !.~.{.].^./.^.].(.~.!.+ . . . . ",
". . . . . @ _.:.<.[.}.[.|.:._.@ . . . . . ",
". . . . . . < 1.% 2.3.2.% 1.< . . . . . . ",
". . . . . . . . . 4.+ 4.. . . . . . . . . ",
". . . . . . . . . . . . . . . . . . . . . ",
". . . . . . . . . . . . . . . . . . . . . ",
". . . . . . . . . . . . . . . . . . . . . ",
". . . . . . . . + @ # @ + . . . . . . . . ",
". . . . . . @ $ 5.!.6.7.5.$ @ . . . . . . ",
". . . . . # 8.$ 9.0.a.b.c.$ 2.# . . . . . ",
". . . . @ d.e.;.f.f.f.f.f.g.h.i.@ . . . . ",
". . . < [ j.a.k.k.l.m.n.k.k.M ^.[ < . . . ",
". . . @ o.p.q.q.r.s.t.j u.q.q.v.w.@ . . . ",
". . . f x.y.g.z.A.B.C.D.E.F.g.+ e f . . . ",
". . . p 2 4.G.H.t I.v J.K.L.G.M.N.p . . . ",
". . . $ O.P.4.n Q.R.S.T.U.V.4.W.X.$ . . . ",
". . . M N Y.; a.Z.`. +.+++[ ; q Y M . . . ",
". . . @ 2 @+8 #+$+%+| &+*+{.1 =+2 @ . . . ",
". . . . *.=.-+;+>+;+;+;+,+'+[ ).*.. . . . ",
". . . . + !.~.)+!+d / d ~+O.~.!.+ . . . . ",
". . . . . @ _.:.<.[.{+[.|.:._.@ . . . . . ",
". . . . . . < 1.% 2.3.2.% 1.< . . . . . . ",
". . . . . . . . . 4.+ 4.. . . . . . . . . ",
". . . . . . . . . . . . . . . . . . . . . ",
". . . . . . . . . . . . . . . . . . . . . "};
