/* XPM */
static char * abovel_xpm[] = {
"21 38 188 2",
"  	c None",
". 	c #E0DFDE",
"+ 	c #DDDCDB",
"@ 	c #DCDCDB",
"# 	c #DCDBDA",
"$ 	c #D1D0CF",
"% 	c #CBCAC9",
"& 	c #D5D5D5",
"* 	c #DCDCDA",
"= 	c #D6D5D5",
"- 	c #C5C5C3",
"; 	c #E2E1E0",
"> 	c #ECEBEA",
", 	c #ECEAE9",
"' 	c #EBEBE9",
") 	c #EDEBEA",
"! 	c #E1E1E0",
"~ 	c #C4C4C3",
"{ 	c #C1C0BF",
"] 	c #E5E5E3",
"^ 	c #E8E8E7",
"/ 	c #E7E7E5",
"( 	c #E9E9E6",
"_ 	c #E6E6E3",
": 	c #C0BFBE",
"< 	c #DFDEDD",
"[ 	c #C8C7C6",
"} 	c #D7D7D4",
"| 	c #E5E5E4",
"1 	c #E3E3E2",
"2 	c #D1D1D0",
"3 	c #8F8F8D",
"4 	c #C6C6C4",
"5 	c #E5E5E5",
"6 	c #D4D4D4",
"7 	c #B9B7B6",
"8 	c #E4E3E2",
"9 	c #CFCECE",
"0 	c #949391",
"a 	c #C3C3C2",
"b 	c #959493",
"c 	c #C6C4C3",
"d 	c #E4E4E3",
"e 	c #B8B7B6",
"f 	c #D5D5D4",
"g 	c #BBBABA",
"h 	c #E0DFDF",
"i 	c #D0CFCF",
"j 	c #D0D0CF",
"k 	c #DBDADA",
"l 	c #969593",
"m 	c #C7C5C4",
"n 	c #E1E0DF",
"o 	c #B9B8B8",
"p 	c #CFCECD",
"q 	c #DDDBDA",
"r 	c #D9D7D6",
"s 	c #D4D2D1",
"t 	c #DDDCDC",
"u 	c #999997",
"v 	c #D4D3D2",
"w 	c #DFDFDD",
"x 	c #D0CECC",
"y 	c #DDDBDB",
"z 	c #B7B6B4",
"A 	c #ACACAB",
"B 	c #DAD9D8",
"C 	c #D5D4D2",
"D 	c #D9D9D7",
"E 	c #DADAD9",
"F 	c #9C9B99",
"G 	c #A7A7A4",
"H 	c #969594",
"I 	c #D3D2D0",
"J 	c #DBDAD8",
"K 	c #AAA9A8",
"L 	c #D8D7D6",
"M 	c #A9A8A8",
"N 	c #D8D6D6",
"O 	c #D1D0CE",
"P 	c #CECDCB",
"Q 	c #9C9A99",
"R 	c #B6B5B4",
"S 	c #ECECEA",
"T 	c #C9C8C5",
"U 	c #D8D7D5",
"V 	c #A7A6A6",
"W 	c #B8B8B7",
"X 	c #B4B3B2",
"Y 	c #D2CFCE",
"Z 	c #C2C0BE",
"` 	c #BBBAB8",
" .	c #E6E5E4",
"..	c #CFCDCB",
"+.	c #C7C6C5",
"@.	c #BBBAB7",
"#.	c #D3D1D0",
"$.	c #AFAEAD",
"%.	c #D0CFCE",
"&.	c #A2A1A0",
"*.	c #C2C2C0",
"=.	c #D6D5D4",
"-.	c #CBC9C7",
";.	c #CAC8C6",
">.	c #DBDBD9",
",.	c #A1A0A0",
"'.	c #C5C4C3",
").	c #9A9998",
"!.	c #A7A7A5",
"~.	c #CCCCCB",
"{.	c #CDCCCB",
"].	c #CCCBC9",
"^.	c #A6A5A4",
"/.	c #CAC9C8",
"(.	c #B1B1B0",
"_.	c #8B8B8A",
":.	c #838181",
"<.	c #888887",
"[.	c #8A8A89",
"}.	c #DBDAD9",
"|.	c #C0C0BF",
"1.	c #BDBCBB",
"2.	c #DEDDDC",
"3.	c #C1C0BE",
"4.	c #CAC9C7",
"5.	c #C5C3C3",
"6.	c #C1C1BF",
"7.	c #E1E0DE",
"8.	c #DBDBD8",
"9.	c #D7D6D5",
"0.	c #DBDAD7",
"a.	c #E2E0DF",
"b.	c #BFBDBC",
"c.	c #CCCAC9",
"d.	c #D7D6D4",
"e.	c #DCDBD9",
"f.	c #BEBDBC",
"g.	c #CFCECC",
"h.	c #C2C0BF",
"i.	c #8E8E8D",
"j.	c #BAB8B6",
"k.	c #B8B6B5",
"l.	c #E0E0DD",
"m.	c #C5C4C2",
"n.	c #939290",
"o.	c #C2C2C1",
"p.	c #949392",
"q.	c #BDBBBA",
"r.	c #E0E0DE",
"s.	c #B7B6B5",
"t.	c #BBBAB9",
"u.	c #DDDDDB",
"v.	c #D0D0CE",
"w.	c #E7E6E5",
"x.	c #C3C1C0",
"y.	c #DADAD8",
"z.	c #D4D4D3",
"A.	c #DEDEDD",
"B.	c #DFDFDE",
"C.	c #DDDDDC",
"D.	c #B7B7B4",
"E.	c #ADADAC",
"F.	c #E0DEDD",
"G.	c #9D9C9B",
"H.	c #A7A7A6",
"I.	c #979695",
"J.	c #E2E1E1",
"K.	c #ABAAA9",
"L.	c #9F9E9D",
"M.	c #EEEEEC",
"N.	c #C7C7C6",
"O.	c #989796",
"P.	c #B9B8B7",
"Q.	c #D5D4D3",
"R.	c #BFBFBE",
"S.	c #ECECEC",
"T.	c #EBEBEA",
"U.	c #CBCBC9",
"V.	c #B3B3B2",
"W.	c #C9C9C8",
"X.	c #E9E9E8",
"Y.	c #EDEDEC",
"Z.	c #EDEDEB",
"`.	c #EAEAE8",
" +	c #AEAEAC",
".+	c #DAD9D7",
"++	c #D9D8D7",
"@+	c #898988",
". . . . . . . . . . . . . . . . . . . . . ",
". . . . . . . . + @ # @ + . . . . . . . . ",
". . . . . . @ $ % & * = % $ @ . . . . . . ",
". . . . . # - ; > > , ' ) ! ~ # . . . . . ",
". . . . @ { ] ^ / / / / / ( _ : @ . . . . ",
". . . < [ } | 1 1 2 3 4 1 1 5 6 [ < . . . ",
". . . @ 7 8 . . 9 0 a b c . . d e @ . . . ",
". . . f g h # i b j ^ k l m # n o f . . . ",
". . . p e q r s = t u v w x r y z p . . . ",
". . . $ A B C D E F G H I # C J K $ . . . ",
". . . L M N O P Q R S - H T O U V L . . . ",
". . . @ W X Y Z `  ...; +.@.#.$.W @ . . . ",
". . . . %.&.*.=.8 -.;.;.< >.{ ,.%.. . . . ",
". . . . + '.).!.~.{.].{.~.^.).'.+ . . . . ",
". . . . . @ /.(._.:.<.:.[.(./.@ . . . . . ",
". . . . . . < }.% |.1.|.% }.< . . . . . . ",
". . . . . . . . . 2.+ 2.. . . . . . . . . ",
". . . . . . . . . . . . . . . . . . . . . ",
". . . . . . . . . . . . . . . . . . . . . ",
". . . . . . . . . . . . . . . . . . . . . ",
". . . . . . . . + @ # @ + . . . . . . . . ",
". . . . . . @ $ 3.'.4.5.3.$ @ . . . . . . ",
". . . . . # 6.$ 7.8.9.0.a.$ |.# . . . . . ",
". . . . @ b.E =.c.c.c.c.c.d.e.f.@ . . . . ",
". . . < [ g.9.x x h.i.j.x x L {.[ < . . . ",
". . . @ k.l.I I m.n.o.p.q.I I r.s.@ . . . ",
". . . f t.u.d.].p.v.w.}.b x.d.+ e f . . . ",
". . . p W 2.y.z.= A.u z.B.v.y.C.D.p . . . ",
". . . $ E.F.2.n h G.H.I.L J.2.B.K.$ . . . ",
". . . L M t ; 2.L.o M.N.O.U ; q V L . . . ",
". . . @ W P.8 Q.R.S.| T.% U.1 V.W @ . . . ",
". . . . %.&.W.X.Y.X.X.X.Z.`.[ ,.%.. . . . ",
". . . . + '.). +.+d / d ++E.).'.+ . . . . ",
". . . . . @ /.(._.:.@+:.[.(./.@ . . . . . ",
". . . . . . < }.% |.1.|.% }.< . . . . . . ",
". . . . . . . . . 2.+ 2.. . . . . . . . . ",
". . . . . . . . . . . . . . . . . . . . . ",
". . . . . . . . . . . . . . . . . . . . . "};
