/* XPM */
static char * dframeATL_xpm[] = {
"9 9 19 1",
" 	c None",
".	c #7D9BBE",
"+	c #6A8DB8",
"@	c #6A8EB8",
"#	c #8EA7C4",
"$	c #8AA3C2",
"%	c #BEC8D3",
"&	c #D3D6DA",
"*	c #DCDDDE",
"=	c #DADCDE",
"-	c #D7DADE",
";	c #90A8C4",
">	c #A5B7CB",
",	c #DFDEDE",
"'	c #E0DFDE",
")	c #89A3C1",
"!	c #7E9CBF",
"~	c #BCC7D3",
"{	c #D4D6DA",
"    .+@@@",
"  #$%&*=-",
" ;>,'''''",
" ),''''''",
"!~'''''''",
"@{'''''''",
"@''''''''",
"@''''''''",
"@''''''''"};
