/* XPM */
static char * dframeITL_xpm[] = {
"9 9 18 1",
" 	c None",
".	c #CECDCD",
"+	c #CACACA",
"@	c #D3D3D2",
"#	c #E2E2E1",
"$	c #ECECEB",
"%	c #ECECEC",
"&	c #ECECEA",
"*	c #EAE9E8",
"=	c #E5E4E2",
"-	c #E0DFDE",
";	c #E2E2E2",
">	c #E4E3E2",
",	c #C4C3C3",
"'	c #EEEEED",
")	c #B8B8B8",
"!	c #DFDFDE",
"~	c #ECEBEB",
"    .++++",
"  @#$%&&&",
" @*=-----",
" ;>------",
",'-------",
")$----!!!",
")~---!!!!",
")$---!!!!",
")$---!!!!"};
