/* XPM */
static char * dframeABR_xpm[] = {
"9 8 18 1",
" 	c None",
".	c #E0DFDE",
"+	c #D4D3D2",
"@	c #D9DCDE",
"#	c #6A8EB8",
"$	c #9A9796",
"%	c #D9D9D9",
"&	c #DBDBD9",
"*	c #DDDFE1",
"=	c #BCC6D2",
"-	c #7E9CBE",
";	c #DBDAD8",
">	c #87A1C1",
",	c #C0CBD7",
"'	c #92A9C5",
")	c #DFE0E1",
"!	c #86A1C1",
"~	c #7C9ABD",
"......+@#",
".....+$%#",
"......&*#",
".....+.=-",
"..+.+$;> ",
".+$&.;,' ",
"..&)=!'  ",
"####~    "};
