/* XPM */
static char * frameATR_xpm[] = {
"9 9 19 1",
" 	c None",
".	c #6A8EB8",
"+	c #7E9CBF",
"@	c #E0DFDE",
"#	c #D4D6DA",
"$	c #BCC7D3",
"%	c #89A3C1",
"&	c #90A8C4",
"*	c #DFDEDE",
"=	c #A5B7CB",
"-	c #8EA7C4",
";	c #8AA3C2",
">	c #BEC8D3",
",	c #7D9BBE",
"'	c #D3D6DA",
")	c #6A8DB8",
"!	c #DCDDDE",
"~	c #DADCDE",
"{	c #D7DADE",
"....+    ",
"@@@#$%&  ",
"@@@@@*=- ",
"@@@@@@*; ",
"@@@@@@@>,",
"@@@@@@@')",
"@@@@@@@!.",
"@@@@@@@~.",
"@@@@@@@{."};
