/* XPM */
static char * maximizeA_xpm[] = {
"21 38 169 2",
"  	c None",
". 	c #E0DFDE",
"+ 	c #DDDCDB",
"@ 	c #DCDCDB",
"# 	c #DCDBDA",
"$ 	c #D1D0CF",
"% 	c #CBCAC9",
"& 	c #D5D5D5",
"* 	c #DCDCDA",
"= 	c #D6D5D5",
"- 	c #C5C5C3",
"; 	c #E2E1E0",
"> 	c #ECEBEA",
", 	c #ECEAE9",
"' 	c #EBEBE9",
") 	c #EDEBEA",
"! 	c #E1E1E0",
"~ 	c #C4C4C3",
"{ 	c #C1C0BF",
"] 	c #E5E5E3",
"^ 	c #E8E8E7",
"/ 	c #E7E7E5",
"( 	c #E9E9E6",
"_ 	c #E6E6E3",
": 	c #C0BFBE",
"< 	c #DFDEDD",
"[ 	c #C8C7C6",
"} 	c #D7D7D4",
"| 	c #E5E5E4",
"1 	c #E3E3E2",
"2 	c #E5E5E5",
"3 	c #D4D4D4",
"4 	c #B9B7B6",
"5 	c #E4E3E2",
"6 	c #D0CFCD",
"7 	c #2F2E2D",
"8 	c #BCBCBC",
"9 	c #E4E4E3",
"0 	c #B8B7B6",
"a 	c #D5D5D4",
"b 	c #BBBABA",
"c 	c #E0DFDF",
"d 	c #CCCBC9",
"e 	c #373736",
"f 	c #5A5958",
"g 	c #2A2827",
"h 	c #BCBCBB",
"i 	c #E1E0DF",
"j 	c #B9B8B8",
"k 	c #CFCECD",
"l 	c #DDDBDA",
"m 	c #D9D7D6",
"n 	c #CAC8C7",
"o 	c #363635",
"p 	c #828180",
"q 	c #ECECEB",
"r 	c #A1A0A0",
"s 	c #2A2928",
"t 	c #BBB9B8",
"u 	c #DDDBDB",
"v 	c #B7B6B4",
"w 	c #ACACAB",
"x 	c #DAD9D8",
"y 	c #D5D4D2",
"z 	c #B3B2B1",
"A 	c #8E8E8C",
"B 	c #D6D5D3",
"C 	c #E4E3E1",
"D 	c #A9A9A7",
"E 	c #A09F9E",
"F 	c #DBDAD8",
"G 	c #AAA9A8",
"H 	c #D8D7D6",
"I 	c #A9A8A8",
"J 	c #D8D6D6",
"K 	c #D1D0CE",
"L 	c #D2D1CF",
"M 	c #E0E0DF",
"N 	c #D8D7D5",
"O 	c #A7A6A6",
"P 	c #B8B8B7",
"Q 	c #B4B3B2",
"R 	c #D2CFCE",
"S 	c #CECCCA",
"T 	c #D3D1D0",
"U 	c #AFAEAD",
"V 	c #D0CFCE",
"W 	c #A2A1A0",
"X 	c #C2C2C0",
"Y 	c #CECDCB",
"Z 	c #CAC8C6",
"` 	c #CECDCC",
" .	c #C5C4C3",
"..	c #9A9998",
"+.	c #A7A7A5",
"@.	c #CCCCCB",
"#.	c #CDCCCB",
"$.	c #A6A5A4",
"%.	c #CAC9C8",
"&.	c #B1B1B0",
"*.	c #8B8B8A",
"=.	c #838181",
"-.	c #888887",
";.	c #8A8A89",
">.	c #DBDAD9",
",.	c #C0C0BF",
"'.	c #BDBCBB",
").	c #DEDDDC",
"!.	c #C1C0BE",
"~.	c #CAC9C7",
"{.	c #C5C3C3",
"].	c #C1C1BF",
"^.	c #E1E0DE",
"/.	c #DBDBD8",
"(.	c #D7D6D5",
"_.	c #DBDAD7",
":.	c #E2E0DF",
"<.	c #BFBDBC",
"[.	c #DADAD9",
"}.	c #D6D5D4",
"|.	c #CCCAC9",
"1.	c #D7D6D4",
"2.	c #DCDBD9",
"3.	c #BEBDBC",
"4.	c #CFCECC",
"5.	c #D0CECC",
"6.	c #B8B6B5",
"7.	c #E0E0DD",
"8.	c #D3D2D0",
"9.	c #C4C3C0",
"0.	c #2D2C2B",
"a.	c #B2B2B0",
"b.	c #E0E0DE",
"c.	c #B7B6B5",
"d.	c #BBBAB9",
"e.	c #DDDDDB",
"f.	c #C7C6C4",
"g.	c #5A5857",
"h.	c #292827",
"i.	c #DADAD8",
"j.	c #CBCBC9",
"k.	c #373735",
"l.	c #838281",
"m.	c #BCBCBA",
"n.	c #DDDDDC",
"o.	c #B7B7B4",
"p.	c #ADADAC",
"q.	c #E0DEDD",
"r.	c #90908E",
"s.	c #EAEAE8",
"t.	c #E8E7E6",
"u.	c #AAAAA8",
"v.	c #A7A5A4",
"w.	c #DFDFDE",
"x.	c #ABAAA9",
"y.	c #DDDCDC",
"z.	c #E5E4E3",
"A.	c #E3E2E1",
"B.	c #E7E6E5",
"C.	c #B9B8B7",
"D.	c #B3B3B2",
"E.	c #C9C9C8",
"F.	c #E7E7E6",
"G.	c #E9E9E8",
"H.	c #E6E6E5",
"I.	c #AEAEAC",
"J.	c #DAD9D7",
"K.	c #D9D8D7",
"L.	c #898988",
". . . . . . . . . . . . . . . . . . . . . ",
". . . . . . . . + @ # @ + . . . . . . . . ",
". . . . . . @ $ % & * = % $ @ . . . . . . ",
". . . . . # - ; > > , ' ) ! ~ # . . . . . ",
". . . . @ { ] ^ / / / / / ( _ : @ . . . . ",
". . . < [ } | 1 1 1 1 1 1 1 2 3 [ < . . . ",
". . . @ 4 5 . . . 6 7 8 . . . 9 0 @ . . . ",
". . . a b c # # d e f g h # # i j a . . . ",
". . . k 0 l m n o p q r s t m u v k . . . ",
". . . $ w x y z A / B C D E y F G $ . . . ",
". . . H I J K H ] L K K M * K N O H . . . ",
". . . @ P Q R S S S S S S S T U P @ . . . ",
". . . . V W X Y Z Z Z Z Z ` { r V . . . . ",
". . . . +  ...+.@.#.d #.@.$... .+ . . . . ",
". . . . . @ %.&.*.=.-.=.;.&.%.@ . . . . . ",
". . . . . . < >.% ,.'.,.% >.< . . . . . . ",
". . . . . . . . . ).+ ).. . . . . . . . . ",
". . . . . . . . . . . . . . . . . . . . . ",
". . . . . . . . . . . . . . . . . . . . . ",
". . . . . . . . . . . . . . . . . . . . . ",
". . . . . . . . + @ # @ + . . . . . . . . ",
". . . . . . @ $ !. .~.{.!.$ @ . . . . . . ",
". . . . . # ].$ ^./.(._.:.$ ,.# . . . . . ",
". . . . @ <.[.}.|.|.|.|.|.1.2.3.@ . . . . ",
". . . < [ 4.(.5.5.5.5.5.5.5.H #.[ < . . . ",
". . . @ 6.7.8.8.8.9.0.a.8.8.8.b.c.@ . . . ",
". . . a d.e.1.1.f.o g.h.0 1.1.+ 0 a . . . ",
". . . k P ).i.j.k.l.q r s m.i.n.o.k . . . ",
". . . $ p.q.).d.r.s.< t.u.v.).w.x.$ . . . ",
". . . H I y.; z.' A.; ; ^ B.; l O H . . . ",
". . . @ P C.5 | | | | | | | 1 D.P @ . . . ",
". . . . V W E.F.G.G.G.G.G.H.[ r V . . . . ",
". . . . +  ...I.J.9 / 9 K.p... .+ . . . . ",
". . . . . @ %.&.*.=.L.=.;.&.%.@ . . . . . ",
". . . . . . < >.% ,.'.,.% >.< . . . . . . ",
". . . . . . . . . ).+ ).. . . . . . . . . ",
". . . . . . . . . . . . . . . . . . . . . ",
". . . . . . . . . . . . . . . . . . . . . "};
