/* XPM */
static char * maximizeO_xpm[] = {
"21 38 208 2",
"  	c None",
". 	c #E0DFDE",
"+ 	c #DDDDDE",
"@ 	c #DCDFDF",
"# 	c #DCDEDF",
"$ 	c #DCDDDF",
"% 	c #D4DAE0",
"& 	c #D0DCE6",
"* 	c #D9E2E9",
"= 	c #DFE6EA",
"- 	c #DAE3EA",
"; 	c #CADAE3",
"> 	c #E4E8EA",
", 	c #ECEBEA",
"' 	c #ECEAE9",
") 	c #EBEBE9",
"! 	c #EDEBEA",
"~ 	c #E3E8EB",
"{ 	c #C9D9E4",
"] 	c #C8D8E4",
"^ 	c #E6E8E7",
"/ 	c #E8E8E7",
"( 	c #E7E7E5",
"_ 	c #E9E9E6",
": 	c #E6E9E7",
"< 	c #C7D7E3",
"[ 	c #DFDEDE",
"} 	c #CCD7E1",
"| 	c #DAE1E4",
"1 	c #E5E5E4",
"2 	c #E3E3E2",
"3 	c #E5E5E5",
"4 	c #D7E0E7",
"5 	c #C1D3E3",
"6 	c #E4E3E2",
"7 	c #D2DBE1",
"8 	c #4BADFB",
"9 	c #C2D6E4",
"0 	c #E4E5E4",
"a 	c #C0D4E4",
"b 	c #D7DCE0",
"c 	c #E0DFDF",
"d 	c #DCDBDA",
"e 	c #CED7DD",
"f 	c #51AFF9",
"g 	c #6EBBF7",
"h 	c #46AAFB",
"i 	c #C1D3E0",
"j 	c #E1E0DF",
"k 	c #C1D6E5",
"l 	c #D2D9E0",
"m 	c #DDDBDA",
"n 	c #D9D7D6",
"o 	c #CDD3D9",
"p 	c #50AEF8",
"q 	c #90C7F1",
"r 	c #ECECEB",
"s 	c #ABD2F1",
"t 	c #45ABFB",
"u 	c #C0CFDC",
"v 	c #DDDBDB",
"w 	c #C1D4E4",
"x 	c #D4DBE0",
"y 	c #B7D1E4",
"z 	c #DAD9D8",
"A 	c #D5D4D2",
"B 	c #B9CCDB",
"C 	c #9BCBEF",
"D 	c #D6D5D3",
"E 	c #E4E3E1",
"F 	c #B2D5EF",
"G 	c #A8C8E0",
"H 	c #DBDAD8",
"I 	c #B5CFE5",
"J 	c #D9DCDF",
"K 	c #B5D0E7",
"L 	c #D9D9DA",
"M 	c #D1D0CE",
"N 	c #D8D7D6",
"O 	c #E5E5E3",
"P 	c #D2D1CF",
"Q 	c #E0E0DF",
"R 	c #DCDCDA",
"S 	c #D9DAD9",
"T 	c #B4CFE7",
"U 	c #C0D5E4",
"V 	c #BCD0E0",
"W 	c #D2CFCE",
"X 	c #CECCCA",
"Y 	c #D3D1D0",
"Z 	c #B9CEDF",
"` 	c #D3DAE0",
" .	c #AFCDE6",
"..	c #C7D2D9",
"+.	c #CECDCB",
"@.	c #CAC8C6",
"#.	c #CECDCC",
"$.	c #C6D1DA",
"%.	c #AECDE6",
"&.	c #CAD8E2",
"*.	c #AACBE7",
"=.	c #B2CBDD",
"-.	c #CED1D3",
";.	c #CDCCCB",
">.	c #CCCBC9",
",.	c #B2CBDE",
"'.	c #CED8E1",
").	c #BBD2E5",
"!.	c #9EC9EA",
"~.	c #97C5EA",
"{.	c #9BC5E6",
"].	c #9DC8EA",
"^.	c #DFDFDE",
"/.	c #DBDDDF",
"(.	c #CFD8E1",
"_.	c #C6D7E3",
":.	c #C4D6E3",
"<.	c #DEDEDE",
"[.	c #DDDCDB",
"}.	c #DCDCDB",
"|.	c #D1D0CF",
"1.	c #C1C0BE",
"2.	c #C5C4C3",
"3.	c #CAC9C7",
"4.	c #C5C3C3",
"5.	c #C1C1BF",
"6.	c #E1E0DE",
"7.	c #DBDBD8",
"8.	c #D7D6D5",
"9.	c #DBDAD7",
"0.	c #E2E0DF",
"a.	c #C0C0BF",
"b.	c #BFBDBC",
"c.	c #DADAD9",
"d.	c #D6D5D4",
"e.	c #CCCAC9",
"f.	c #D7D6D4",
"g.	c #DCDBD9",
"h.	c #BEBDBC",
"i.	c #DFDEDD",
"j.	c #C8C7C6",
"k.	c #CFCECC",
"l.	c #D0CECC",
"m.	c #B8B6B5",
"n.	c #E0E0DD",
"o.	c #D3D2D0",
"p.	c #C4C3C0",
"q.	c #2D2C2B",
"r.	c #B2B2B0",
"s.	c #E0E0DE",
"t.	c #B7B6B5",
"u.	c #D5D5D4",
"v.	c #BBBAB9",
"w.	c #DDDDDB",
"x.	c #C7C6C4",
"y.	c #363635",
"z.	c #5A5857",
"A.	c #292827",
"B.	c #B8B7B6",
"C.	c #CFCECD",
"D.	c #B8B8B7",
"E.	c #DEDDDC",
"F.	c #DADAD8",
"G.	c #CBCBC9",
"H.	c #373735",
"I.	c #838281",
"J.	c #A1A0A0",
"K.	c #2A2928",
"L.	c #BCBCBA",
"M.	c #DDDDDC",
"N.	c #B7B7B4",
"O.	c #ADADAC",
"P.	c #E0DEDD",
"Q.	c #90908E",
"R.	c #EAEAE8",
"S.	c #E8E7E6",
"T.	c #AAAAA8",
"U.	c #A7A5A4",
"V.	c #ABAAA9",
"W.	c #A9A8A8",
"X.	c #DDDCDC",
"Y.	c #E2E1E0",
"Z.	c #E5E4E3",
"`.	c #E3E2E1",
" +	c #E7E6E5",
".+	c #A7A6A6",
"++	c #B9B8B7",
"@+	c #B3B3B2",
"#+	c #D0CFCE",
"$+	c #A2A1A0",
"%+	c #C9C9C8",
"&+	c #E7E7E6",
"*+	c #E9E9E8",
"=+	c #E6E6E5",
"-+	c #9A9998",
";+	c #AEAEAC",
">+	c #DAD9D7",
",+	c #E4E4E3",
"'+	c #D9D8D7",
")+	c #CAC9C8",
"!+	c #B1B1B0",
"~+	c #8B8B8A",
"{+	c #838181",
"]+	c #898988",
"^+	c #8A8A89",
"/+	c #DBDAD9",
"(+	c #CBCAC9",
"_+	c #BDBCBB",
". . . . . . . . . . . . . . . . . . . . . ",
". . . . . . . . + @ # @ + . . . . . . . . ",
". . . . . . $ % & * = - & % $ . . . . . . ",
". . . . . # ; > , , ' ) ! ~ { # . . . . . ",
". . . . @ ] ^ / ( ( ( ( ( _ : < @ . . . . ",
". . . [ } | 1 2 2 2 2 2 2 2 3 4 } [ . . . ",
". . . @ 5 6 . . . 7 8 9 . . . 0 a @ . . . ",
". . . b 9 c d d e f g h i d d j k b . . . ",
". . . l 5 m n o p q r s t u n v w l . . . ",
". . . x y z A B C ( D E F G A H I x . . . ",
". . . J K L M N O P M M Q R M S T J . . . ",
". . . # U V W X X X X X X X Y Z U # . . . ",
". . . . `  ...+.@.@.@.@.@.#.$.%.` . . . . ",
". . . . + &.*.=.-.;.>.;.-.,.*.&.+ . . . . ",
". . . . . $ '.).!.~.{.~.].).'.$ . . . . . ",
". . . . . . ^./.(._.:._.(./.^.. . . . . . ",
". . . . . . . . . <.+ <.. . . . . . . . . ",
". . . . . . . . . . . . . . . . . . . . . ",
". . . . . . . . . . . . . . . . . . . . . ",
". . . . . . . . . . . . . . . . . . . . . ",
". . . . . . . . [.}.d }.[.. . . . . . . . ",
". . . . . . }.|.1.2.3.4.1.|.}.. . . . . . ",
". . . . . d 5.|.6.7.8.9.0.|.a.d . . . . . ",
". . . . }.b.c.d.e.e.e.e.e.f.g.h.}.. . . . ",
". . . i.j.k.8.l.l.l.l.l.l.l.N ;.j.i.. . . ",
". . . }.m.n.o.o.o.p.q.r.o.o.o.s.t.}.. . . ",
". . . u.v.w.f.f.x.y.z.A.B.f.f.[.B.u.. . . ",
". . . C.D.E.F.G.H.I.r J.K.L.F.M.N.C.. . . ",
". . . |.O.P.E.v.Q.R.i.S.T.U.E.^.V.|.. . . ",
". . . N W.X.Y.Z.) `.Y.Y./  +Y.m .+N . . . ",
". . . }.D.++6 1 1 1 1 1 1 1 2 @+D.}.. . . ",
". . . . #+$+%+&+*+*+*+*+*+=+j.J.#+. . . . ",
". . . . [.2.-+;+>+,+( ,+'+O.-+2.[.. . . . ",
". . . . . }.)+!+~+{+]+{+^+!+)+}.. . . . . ",
". . . . . . i./+(+a._+a.(+/+i.. . . . . . ",
". . . . . . . . . E.[.E.. . . . . . . . . ",
". . . . . . . . . . . . . . . . . . . . . ",
". . . . . . . . . . . . . . . . . . . . . "};
