/* XPM */
static char * maximizeI_xpm[] = {
"21 38 160 2",
"  	c None",
". 	c #E0DFDE",
"+ 	c #DDDCDB",
"@ 	c #DCDCDB",
"# 	c #DCDBDA",
"$ 	c #D1D0CF",
"% 	c #CBCAC9",
"& 	c #D5D5D5",
"* 	c #DCDCDA",
"= 	c #D6D5D5",
"- 	c #C5C5C3",
"; 	c #E2E1E0",
"> 	c #ECEBEA",
", 	c #ECEAE9",
"' 	c #EBEBE9",
") 	c #EDEBEA",
"! 	c #E1E1E0",
"~ 	c #C4C4C3",
"{ 	c #C1C0BF",
"] 	c #E5E5E3",
"^ 	c #E8E8E7",
"/ 	c #E7E7E5",
"( 	c #E9E9E6",
"_ 	c #E6E6E3",
": 	c #C0BFBE",
"< 	c #DFDEDD",
"[ 	c #C8C7C6",
"} 	c #D7D7D4",
"| 	c #E5E5E4",
"1 	c #E3E3E2",
"2 	c #E5E5E5",
"3 	c #D4D4D4",
"4 	c #B9B7B6",
"5 	c #E4E3E2",
"6 	c #DAD9D7",
"7 	c #999796",
"8 	c #D1D1D0",
"9 	c #E4E4E3",
"0 	c #B8B7B6",
"a 	c #D5D5D4",
"b 	c #BBBABA",
"c 	c #E0DFDF",
"d 	c #D6D5D3",
"e 	c #9B9A99",
"f 	c #ABAAA9",
"g 	c #969493",
"h 	c #CFCFCE",
"i 	c #E1E0DF",
"j 	c #B9B8B8",
"k 	c #CFCECD",
"l 	c #DDDBDA",
"m 	c #D9D7D6",
"n 	c #D3D1D0",
"o 	c #9A9998",
"p 	c #BBBBB9",
"q 	c #ECECEB",
"r 	c #CACAC9",
"s 	c #959594",
"t 	c #CECBCA",
"u 	c #DDDBDB",
"v 	c #B7B6B4",
"w 	c #ACACAB",
"x 	c #DAD9D8",
"y 	c #D5D4D2",
"z 	c #C9C8C6",
"A 	c #E4E3E1",
"B 	c #CECDCC",
"C 	c #C1C1C0",
"D 	c #DBDAD8",
"E 	c #AAA9A8",
"F 	c #D8D7D6",
"G 	c #A9A8A8",
"H 	c #D8D6D6",
"I 	c #D1D0CE",
"J 	c #D2D1CF",
"K 	c #E0E0DF",
"L 	c #D8D7D5",
"M 	c #A7A6A6",
"N 	c #B8B8B7",
"O 	c #B4B3B2",
"P 	c #D2CFCE",
"Q 	c #CECCCA",
"R 	c #AFAEAD",
"S 	c #D0CFCE",
"T 	c #A2A1A0",
"U 	c #C2C2C0",
"V 	c #CECDCB",
"W 	c #CAC8C6",
"X 	c #A1A0A0",
"Y 	c #C5C4C3",
"Z 	c #A7A7A5",
"` 	c #CCCCCB",
" .	c #CDCCCB",
"..	c #CCCBC9",
"+.	c #A6A5A4",
"@.	c #CAC9C8",
"#.	c #B1B1B0",
"$.	c #8B8B8A",
"%.	c #838181",
"&.	c #888887",
"*.	c #8A8A89",
"=.	c #DBDAD9",
"-.	c #C0C0BF",
";.	c #BDBCBB",
">.	c #DEDDDC",
",.	c #C1C0BE",
"'.	c #CAC9C7",
").	c #C5C3C3",
"!.	c #C1C1BF",
"~.	c #E1E0DE",
"{.	c #DBDBD8",
"].	c #D7D6D5",
"^.	c #DBDAD7",
"/.	c #E2E0DF",
"(.	c #BFBDBC",
"_.	c #DADAD9",
":.	c #D6D5D4",
"<.	c #CCCAC9",
"[.	c #D7D6D4",
"}.	c #DCDBD9",
"|.	c #BEBDBC",
"1.	c #CFCECC",
"2.	c #D0CECC",
"3.	c #B8B6B5",
"4.	c #E0E0DD",
"5.	c #D3D2D0",
"6.	c #CECDCA",
"7.	c #979594",
"8.	c #C7C6C5",
"9.	c #E0E0DE",
"0.	c #B7B6B5",
"a.	c #BBBAB9",
"b.	c #DDDDDB",
"c.	c #ABA9A8",
"d.	c #959493",
"e.	c #DADAD8",
"f.	c #D4D4D2",
"g.	c #9B9A98",
"h.	c #BCBCBA",
"i.	c #DDDDDC",
"j.	c #B7B7B4",
"k.	c #ADADAC",
"l.	c #E0DEDD",
"m.	c #C3C2C1",
"n.	c #EAEAE8",
"o.	c #E8E7E6",
"p.	c #DFDFDE",
"q.	c #DDDCDC",
"r.	c #E5E4E3",
"s.	c #E3E2E1",
"t.	c #E7E6E5",
"u.	c #B9B8B7",
"v.	c #B3B3B2",
"w.	c #C9C9C8",
"x.	c #E7E7E6",
"y.	c #E9E9E8",
"z.	c #E6E6E5",
"A.	c #AEAEAC",
"B.	c #D9D8D7",
"C.	c #898988",
". . . . . . . . . . . . . . . . . . . . . ",
". . . . . . . . + @ # @ + . . . . . . . . ",
". . . . . . @ $ % & * = % $ @ . . . . . . ",
". . . . . # - ; > > , ' ) ! ~ # . . . . . ",
". . . . @ { ] ^ / / / / / ( _ : @ . . . . ",
". . . < [ } | 1 1 1 1 1 1 1 2 3 [ < . . . ",
". . . @ 4 5 . . . 6 7 8 . . . 9 0 @ . . . ",
". . . a b c # # d e f g h # # i j a . . . ",
". . . k 0 l m n o p q r s t m u v k . . . ",
". . . $ w x y z { / d A B C y D E $ . . . ",
". . . F G H I F ] J I I K * I L M F . . . ",
". . . @ N O P Q Q Q Q Q Q Q n R N @ . . . ",
". . . . S T U V W W W W W B { X S . . . . ",
". . . . + Y o Z `  ... .` +.o Y + . . . . ",
". . . . . @ @.#.$.%.&.%.*.#.@.@ . . . . . ",
". . . . . . < =.% -.;.-.% =.< . . . . . . ",
". . . . . . . . . >.+ >.. . . . . . . . . ",
". . . . . . . . . . . . . . . . . . . . . ",
". . . . . . . . . . . . . . . . . . . . . ",
". . . . . . . . . . . . . . . . . . . . . ",
". . . . . . . . + @ # @ + . . . . . . . . ",
". . . . . . @ $ ,.Y '.).,.$ @ . . . . . . ",
". . . . . # !.$ ~.{.].^./.$ -.# . . . . . ",
". . . . @ (._.:.<.<.<.<.<.[.}.|.@ . . . . ",
". . . < [ 1.].2.2.2.2.2.2.2.F  .[ < . . . ",
". . . @ 3.4.5.5.5.6.7.8.5.5.5.9.0.@ . . . ",
". . . a a.b.[.[.I o c.d.% [.[.+ 0 a . . . ",
". . . k N >.e.f.g.h.q r s 1.e.i.j.k . . . ",
". . . $ k.l.>.I m.n.< o.k [ >.p.f $ . . . ",
". . . F G q.; r.' s.; ; ^ t.; l M F . . . ",
". . . @ N u.5 | | | | | | | 1 v.N @ . . . ",
". . . . S T w.x.y.y.y.y.y.z.[ X S . . . . ",
". . . . + Y o A.6 9 / 9 B.k.o Y + . . . . ",
". . . . . @ @.#.$.%.C.%.*.#.@.@ . . . . . ",
". . . . . . < =.% -.;.-.% =.< . . . . . . ",
". . . . . . . . . >.+ >.. . . . . . . . . ",
". . . . . . . . . . . . . . . . . . . . . ",
". . . . . . . . . . . . . . . . . . . . . "};
