/* XPM */
static char * menusel_largo_xpm[] = {
"321 2 163 2",
"  	c None",
". 	c #E0DFDE",
"+ 	c #DFDFDE",
"@ 	c #DFDEDD",
"# 	c #DEDDDC",
"$ 	c #DEDCDB",
"% 	c #DDDCDB",
"& 	c #DCDBDA",
"* 	c #DCDAD9",
"= 	c #DBDBD9",
"- 	c #DBDAD8",
"; 	c #DBD9D8",
"> 	c #DADAD8",
", 	c #DAD9D7",
"' 	c #DAD8D8",
") 	c #D9D9D7",
"! 	c #DAD8D7",
"~ 	c #D9D7D7",
"{ 	c #D8D8D6",
"] 	c #D9D7D6",
"^ 	c #D8D6D6",
"/ 	c #D7D7D5",
"( 	c #D8D6D5",
"_ 	c #D7D6D5",
": 	c #D6D6D4",
"< 	c #D7D5D4",
"[ 	c #D6D5D4",
"} 	c #D6D5D3",
"| 	c #D6D4D3",
"1 	c #D5D4D3",
"2 	c #D6D4D2",
"3 	c #D5D3D2",
"4 	c #D4D4D2",
"5 	c #D4D3D1",
"6 	c #D4D2D1",
"7 	c #D3D2D0",
"8 	c #D3D1D0",
"9 	c #D2D1CF",
"0 	c #D2D0CF",
"a 	c #D1D0CE",
"b 	c #D1CFCE",
"c 	c #D1CECD",
"d 	c #D0CFCD",
"e 	c #CFCECD",
"f 	c #D0CECC",
"g 	c #CFCECB",
"h 	c #CECDCC",
"i 	c #CFCCCB",
"j 	c #CECDCB",
"k 	c #CECCCB",
"l 	c #CECCCA",
"m 	c #CDCCCA",
"n 	c #CDCBCA",
"o 	c #CDCBC9",
"p 	c #CCCBC9",
"q 	c #CCCAC9",
"r 	c #CCCAC8",
"s 	c #CBCAC8",
"t 	c #CBC9C8",
"u 	c #CBCAC7",
"v 	c #CAC9C7",
"w 	c #CAC8C7",
"x 	c #CAC9C6",
"y 	c #CAC8C6",
"z 	c #C9C7C6",
"A 	c #C9C8C6",
"B 	c #C9C7C5",
"C 	c #C9C6C5",
"D 	c #C9C7C4",
"E 	c #C8C6C4",
"F 	c #C7C5C4",
"G 	c #C7C6C4",
"H 	c #C7C5C3",
"I 	c #C6C5C3",
"J 	c #C6C4C2",
"K 	c #C6C3C1",
"L 	c #C5C3C1",
"M 	c #C5C2C0",
"N 	c #C7C4C2",
"O 	c #C8C5C3",
"P 	c #C8C7C5",
"Q 	c #C9C6C4",
"R 	c #CAC7C6",
"S 	c #CBC8C7",
"T 	c #CBC9C7",
"U 	c #CCC9C8",
"V 	c #CECDCA",
"W 	c #CFCDCC",
"X 	c #D0CDCC",
"Y 	c #D0CECD",
"Z 	c #D0CFCC",
"` 	c #D1CFCD",
" .	c #D7D6D4",
"..	c #D8D6D4",
"+.	c #D8D7D6",
"@.	c #D8D7D5",
"#.	c #D9D8D6",
"$.	c #D9D8D7",
"%.	c #DBD9D9",
"&.	c #DBDADA",
"*.	c #DCDBD9",
"=.	c #DDDCDA",
"-.	c #DEDDDB",
";.	c #E0E0DF",
">.	c #E1E0DF",
",.	c #E1E1E0",
"'.	c #E2E1DF",
").	c #E2E1E0",
"!.	c #E3E2E0",
"~.	c #E2E2E1",
"{.	c #E3E2E1",
"].	c #E3E3E1",
"^.	c #E3E3E2",
"/.	c #E4E3E1",
"(.	c #E4E3E2",
"_.	c #E4E3E3",
":.	c #E4E4E3",
"<.	c #E5E4E2",
"[.	c #E5E4E3",
"}.	c #E5E5E4",
"|.	c #E5E5E3",
"1.	c #E6E5E4",
"2.	c #E5E4E4",
"3.	c #E6E5E5",
"4.	c #E7E6E4",
"5.	c #E6E6E5",
"6.	c #E7E6E5",
"7.	c #E7E7E5",
"8.	c #E7E6E6",
"9.	c #E7E7E6",
"0.	c #E8E7E6",
"a.	c #E8E8E6",
"b.	c #E8E7E7",
"c.	c #E8E8E7",
"d.	c #E9E8E7",
"e.	c #E9E9E7",
"f.	c #E8E8E8",
"g.	c #E9E8E8",
"h.	c #E9E9E8",
"i.	c #EAE9E8",
"j.	c #EAE9E9",
"k.	c #EAEAE9",
"l.	c #EBEAE9",
"m.	c #EAEAEA",
"n.	c #EBEBE9",
"o.	c #EBEBEA",
"p.	c #ECECEA",
"q.	c #ECECEB",
"r.	c #EDECEB",
"s.	c #EDEDEB",
"t.	c #EDEDEC",
"u.	c #ECECEC",
"v.	c #EEEEED",
"w.	c #EEEDEC",
"x.	c #EFEEED",
"y.	c #EFEFEE",
"z.	c #EDEDED",
"A.	c #ECEBEB",
"B.	c #ECEBEA",
"C.	c #EAEAE8",
"D.	c #E6E6E4",
"E.	c #E6E5E3",
"F.	c #E3E2E2",
". . . . . . + . @ @ @ # # # $ $ % & & & * = - ; > , ' ) ! ~ { ] ^ / ( _ : < [ } | 1 2 3 4 5 6 5 7 8 7 9 0 9 a b a b c d e f g h i j k l m n o p q r s t u v w x y z A B C D E F G H I H J K J L M L L L L L L L L L L L L L L L L L L L L L L L L L L L L L L L L L L L L L L L L L L L L L L L L L L L L L L L L L L L L L L L L L L L L L L L L L L L L L L L L L L L L L L L L L L L L L L L L L L L L L L L L L L L L L L L L L L L L L L L L L L L L L L L L J J J I N H G O E P Q P A R A w S v T U s r r p o o m l k V j W W X Y Z Y b ` b 0 a 0 8 9 8 7 7 6 5 5 3 3 1 | } [ <  ._ ..( +.@.#.$.! ! ' , ; %.- = &.*.& & =.$ % -.# # @ @ @ . + . . . . . . . ",
". . . . . . ;.>.>.,.'.>.,.).).!.).).~.{.!.].{.{.^./.(.^.(._.:.<._.:.[.}.|.1.2.}.3.1.4.3.5.5.6.7.7.8.9.9.0.a.9.b.c.d.d.e.f.g.e.h.i.h.j.i.k.l.l.m.k.n.o.o.o.o.o.p.q.q.q.q.r.s.t.u.t.t.t.v.v.w.v.v.x.y.y.y.y.y.y.y.y.y.y.y.y.y.y.y.y.y.y.y.y.y.y.y.y.y.y.y.y.y.y.y.y.y.y.y.y.y.y.y.y.y.y.y.y.y.y.y.y.y.y.y.y.y.y.y.y.y.y.y.y.y.y.y.y.y.y.y.y.y.y.y.y.y.y.y.y.y.y.y.y.y.y.y.y.y.y.y.y.y.y.y.y.y.y.y.y.y.y.y.y.y.y.y.y.y.y.y.y.y.y.y.y.y.y.y.y.y.y.y.y.y.y.y.y.y.y.y.v.v.v.z.v.w.t.t.r.t.t.r.q.q.A.q.q.B.o.o.B.o.n.l.m.k.l.k.C.j.h.C.i.h.g.g.c.d.d.a.b.b.a.0.0.9.8.7.7.6.5.5.3.4.D.3.1.}.1.E.}.[.[.:.<.[.:.(.(.(./.(.F.{.~.{.{.~.).).!.).).).>.>.).>.>.;.. . . . . . . "};
