/* XPM */
static char * menusel_xpm[] = {
"755 24 37 1",
" 	c None",
".	c #BCB9B8",
"+	c #BCBAB9",
"@	c #BDBBBA",
"#	c #BEBCBB",
"$	c #BFBDBC",
"%	c #BFBEBD",
"&	c #C0BEBD",
"*	c #C1BFBE",
"=	c #C2C0BF",
"-	c #C3C1C0",
";	c #C4C2C1",
">	c #C5C3C2",
",	c #C6C4C3",
"'	c #C7C5C4",
")	c #C8C6C5",
"!	c #C9C7C6",
"~	c #CAC8C7",
"{	c #CAC9C8",
"]	c #CBCAC9",
"^	c #CCCBCA",
"/	c #CDCCCB",
"(	c #CECDCC",
"_	c #CFCECD",
":	c #D0CFCE",
"<	c #D1D0CF",
"[	c #D2D1D0",
"}	c #D3D2D1",
"|	c #D3D1D1",
"1	c #D4D2D2",
"2	c #D5D3D3",
"3	c #D6D4D4",
"4	c #D7D5D5",
"5	c #D8D6D6",
"6	c #D8D7D7",
"7	c #D9D8D8",
"8	c #DAD9D9",
"...........................................................................................................................................................................................................................................................................................................................................................................................................................................................................................................................................................................................++++@@@@@@@####$$$$$$$%%%%&&&****=======----;;;;;;;>>>,,,,,,,,'''''''))))!!!~~~~~~~{{{{]]]]]]]^^^^^^^////(((((((____:::<<<<<<<<[[[}}}}}}}||||1111222222233344445555666666677777777777888",
"...........................................................................................................................................................................................................................................................................................................................................................................................................................................................................................................................................................................................++++++++@@@####$$$$$$$%%%%&&&*******====----;;;>>>>>>>,,,,,,,,,,,''''))))!!!!!!!~~~{{{{]]]]]]]^^^^^^^////(((((((____:::<<<<<<<<[[[}}}}}}}||||1111222222233344445555666666677777777777888",
"...........................................................................................................................................................................................................................................................................................................................................................................................................................................................................................................................................................................................++++++++@@@####$$$$$$$%%%%&&&*******====----;;;>>>>>>>,,,,,,,,,,,''''))))!!!!!!!~~~{{{{]]]]]]]^^^^^^^////////(((____:::::::<<<<[[[}}}}}}}||||1111222222233344445555666666677777777777888",
"...........................................................................................................................................................................................................................................................................................................................................................................................................................................................................................................................................................................................++++@@@@@@@####$$$$$$$%%%%&&&****=======----;;;>>>>>>>,,,,,,,,,,,''''))))!!!~~~~~~~{{{{]]]]]]]^^^^^^^////(((((((____:::::::<<<<[[[}}}}}}}||||1111222222233344445555666666677777777777888",
"...........................................................................................................................................................................................................................................................................................................................................................................................................................................................................................................................................................................................++++@@@@@@@####$$$$$$$%%%%&&&****=======----;;;>>>>>>>,,,,,,,,,,,''''))))!!!~~~~~~~{{{{]]]]]]]^^^^^^^////(((((((____:::<<<<<<<<[[[}}}}}}}||||1111222222233344445555666666677777777777888",
"...........................................................................................................................................................................................................................................................................................................................................................................................................................................................................................................................................................................................++++@@@@@@@####$$$$$$$%%%%&&&****=======----;;;>>>>>>>,,,,,,,,,,,''''))))!!!~~~~~~~{{{{]]]]]]]^^^^^^^////(((((((____:::<<<<<<<<[[[}}}}}}}||||1111222222233344445555666666677777777777888",
"...........................................................................................................................................................................................................................................................................................................................................................................................................................................................................................................................................................................................++++@@@@@@@####$$$$$$$%%%%&&&*******====----;;;>>>>>>>,,,,,,,,,,,''''))))!!!~~~~~~~{{{{]]]]]]]^^^^^^^////////(((____:::<<<<<<<<[[[}}}}}}}||||1111222222233344445555666666677777777777888",
"...........................................................................................................................................................................................................................................................................................................................................................................................................................................................................................................................................................................................++++@@@@@@@####$$$$$$$%%%%&&&****=======----;;;>>>>>>>,,,,,,,,,,,''''))))!!!~~~~~~~{{{{]]]]]]]^^^^^^^////////(((____:::<<<<<<<<[[[}}}}}}}||||1111222222233344445555666666677777777777888",
"...........................................................................................................................................................................................................................................................................................................................................................................................................................................................................................................................................................................................++++@@@@@@@####$$$$$$$%%%%&&&****=======----;;;>>>>>>>,,,,,,,,,,,''''))))!!!~~~~~~~{{{{]]]]]]]^^^^^^^////////(((____:::<<<<<<<<[[[}}}}}}}||||1111222222233344445555666666677777777777888",
"...........................................................................................................................................................................................................................................................................................................................................................................................................................................................................................................................................................................................++++@@@@@@@####$$$$$$$%%%%&&&****=======----;;;>>>>>>>,,,,,,,,'''''''))))!!!!!!!~~~{{{{]]]]]]]^^^^^^^////////(((____:::<<<<<<<<[[[}}}}}}}||||1111222222233344445555666666677777777777888",
"...........................................................................................................................................................................................................................................................................................................................................................................................................................................................................................................................................................................................++++@@@@@@@####$$$$$$$%%%%&&&****=======----;;;>>>>>>>,,,,,,,,'''''''))))!!!!!!!~~~{{{{]]]]]]]^^^^^^^////////(((____:::<<<<<<<<[[[}}}}}}}||||1111222222233344445555666666677777777777888",
"...........................................................................................................................................................................................................................................................................................................................................................................................................................................................................................................................................................................................++++@@@@@@@####$$$$$$$%%%%&&&****=======----;;;>>>>>>>,,,,,,,,'''''''))))!!!!!!!~~~{{{{]]]]]]]^^^^^^^////(((((((____:::<<<<<<<<[[[}}}}}}}||||1111222222233344445555666666677777777777888",
"...........................................................................................................................................................................................................................................................................................................................................................................................................................................................................................................................................................................................++++@@@@@@@####$$$$$$$%%%%&&&****=======----;;;>>>>>>>,,,,,,,,,,,''''))))!!!~~~~~~~{{{{]]]]]]]^^^^^^^////////(((____:::<<<<<<<<[[[}}}}}}}||||1111222222233344445555666666677777777777888",
"...........................................................................................................................................................................................................................................................................................................................................................................................................................................................................................................................................................................................++++@@@@@@@####$$$$$$$%%%%&&&****=======----;;;>>>>>>>,,,,,,,,'''''''))))!!!!!!!~~~{{{{]]]]]]]^^^^^^^////////(((____:::<<<<<<<<[[[}}}}}}}||||1111222222233344445555666666677777777777888",
"...........................................................................................................................................................................................................................................................................................................................................................................................................................................................................................................................................................................................++++@@@@@@@####$$$$$$$%%%%&&&****=======----;;;>>>>>>>,,,,,,,,'''''''))))!!!!!!!~~~{{{{]]]]]]]^^^^^^^////////(((____:::<<<<<<<<[[[}}}}}}}||||1111222222233344445555666666677777777777888",
"...........................................................................................................................................................................................................................................................................................................................................................................................................................................................................................................................................................................................++++@@@@@@@####$$$$$$$%%%%&&&****=======----;;;>>>>>>>,,,,,,,,'''''''))))!!!!!!!~~~{{{{]]]]]]]^^^^^^^////(((((((____:::<<<<<<<<[[[}}}}}}}||||1111222222233344445555666666677777777777888",
"...........................................................................................................................................................................................................................................................................................................................................................................................................................................................................................................................................................................................++++@@@@@@@####$$$$$$$%%%%&&&****=======----;;;>>>>>>>,,,,,,,,'''''''))))!!!!!!!~~~{{{{]]]]]]]^^^^^^^////(((((((____:::<<<<<<<<[[[}}}}}}}||||1111222222233344445555666666677777777777888",
"...........................................................................................................................................................................................................................................................................................................................................................................................................................................................................................................................................................................................++++@@@@@@@####$$$$$$$%%%%&&&****=======----;;;>>>>>>>,,,,,,,,'''''''))))!!!~~~~~~~{{{{]]]]]]]^^^^^^^////(((((((____:::<<<<<<<<[[[}}}}}}}||||1111222222233344445555666666677777777777888",
"...........................................................................................................................................................................................................................................................................................................................................................................................................................................................................................................................................................................................++++@@@@@@@####$$$$$$$%%%%&&&****=======----;;;>>>>>>>,,,,,,,,'''''''))))!!!~~~~~~~{{{{]]]]]]]^^^^^^^////////(((____:::<<<<<<<<[[[}}}}}}}||||1111222222233344445555666666677777777777888",
"...........................................................................................................................................................................................................................................................................................................................................................................................................................................................................................................................................................................................++++@@@@@@@####$$$$$$$%%%%&&&****=======----;;;>>>>>>>,,,,,,,,'''''''))))!!!~~~~~~~{{{{]]]]]]]^^^^^^^////////(((____:::<<<<<<<<[[[}}}}}}}||||1111222222233344445555666666677777777777888",
"...........................................................................................................................................................................................................................................................................................................................................................................................................................................................................................................................................................................................++++@@@@@@@####$$$$$$$%%%%&&&****=======----;;;>>>>>>>,,,,,,,,'''''''))))!!!~~~~~~~{{{{]]]]]]]^^^^^^^////////(((____:::::::<<<<[[[}}}}}}}||||1111222222233344445555666666677777777777888",
"...........................................................................................................................................................................................................................................................................................................................................................................................................................................................................................................................................................................................++++@@@@@@@####$$$$$$$%%%%&&&*******====----;;;>>>>>>>,,,,,,,,'''''''))))!!!!!!!~~~{{{{]]]]]]]^^^^^^^////////(((____:::::::<<<<[[[}}}}}}}||||1111222333333344445555666666677777777777888",
"...........................................................................................................................................................................................................................................................................................................................................................................................................................................................................................................................................................................................++++@@@@@@@####$$$$$$$%%%%&&&*******====----;;;>>>>>>>,,,,,,,,,,,''''))))!!!~~~~~~~{{{{]]]]]]]^^^^^^^////(((((((____:::<<<<<<<<[[[}}}}}}}||||1111222333333344445555666666677777777777888",
"...........................................................................................................................................................................................................................................................................................................................................................................................................................................................................................................................................................................................++++++++@@@####$$$$$$$%%%%&&&****=======----;;;>>>>>>>,,,,,,,,,,,''''))))!!!!!!!~~~{{{{]]]]]]]^^^^^^^////(((((((____:::<<<<<<<<[[[}}}}}}}||||1111222333333344445555666666677777777733444"};
