/* XPM */
static char * minimizeO_xpm[] = {
"21 38 208 2",
"  	c None",
". 	c #E0DFDE",
"+ 	c #DDDDDE",
"@ 	c #DCDFDF",
"# 	c #DCDEDF",
"$ 	c #DCDDDF",
"% 	c #D4DAE0",
"& 	c #D0DCE6",
"* 	c #D9E2E9",
"= 	c #DFE6EA",
"- 	c #DAE3EA",
"; 	c #CADAE3",
"> 	c #E4E8EA",
", 	c #ECEBEA",
"' 	c #ECEAE9",
") 	c #EBEBE9",
"! 	c #EDEBEA",
"~ 	c #E3E8EB",
"{ 	c #C9D9E4",
"] 	c #C8D8E4",
"^ 	c #E6E8E7",
"/ 	c #E8E8E7",
"( 	c #E7E7E5",
"_ 	c #E9E9E6",
": 	c #E6E9E7",
"< 	c #C7D7E3",
"[ 	c #DFDEDE",
"} 	c #CCD7E1",
"| 	c #DAE1E4",
"1 	c #E5E5E4",
"2 	c #E3E3E2",
"3 	c #E5E5E5",
"4 	c #D7E0E7",
"5 	c #C1D3E3",
"6 	c #E4E3E2",
"7 	c #E4E5E4",
"8 	c #C0D4E4",
"9 	c #D7DCE0",
"0 	c #C2D6E4",
"a 	c #E0DFDF",
"b 	c #DCDBDA",
"c 	c #B3CEE3",
"d 	c #63B5F4",
"e 	c #D5D8DB",
"f 	c #DADADA",
"g 	c #76BBF0",
"h 	c #98C5E9",
"i 	c #E1E0DF",
"j 	c #C1D6E5",
"k 	c #D2D9E0",
"l 	c #DDDBDA",
"m 	c #D9D7D6",
"n 	c #DCDCDB",
"o 	c #7ABEF3",
"p 	c #5CB1F5",
"q 	c #D1D4D8",
"r 	c #70B7F0",
"s 	c #63B5F6",
"t 	c #DBDDDF",
"u 	c #DDDBDB",
"v 	c #C1D4E4",
"w 	c #D4DBE0",
"x 	c #B7D1E4",
"y 	c #DAD9D8",
"z 	c #D5D4D2",
"A 	c #D6D5D3",
"B 	c #E8E9E8",
"C 	c #78BDF3",
"D 	c #43AAFB",
"E 	c #60B4F6",
"F 	c #E4E8EB",
"G 	c #D8D7D5",
"H 	c #DBDAD8",
"I 	c #B5CFE5",
"J 	c #D9DCDF",
"K 	c #B5D0E7",
"L 	c #D9D9DA",
"M 	c #D1D0CE",
"N 	c #D3D2D0",
"O 	c #E7E7E7",
"P 	c #7FC0F4",
"Q 	c #E3E8EA",
"R 	c #D4D3D2",
"S 	c #D9DAD9",
"T 	c #B4CFE7",
"U 	c #C0D5E4",
"V 	c #BCD0E0",
"W 	c #D2CFCE",
"X 	c #CECCCA",
"Y 	c #D0CECC",
"Z 	c #E9E8E7",
"` 	c #D3D1CF",
" .	c #D3D1D0",
"..	c #B9CEDF",
"+.	c #D3DAE0",
"@.	c #AFCDE6",
"#.	c #C7D2D9",
"$.	c #CECDCB",
"%.	c #CAC8C6",
"&.	c #CECDCC",
"*.	c #C6D1DA",
"=.	c #AECDE6",
"-.	c #CAD8E2",
";.	c #AACBE7",
">.	c #B2CBDD",
",.	c #CED1D3",
"'.	c #CDCCCB",
").	c #CCCBC9",
"!.	c #B2CBDE",
"~.	c #CED8E1",
"{.	c #BBD2E5",
"].	c #9EC9EA",
"^.	c #97C5EA",
"/.	c #9BC5E6",
"(.	c #9DC8EA",
"_.	c #DFDFDE",
":.	c #CFD8E1",
"<.	c #C6D7E3",
"[.	c #C4D6E3",
"}.	c #DEDEDE",
"|.	c #DDDCDB",
"1.	c #D1D0CF",
"2.	c #C1C0BE",
"3.	c #C5C4C3",
"4.	c #CAC9C7",
"5.	c #C5C3C3",
"6.	c #C1C1BF",
"7.	c #E1E0DE",
"8.	c #DBDBD8",
"9.	c #D7D6D5",
"0.	c #DBDAD7",
"a.	c #E2E0DF",
"b.	c #C0C0BF",
"c.	c #BFBDBC",
"d.	c #DADAD9",
"e.	c #D6D5D4",
"f.	c #CCCAC9",
"g.	c #D7D6D4",
"h.	c #DCDBD9",
"i.	c #BEBDBC",
"j.	c #DFDEDD",
"k.	c #C8C7C6",
"l.	c #CFCECC",
"m.	c #D8D7D6",
"n.	c #B8B6B5",
"o.	c #E0E0DD",
"p.	c #E0E0DE",
"q.	c #B7B6B5",
"r.	c #D5D5D4",
"s.	c #BBBAB9",
"t.	c #DDDDDB",
"u.	c #A7A6A4",
"v.	c #4C4B4A",
"w.	c #D0CFCD",
"x.	c #61605F",
"y.	c #898886",
"z.	c #B8B7B6",
"A.	c #CFCECD",
"B.	c #B8B8B7",
"C.	c #DEDDDC",
"D.	c #DADAD8",
"E.	c #DDDDDC",
"F.	c #676666",
"G.	c #444343",
"H.	c #D0D0CE",
"I.	c #5D5C5B",
"J.	c #4D4C4A",
"K.	c #DBDBD9",
"L.	c #B7B7B4",
"M.	c #ADADAC",
"N.	c #E0DEDD",
"O.	c #EAEAE9",
"P.	c #666664",
"Q.	c #272626",
"R.	c #4B4A49",
"S.	c #E4E4E3",
"T.	c #ABAAA9",
"U.	c #A9A8A8",
"V.	c #DDDCDC",
"W.	c #E2E1E0",
"X.	c #E3E2E1",
"Y.	c #EBEAEA",
"Z.	c #6D6D6C",
"`.	c #E3E2E2",
" +	c #A7A6A6",
".+	c #B9B8B7",
"++	c #E6E6E5",
"@+	c #EDEDEC",
"#+	c #E7E7E6",
"$+	c #B3B3B2",
"%+	c #D0CFCE",
"&+	c #A2A1A0",
"*+	c #C9C9C8",
"=+	c #E9E9E8",
"-+	c #A1A0A0",
";+	c #9A9998",
">+	c #AEAEAC",
",+	c #DAD9D7",
"'+	c #D9D8D7",
")+	c #CAC9C8",
"!+	c #B1B1B0",
"~+	c #8B8B8A",
"{+	c #838181",
"]+	c #898988",
"^+	c #8A8A89",
"/+	c #DBDAD9",
"(+	c #CBCAC9",
"_+	c #BDBCBB",
". . . . . . . . . . . . . . . . . . . . . ",
". . . . . . . . + @ # @ + . . . . . . . . ",
". . . . . . $ % & * = - & % $ . . . . . . ",
". . . . . # ; > , , ' ) ! ~ { # . . . . . ",
". . . . @ ] ^ / ( ( ( ( ( _ : < @ . . . . ",
". . . [ } | 1 2 2 2 2 2 2 2 3 4 } [ . . . ",
". . . @ 5 6 . . . . . . . . . 7 8 @ . . . ",
". . . 9 0 a b c d e b f g h b i j 9 . . . ",
". . . k 5 l m n o p q r s t m u v k . . . ",
". . . w x y z A B C D E F G z H I w . . . ",
". . . J K L M M N O P Q R M M S T J . . . ",
". . . # U V W X X Y Z ` X X  ...U # . . . ",
". . . . +.@.#.$.%.%.%.%.%.&.*.=.+.. . . . ",
". . . . + -.;.>.,.'.).'.,.!.;.-.+ . . . . ",
". . . . . $ ~.{.].^./.^.(.{.~.$ . . . . . ",
". . . . . . _.t :.<.[.<.:.t _.. . . . . . ",
". . . . . . . . . }.+ }.. . . . . . . . . ",
". . . . . . . . . . . . . . . . . . . . . ",
". . . . . . . . . . . . . . . . . . . . . ",
". . . . . . . . . . . . . . . . . . . . . ",
". . . . . . . . |.n b n |.. . . . . . . . ",
". . . . . . n 1.2.3.4.5.2.1.n . . . . . . ",
". . . . . b 6.1.7.8.9.0.a.1.b.b . . . . . ",
". . . . n c.d.e.f.f.f.f.f.g.h.i.n . . . . ",
". . . j.k.l.9.Y Y Y Y Y Y Y m.'.k.j.. . . ",
". . . n n.o.N N N N N N N N N p.q.n . . . ",
". . . r.s.t.g.u.v.w.g.R x.y.g.|.z.r.. . . ",
". . . A.B.C.D.E.F.G.H.I.J.K.D.E.L.A.. . . ",
". . . 1.M.N.C.j.O.P.Q.R.S.. C._.T.1.. . . ",
". . . m.U.V.W.W.X.Y.Z.S.`.W.W.l  +m.. . . ",
". . . n B..+6 1 1 ++@+#+1 1 2 $+B.n . . . ",
". . . . %+&+*+#+=+=+=+=+=+++k.-+%+. . . . ",
". . . . |.3.;+>+,+S.( S.'+M.;+3.|.. . . . ",
". . . . . n )+!+~+{+]+{+^+!+)+n . . . . . ",
". . . . . . j./+(+b._+b.(+/+j.. . . . . . ",
". . . . . . . . . C.|.C.. . . . . . . . . ",
". . . . . . . . . . . . . . . . . . . . . ",
". . . . . . . . . . . . . . . . . . . . . "};
