/* XPM */
static char * minimizeA_xpm[] = {
"21 38 169 2",
"  	c None",
". 	c #E0DFDE",
"+ 	c #DDDCDB",
"@ 	c #DCDCDB",
"# 	c #DCDBDA",
"$ 	c #D1D0CF",
"% 	c #CBCAC9",
"& 	c #D5D5D5",
"* 	c #DCDCDA",
"= 	c #D6D5D5",
"- 	c #C5C5C3",
"; 	c #E2E1E0",
"> 	c #ECEBEA",
", 	c #ECEAE9",
"' 	c #EBEBE9",
") 	c #EDEBEA",
"! 	c #E1E1E0",
"~ 	c #C4C4C3",
"{ 	c #C1C0BF",
"] 	c #E5E5E3",
"^ 	c #E8E8E7",
"/ 	c #E7E7E5",
"( 	c #E9E9E6",
"_ 	c #E6E6E3",
": 	c #C0BFBE",
"< 	c #DFDEDD",
"[ 	c #C8C7C6",
"} 	c #D7D7D4",
"| 	c #E5E5E4",
"1 	c #E3E3E2",
"2 	c #E5E5E5",
"3 	c #D4D4D4",
"4 	c #B9B7B6",
"5 	c #E4E3E2",
"6 	c #E4E4E3",
"7 	c #B8B7B6",
"8 	c #D5D5D4",
"9 	c #BBBABA",
"0 	c #E0DFDF",
"a 	c #ABAAA8",
"b 	c #4D4D4B",
"c 	c #D4D3D2",
"d 	c #D9D8D7",
"e 	c #636261",
"f 	c #8C8B8A",
"g 	c #E1E0DF",
"h 	c #B9B8B8",
"i 	c #CFCECD",
"j 	c #DDDBDA",
"k 	c #D9D7D6",
"l 	c #676665",
"m 	c #444242",
"n 	c #CFCDCC",
"o 	c #5D5B5A",
"p 	c #4D4B4A",
"q 	c #DAD9D8",
"r 	c #DDDBDB",
"s 	c #B7B6B4",
"t 	c #ACACAB",
"u 	c #D5D4D2",
"v 	c #D6D5D3",
"w 	c #656462",
"x 	c #262524",
"y 	c #4A4947",
"z 	c #D8D7D5",
"A 	c #DBDAD8",
"B 	c #AAA9A8",
"C 	c #D8D7D6",
"D 	c #A9A8A8",
"E 	c #D8D6D6",
"F 	c #D1D0CE",
"G 	c #D3D2D0",
"H 	c #E7E6E6",
"I 	c #6C6B6A",
"J 	c #E2E2E0",
"K 	c #A7A6A6",
"L 	c #B8B8B7",
"M 	c #B4B3B2",
"N 	c #D2CFCE",
"O 	c #CECCCA",
"P 	c #D0CECC",
"Q 	c #E9E8E7",
"R 	c #D3D1CF",
"S 	c #D3D1D0",
"T 	c #AFAEAD",
"U 	c #D0CFCE",
"V 	c #A2A1A0",
"W 	c #C2C2C0",
"X 	c #CECDCB",
"Y 	c #CAC8C6",
"Z 	c #CECDCC",
"` 	c #A1A0A0",
" .	c #C5C4C3",
"..	c #9A9998",
"+.	c #A7A7A5",
"@.	c #CCCCCB",
"#.	c #CDCCCB",
"$.	c #CCCBC9",
"%.	c #A6A5A4",
"&.	c #CAC9C8",
"*.	c #B1B1B0",
"=.	c #8B8B8A",
"-.	c #838181",
";.	c #888887",
">.	c #8A8A89",
",.	c #DBDAD9",
"'.	c #C0C0BF",
").	c #BDBCBB",
"!.	c #DEDDDC",
"~.	c #C1C0BE",
"{.	c #CAC9C7",
"].	c #C5C3C3",
"^.	c #C1C1BF",
"/.	c #E1E0DE",
"(.	c #DBDBD8",
"_.	c #D7D6D5",
":.	c #DBDAD7",
"<.	c #E2E0DF",
"[.	c #BFBDBC",
"}.	c #DADAD9",
"|.	c #D6D5D4",
"1.	c #CCCAC9",
"2.	c #D7D6D4",
"3.	c #DCDBD9",
"4.	c #BEBDBC",
"5.	c #CFCECC",
"6.	c #B8B6B5",
"7.	c #E0E0DD",
"8.	c #E0E0DE",
"9.	c #B7B6B5",
"0.	c #BBBAB9",
"a.	c #DDDDDB",
"b.	c #A7A6A4",
"c.	c #4C4B4A",
"d.	c #D0CFCD",
"e.	c #61605F",
"f.	c #898886",
"g.	c #DADAD8",
"h.	c #DDDDDC",
"i.	c #676666",
"j.	c #444343",
"k.	c #D0D0CE",
"l.	c #5D5C5B",
"m.	c #4D4C4A",
"n.	c #DBDBD9",
"o.	c #B7B7B4",
"p.	c #ADADAC",
"q.	c #E0DEDD",
"r.	c #EAEAE9",
"s.	c #666664",
"t.	c #272626",
"u.	c #4B4A49",
"v.	c #DFDFDE",
"w.	c #ABAAA9",
"x.	c #DDDCDC",
"y.	c #E3E2E1",
"z.	c #EBEAEA",
"A.	c #6D6D6C",
"B.	c #E3E2E2",
"C.	c #B9B8B7",
"D.	c #E6E6E5",
"E.	c #EDEDEC",
"F.	c #E7E7E6",
"G.	c #B3B3B2",
"H.	c #C9C9C8",
"I.	c #E9E9E8",
"J.	c #AEAEAC",
"K.	c #DAD9D7",
"L.	c #898988",
". . . . . . . . . . . . . . . . . . . . . ",
". . . . . . . . + @ # @ + . . . . . . . . ",
". . . . . . @ $ % & * = % $ @ . . . . . . ",
". . . . . # - ; > > , ' ) ! ~ # . . . . . ",
". . . . @ { ] ^ / / / / / ( _ : @ . . . . ",
". . . < [ } | 1 1 1 1 1 1 1 2 3 [ < . . . ",
". . . @ 4 5 . . . . . . . . . 6 7 @ . . . ",
". . . 8 9 0 # a b c # d e f # g h 8 . . . ",
". . . i 7 j k # l m n o p q k r s i . . . ",
". . . $ t q u v ^ w x y 1 z u A B $ . . . ",
". . . C D E F F G H I J c F F z K C . . . ",
". . . @ L M N O O P Q R O O S T L @ . . . ",
". . . . U V W X Y Y Y Y Y Z { ` U . . . . ",
". . . . +  ...+.@.#.$.#.@.%... .+ . . . . ",
". . . . . @ &.*.=.-.;.-.>.*.&.@ . . . . . ",
". . . . . . < ,.% '.).'.% ,.< . . . . . . ",
". . . . . . . . . !.+ !.. . . . . . . . . ",
". . . . . . . . . . . . . . . . . . . . . ",
". . . . . . . . . . . . . . . . . . . . . ",
". . . . . . . . . . . . . . . . . . . . . ",
". . . . . . . . + @ # @ + . . . . . . . . ",
". . . . . . @ $ ~. .{.].~.$ @ . . . . . . ",
". . . . . # ^.$ /.(._.:.<.$ '.# . . . . . ",
". . . . @ [.}.|.1.1.1.1.1.2.3.4.@ . . . . ",
". . . < [ 5._.P P P P P P P C #.[ < . . . ",
". . . @ 6.7.G G G G G G G G G 8.9.@ . . . ",
". . . 8 0.a.2.b.c.d.2.c e.f.2.+ 7 8 . . . ",
". . . i L !.g.h.i.j.k.l.m.n.g.h.o.i . . . ",
". . . $ p.q.!.< r.s.t.u.6 . !.v.w.$ . . . ",
". . . C D x.; ; y.z.A.6 B.; ; j K C . . . ",
". . . @ L C.5 | | D.E.F.| | 1 G.L @ . . . ",
". . . . U V H.F.I.I.I.I.I.D.[ ` U . . . . ",
". . . . +  ...J.K.6 / 6 d p... .+ . . . . ",
". . . . . @ &.*.=.-.L.-.>.*.&.@ . . . . . ",
". . . . . . < ,.% '.).'.% ,.< . . . . . . ",
". . . . . . . . . !.+ !.. . . . . . . . . ",
". . . . . . . . . . . . . . . . . . . . . ",
". . . . . . . . . . . . . . . . . . . . . "};
