/* XPM */
static char * minimizeI_xpm[] = {
"21 38 109 2",
"  	c None",
". 	c #E0DFDE",
"+ 	c #DDDCDB",
"@ 	c #DCDCDB",
"# 	c #DCDBDA",
"$ 	c #D1D0CF",
"% 	c #CBCAC9",
"& 	c #D5D5D5",
"* 	c #DCDCDA",
"= 	c #D6D5D5",
"- 	c #C5C5C3",
"; 	c #E2E1E0",
"> 	c #ECEBEA",
", 	c #ECEAE9",
"' 	c #EBEBE9",
") 	c #EDEBEA",
"! 	c #E1E1E0",
"~ 	c #C4C4C3",
"{ 	c #C1C0BF",
"] 	c #E5E5E3",
"^ 	c #E8E8E7",
"/ 	c #E7E7E5",
"( 	c #E9E9E6",
"_ 	c #E6E6E3",
": 	c #C0BFBE",
"< 	c #DFDEDD",
"[ 	c #C8C7C6",
"} 	c #D7D7D4",
"| 	c #E5E5E4",
"1 	c #E3E3E2",
"2 	c #E5E5E5",
"3 	c #D4D4D4",
"4 	c #B9B7B6",
"5 	c #E4E3E2",
"6 	c #E4E4E3",
"7 	c #B8B7B6",
"8 	c #D5D5D4",
"9 	c #BBBABA",
"0 	c #E0DFDF",
"a 	c #C9C8C6",
"b 	c #A4A3A1",
"c 	c #D8D7D6",
"d 	c #DBDAD9",
"e 	c #ACABAA",
"f 	c #BCBBBB",
"g 	c #E1E0DF",
"h 	c #B9B8B8",
"i 	c #CFCECD",
"j 	c #DDDBDA",
"k 	c #D9D7D6",
"l 	c #B0AFAD",
"m 	c #A09E9D",
"n 	c #D5D4D3",
"o 	c #A9A7A7",
"p 	c #A4A3A2",
"q 	c #DDDBDB",
"r 	c #B7B6B4",
"s 	c #ACACAB",
"t 	c #DAD9D8",
"u 	c #D5D4D2",
"v 	c #D6D5D3",
"w 	c #AFAEAC",
"x 	c #949292",
"y 	c #A2A2A1",
"z 	c #E7E7E6",
"A 	c #D8D7D5",
"B 	c #DBDAD8",
"C 	c #AAA9A8",
"D 	c #A9A8A8",
"E 	c #D8D6D6",
"F 	c #D1D0CE",
"G 	c #D3D2D0",
"H 	c #E7E6E6",
"I 	c #B3B1B0",
"J 	c #E6E6E4",
"K 	c #D4D3D2",
"L 	c #A7A6A6",
"M 	c #B8B8B7",
"N 	c #B4B3B2",
"O 	c #D2CFCE",
"P 	c #CECCCA",
"Q 	c #D0CECC",
"R 	c #E9E8E7",
"S 	c #D3D1CF",
"T 	c #D3D1D0",
"U 	c #AFAEAD",
"V 	c #D0CFCE",
"W 	c #A2A1A0",
"X 	c #C2C2C0",
"Y 	c #CECDCB",
"Z 	c #CAC8C6",
"` 	c #CECDCC",
" .	c #A1A0A0",
"..	c #C5C4C3",
"+.	c #9A9998",
"@.	c #A7A7A5",
"#.	c #CCCCCB",
"$.	c #CDCCCB",
"%.	c #CCCBC9",
"&.	c #A6A5A4",
"*.	c #CAC9C8",
"=.	c #B1B1B0",
"-.	c #8B8B8A",
";.	c #838181",
">.	c #888887",
",.	c #8A8A89",
"'.	c #C0C0BF",
").	c #BDBCBB",
"!.	c #DEDDDC",
". . . . . . . . . . . . . . . . . . . . . ",
". . . . . . . . + @ # @ + . . . . . . . . ",
". . . . . . @ $ % & * = % $ @ . . . . . . ",
". . . . . # - ; > > , ' ) ! ~ # . . . . . ",
". . . . @ { ] ^ / / / / / ( _ : @ . . . . ",
". . . < [ } | 1 1 1 1 1 1 1 2 3 [ < . . . ",
". . . @ 4 5 . . . . . . . . . 6 7 @ . . . ",
". . . 8 9 0 # a b c # d e f # g h 8 . . . ",
". . . i 7 j k # l m n o p + k q r i . . . ",
". . . $ s t u v ^ w x y z A u B C $ . . . ",
". . . c D E F F G H I J K F F A L c . . . ",
". . . @ M N O P P Q R S P P T U M @ . . . ",
". . . . V W X Y Z Z Z Z Z ` {  .V . . . . ",
". . . . + ..+.@.#.$.%.$.#.&.+...+ . . . . ",
". . . . . @ *.=.-.;.>.;.,.=.*.@ . . . . . ",
". . . . . . < d % '.).'.% d < . . . . . . ",
". . . . . . . . . !.+ !.. . . . . . . . . ",
". . . . . . . . . . . . . . . . . . . . . ",
". . . . . . . . . . . . . . . . . . . . . ",
". . . . . . . . . . . . . . . . . . . . . ",
". . . . . . . . + @ # @ + . . . . . . . . ",
". . . . . . @ $ % & * = % $ @ . . . . . . ",
". . . . . # - ; > > , ' ) ! ~ # . . . . . ",
". . . . @ { ] ^ / / / / / ( _ : @ . . . . ",
". . . < [ } | 1 1 1 1 1 1 1 2 3 [ < . . . ",
". . . @ 4 5 . . . . . . . . . 6 7 @ . . . ",
". . . 8 9 0 # a b c # d e f # g h 8 . . . ",
". . . i 7 j k # l m n o p + k q r i . . . ",
". . . $ s t u v ^ w x y z A u B C $ . . . ",
". . . c D E F F G H I J K F F A L c . . . ",
". . . @ M N O P P Q R S P P T U M @ . . . ",
". . . . V W X Y Z Z Z Z Z ` {  .V . . . . ",
". . . . + ..+.@.#.$.%.$.#.&.+...+ . . . . ",
". . . . . @ *.=.-.;.>.;.,.=.*.@ . . . . . ",
". . . . . . < d % '.).'.% d < . . . . . . ",
". . . . . . . . . !.+ !.. . . . . . . . . ",
". . . . . . . . . . . . . . . . . . . . . ",
". . . . . . . . . . . . . . . . . . . . . "};
