/* XPM */
static char * restoreA_xpm[] = {
"21 38 188 2",
"  	c None",
". 	c #E0DFDE",
"+ 	c #DDDCDB",
"@ 	c #DCDCDB",
"# 	c #DCDBDA",
"$ 	c #D1D0CF",
"% 	c #CBCAC9",
"& 	c #D5D5D5",
"* 	c #DCDCDA",
"= 	c #D6D5D5",
"- 	c #C5C5C3",
"; 	c #E2E1E0",
"> 	c #ECEBEA",
", 	c #ECEAE9",
"' 	c #EBEBE9",
") 	c #EDEBEA",
"! 	c #E1E1E0",
"~ 	c #C4C4C3",
"{ 	c #C1C0BF",
"] 	c #E5E5E3",
"^ 	c #E8E8E7",
"/ 	c #E7E7E5",
"( 	c #E9E9E6",
"_ 	c #E6E6E3",
": 	c #C0BFBE",
"< 	c #DFDEDD",
"[ 	c #C8C7C6",
"} 	c #D7D7D4",
"| 	c #E5E5E4",
"1 	c #E3E3E2",
"2 	c #D2D2D0",
"3 	c #595957",
"4 	c #C2C2C2",
"5 	c #E5E5E5",
"6 	c #D4D4D4",
"7 	c #B9B7B6",
"8 	c #E4E3E2",
"9 	c #D0CFCD",
"0 	c #383836",
"a 	c #2A2928",
"b 	c #E4E4E3",
"c 	c #B8B7B6",
"d 	c #D5D5D4",
"e 	c #BBBABA",
"f 	c #E0DFDF",
"g 	c #CDCCCB",
"h 	c #373736",
"i 	c #838281",
"j 	c #EDECEB",
"k 	c #A1A0A0",
"l 	c #BEBDBD",
"m 	c #E1E0DF",
"n 	c #B9B8B8",
"o 	c #CFCECD",
"p 	c #DDDBDA",
"q 	c #D9D7D6",
"r 	c #B5B3B2",
"s 	c #232322",
"t 	c #BABAB8",
"u 	c #DAD8D7",
"v 	c #CAC9C9",
"w 	c #2B2A29",
"x 	c #9E9D9B",
"y 	c #DDDBDB",
"z 	c #B7B6B4",
"A 	c #ACACAB",
"B 	c #DAD9D8",
"C 	c #D5D4D2",
"D 	c #DBDBD9",
"E 	c #B3B3B2",
"F 	c #272625",
"G 	c #959392",
"H 	c #2D2C2B",
"I 	c #989797",
"J 	c #DFDFDD",
"K 	c #DBDAD8",
"L 	c #AAA9A8",
"M 	c #D8D7D6",
"N 	c #A9A8A8",
"O 	c #D8D6D6",
"P 	c #D1D0CE",
"Q 	c #AFAEAD",
"R 	c #1B1918",
"S 	c #929290",
"T 	c #E3E3E1",
"U 	c #D8D7D5",
"V 	c #A7A6A6",
"W 	c #B8B8B7",
"X 	c #B4B3B2",
"Y 	c #D2CFCE",
"Z 	c #CECCCA",
"` 	c #E6E6E5",
" .	c #D3D1D0",
"..	c #D0CFCE",
"+.	c #A2A1A0",
"@.	c #C2C2C0",
"#.	c #CECDCB",
"$.	c #CAC8C6",
"%.	c #D2D1CF",
"&.	c #CECDCC",
"*.	c #C5C4C3",
"=.	c #9A9998",
"-.	c #A7A7A5",
";.	c #CCCCCB",
">.	c #CCCBC9",
",.	c #A6A5A4",
"'.	c #CAC9C8",
").	c #B1B1B0",
"!.	c #8B8B8A",
"~.	c #838181",
"{.	c #888887",
"].	c #8A8A89",
"^.	c #DBDAD9",
"/.	c #C0C0BF",
"(.	c #BDBCBB",
"_.	c #DEDDDC",
":.	c #C1C0BE",
"<.	c #CAC9C7",
"[.	c #C5C3C3",
"}.	c #C1C1BF",
"|.	c #E1E0DE",
"1.	c #DBDBD8",
"2.	c #D7D6D5",
"3.	c #DBDAD7",
"4.	c #E2E0DF",
"5.	c #BFBDBC",
"6.	c #DADAD9",
"7.	c #D6D5D4",
"8.	c #CCCAC9",
"9.	c #D7D6D4",
"0.	c #DCDBD9",
"a.	c #BEBDBC",
"b.	c #CFCECC",
"c.	c #D0CECC",
"d.	c #C1BFBC",
"e.	c #525250",
"f.	c #B2B1AF",
"g.	c #B8B6B5",
"h.	c #E0E0DD",
"i.	c #D3D2D0",
"j.	c #C4C3C0",
"k.	c #353534",
"l.	c #565655",
"m.	c #292726",
"n.	c #B5B4B2",
"o.	c #E0E0DE",
"p.	c #B7B6B5",
"q.	c #BBBAB9",
"r.	c #DDDDDB",
"s.	c #C8C7C5",
"t.	c #363635",
"u.	c #828180",
"v.	c #ECECEB",
"w.	c #2A2927",
"x.	c #BAB9B7",
"y.	c #DADAD8",
"z.	c #B6B6B3",
"A.	c #BBBBB9",
"B.	c #CBCBC9",
"C.	c #9F9F9C",
"D.	c #DDDDDC",
"E.	c #B7B7B4",
"F.	c #ADADAC",
"G.	c #E0DEDD",
"H.	c #E2E1E1",
"I.	c #282726",
"J.	c #9B9999",
"K.	c #2E2D2C",
"L.	c #999897",
"M.	c #DFDFDE",
"N.	c #ABAAA9",
"O.	c #DDDCDC",
"P.	c #E8E7E7",
"Q.	c #B0AFAF",
"R.	c #1B1A19",
"S.	c #949492",
"T.	c #EAE9E8",
"U.	c #B9B8B7",
"V.	c #E9E9E9",
"W.	c #EBEBEA",
"X.	c #C9C9C8",
"Y.	c #E7E7E6",
"Z.	c #E9E9E8",
"`.	c #EAEAE9",
" +	c #AEAEAC",
".+	c #DAD9D7",
"++	c #D9D8D7",
"@+	c #898988",
". . . . . . . . . . . . . . . . . . . . . ",
". . . . . . . . + @ # @ + . . . . . . . . ",
". . . . . . @ $ % & * = % $ @ . . . . . . ",
". . . . . # - ; > > , ' ) ! ~ # . . . . . ",
". . . . @ { ] ^ / / / / / ( _ : @ . . . . ",
". . . < [ } | 1 1 2 3 4 1 1 5 6 [ < . . . ",
". . . @ 7 8 . . 9 0 3 a : . . b c @ . . . ",
". . . d e f # g h i j k a l # m n d . . . ",
". . . o c p q r s t u v w x q y z o . . . ",
". . . $ A B C D E F G H I J C K L $ . . . ",
". . . M N O P P < Q R S T P P U V M . . . ",
". . . @ W X Y Z Z + ` ; Z Z  .Q W @ . . . ",
". . . . ..+.@.#.$.$.%.$.$.&.{ k ... . . . ",
". . . . + *.=.-.;.g >.g ;.,.=.*.+ . . . . ",
". . . . . @ '.).!.~.{.~.].).'.@ . . . . . ",
". . . . . . < ^.% /.(./.% ^.< . . . . . . ",
". . . . . . . . . _.+ _.. . . . . . . . . ",
". . . . . . . . . . . . . . . . . . . . . ",
". . . . . . . . . . . . . . . . . . . . . ",
". . . . . . . . . . . . . . . . . . . . . ",
". . . . . . . . + @ # @ + . . . . . . . . ",
". . . . . . @ $ :.*.<.[.:.$ @ . . . . . . ",
". . . . . # }.$ |.1.2.3.4.$ /.# . . . . . ",
". . . . @ 5.6.7.8.8.8.8.8.9.0.a.@ . . . . ",
". . . < [ b.2.c.c.d.e.f.c.c.M g [ < . . . ",
". . . @ g.h.i.i.j.k.l.m.n.i.i.o.p.@ . . . ",
". . . d q.r.9.s.t.u.v.k w.x.9.+ c d . . . ",
". . . o W _.y.z.s A.D B.w C.y.D.E.o . . . ",
". . . $ F.G._.H.E I.J.K.L.b _.M.N.$ . . . ",
". . . M N O.; ; P.Q.R.S.T.; ; p V M . . . ",
". . . @ W U.8 | | V.` W.| | 1 E W @ . . . ",
". . . . ..+.X.Y.Z.Z.`.Z.Z.` [ k ... . . . ",
". . . . + *.=. +.+b / b ++F.=.*.+ . . . . ",
". . . . . @ '.).!.~.@+~.].).'.@ . . . . . ",
". . . . . . < ^.% /.(./.% ^.< . . . . . . ",
". . . . . . . . . _.+ _.. . . . . . . . . ",
". . . . . . . . . . . . . . . . . . . . . ",
". . . . . . . . . . . . . . . . . . . . . "};
