/* XPM */
static char * restoreO_xpm[] = {
"21 38 232 2",
"  	c None",
". 	c #E0DFDE",
"+ 	c #DDDDDE",
"@ 	c #DCDFDF",
"# 	c #DCDEDF",
"$ 	c #DCDDDF",
"% 	c #D4DAE0",
"& 	c #D0DCE6",
"* 	c #D9E2E9",
"= 	c #DFE6EA",
"- 	c #DAE3EA",
"; 	c #CADAE3",
"> 	c #E4E8EA",
", 	c #ECEBEA",
"' 	c #ECEAE9",
") 	c #EBEBE9",
"! 	c #EDEBEA",
"~ 	c #E3E8EB",
"{ 	c #C9D9E4",
"] 	c #C8D8E4",
"^ 	c #E6E8E7",
"/ 	c #E8E8E7",
"( 	c #E7E7E5",
"_ 	c #E9E9E6",
": 	c #E6E9E7",
"< 	c #C7D7E3",
"[ 	c #DFDEDE",
"} 	c #CCD7E1",
"| 	c #DAE1E4",
"1 	c #E5E5E4",
"2 	c #E3E3E2",
"3 	c #D4DEE4",
"4 	c #6EBAF5",
"5 	c #C7D9E7",
"6 	c #E5E5E5",
"7 	c #D7E0E7",
"8 	c #C1D3E3",
"9 	c #E4E3E2",
"0 	c #D2DBE1",
"a 	c #52B0F9",
"b 	c #6EBBF6",
"c 	c #46ABFC",
"d 	c #C5D6E3",
"e 	c #E4E5E4",
"f 	c #C0D4E4",
"g 	c #D7DCE0",
"h 	c #C2D6E4",
"i 	c #E0DFDF",
"j 	c #DCDBDA",
"k 	c #D0D7DD",
"l 	c #51AFF9",
"m 	c #91C8F2",
"n 	c #EDECEB",
"o 	c #ABD2F1",
"p 	c #45ABFB",
"q 	c #C3D3E0",
"r 	c #E1E0DF",
"s 	c #C1D6E5",
"t 	c #D2D9E0",
"u 	c #DDDBDA",
"v 	c #D9D7D6",
"w 	c #BBCEDF",
"x 	c #40AAFD",
"y 	c #C1DAEB",
"z 	c #DAD8D7",
"A 	c #CEDCE7",
"B 	c #47ACFD",
"C 	c #A7C9E3",
"D 	c #DDDBDB",
"E 	c #C1D4E4",
"F 	c #D4DBE0",
"G 	c #B7D1E4",
"H 	c #DAD9D8",
"I 	c #D5D4D2",
"J 	c #DBDBD9",
"K 	c #BCDBF2",
"L 	c #43AAFB",
"M 	c #9FC4E1",
"N 	c #48ACF9",
"O 	c #A4D0F3",
"P 	c #DFDFDD",
"Q 	c #DBDAD8",
"R 	c #B5CFE5",
"S 	c #D9DCDF",
"T 	c #B5D0E7",
"U 	c #D9D9DA",
"V 	c #D1D0CE",
"W 	c #DFDEDD",
"X 	c #B7D7EF",
"Y 	c #39A6FD",
"Z 	c #9FCDF0",
"` 	c #E3E3E1",
" .	c #D9DAD9",
"..	c #B4CFE7",
"+.	c #C0D5E4",
"@.	c #BCD0E0",
"#.	c #D2CFCE",
"$.	c #CECCCA",
"%.	c #DDDCDB",
"&.	c #E7EBEE",
"*.	c #E2E1E0",
"=.	c #D3D1D0",
"-.	c #B9CEDF",
";.	c #D3DAE0",
">.	c #AFCDE6",
",.	c #C7D2D9",
"'.	c #CECDCB",
").	c #CAC8C6",
"!.	c #D2D1CF",
"~.	c #CECDCC",
"{.	c #C6D1DA",
"].	c #AECDE6",
"^.	c #CAD8E2",
"/.	c #AACBE7",
"(.	c #B2CBDD",
"_.	c #CED1D3",
":.	c #CDCCCB",
"<.	c #CCCBC9",
"[.	c #B2CBDE",
"}.	c #CED8E1",
"|.	c #BBD2E5",
"1.	c #9EC9EA",
"2.	c #97C5EA",
"3.	c #9BC5E6",
"4.	c #9DC8EA",
"5.	c #DFDFDE",
"6.	c #DBDDDF",
"7.	c #CFD8E1",
"8.	c #C6D7E3",
"9.	c #C4D6E3",
"0.	c #DEDEDE",
"a.	c #DCDCDB",
"b.	c #D1D0CF",
"c.	c #C1C0BE",
"d.	c #C5C4C3",
"e.	c #CAC9C7",
"f.	c #C5C3C3",
"g.	c #C1C1BF",
"h.	c #E1E0DE",
"i.	c #DBDBD8",
"j.	c #D7D6D5",
"k.	c #DBDAD7",
"l.	c #E2E0DF",
"m.	c #C0C0BF",
"n.	c #BFBDBC",
"o.	c #DADAD9",
"p.	c #D6D5D4",
"q.	c #CCCAC9",
"r.	c #D7D6D4",
"s.	c #DCDBD9",
"t.	c #BEBDBC",
"u.	c #C8C7C6",
"v.	c #CFCECC",
"w.	c #D0CECC",
"x.	c #C1BFBC",
"y.	c #525250",
"z.	c #B2B1AF",
"A.	c #D8D7D6",
"B.	c #B8B6B5",
"C.	c #E0E0DD",
"D.	c #D3D2D0",
"E.	c #C4C3C0",
"F.	c #353534",
"G.	c #565655",
"H.	c #292726",
"I.	c #B5B4B2",
"J.	c #E0E0DE",
"K.	c #B7B6B5",
"L.	c #D5D5D4",
"M.	c #BBBAB9",
"N.	c #DDDDDB",
"O.	c #C8C7C5",
"P.	c #363635",
"Q.	c #828180",
"R.	c #ECECEB",
"S.	c #A1A0A0",
"T.	c #2A2927",
"U.	c #BAB9B7",
"V.	c #B8B7B6",
"W.	c #CFCECD",
"X.	c #B8B8B7",
"Y.	c #DEDDDC",
"Z.	c #DADAD8",
"`.	c #B6B6B3",
" +	c #232322",
".+	c #BBBBB9",
"++	c #CBCBC9",
"@+	c #2B2A29",
"#+	c #9F9F9C",
"$+	c #DDDDDC",
"%+	c #B7B7B4",
"&+	c #ADADAC",
"*+	c #E0DEDD",
"=+	c #E2E1E1",
"-+	c #B3B3B2",
";+	c #282726",
">+	c #9B9999",
",+	c #2E2D2C",
"'+	c #999897",
")+	c #E4E4E3",
"!+	c #ABAAA9",
"~+	c #A9A8A8",
"{+	c #DDDCDC",
"]+	c #E8E7E7",
"^+	c #B0AFAF",
"/+	c #1B1A19",
"(+	c #949492",
"_+	c #EAE9E8",
":+	c #A7A6A6",
"<+	c #B9B8B7",
"[+	c #E9E9E9",
"}+	c #E6E6E5",
"|+	c #EBEBEA",
"1+	c #D0CFCE",
"2+	c #A2A1A0",
"3+	c #C9C9C8",
"4+	c #E7E7E6",
"5+	c #E9E9E8",
"6+	c #EAEAE9",
"7+	c #9A9998",
"8+	c #AEAEAC",
"9+	c #DAD9D7",
"0+	c #D9D8D7",
"a+	c #CAC9C8",
"b+	c #B1B1B0",
"c+	c #8B8B8A",
"d+	c #838181",
"e+	c #898988",
"f+	c #8A8A89",
"g+	c #DBDAD9",
"h+	c #CBCAC9",
"i+	c #BDBCBB",
". . . . . . . . . . . . . . . . . . . . . ",
". . . . . . . . + @ # @ + . . . . . . . . ",
". . . . . . $ % & * = - & % $ . . . . . . ",
". . . . . # ; > , , ' ) ! ~ { # . . . . . ",
". . . . @ ] ^ / ( ( ( ( ( _ : < @ . . . . ",
". . . [ } | 1 2 2 3 4 5 2 2 6 7 } [ . . . ",
". . . @ 8 9 . . 0 a b c d . . e f @ . . . ",
". . . g h i j k l m n o p q j r s g . . . ",
". . . t 8 u v w x y z A B C v D E t . . . ",
". . . F G H I J K L M N O P I Q R F . . . ",
". . . S T U V V W X Y Z ` V V  ...S . . . ",
". . . # +.@.#.$.$.%.&.*.$.$.=.-.+.# . . . ",
". . . . ;.>.,.'.).).!.).).~.{.].;.. . . . ",
". . . . + ^./.(._.:.<.:._.[./.^.+ . . . . ",
". . . . . $ }.|.1.2.3.2.4.|.}.$ . . . . . ",
". . . . . . 5.6.7.8.9.8.7.6.5.. . . . . . ",
". . . . . . . . . 0.+ 0.. . . . . . . . . ",
". . . . . . . . . . . . . . . . . . . . . ",
". . . . . . . . . . . . . . . . . . . . . ",
". . . . . . . . . . . . . . . . . . . . . ",
". . . . . . . . %.a.j a.%.. . . . . . . . ",
". . . . . . a.b.c.d.e.f.c.b.a.. . . . . . ",
". . . . . j g.b.h.i.j.k.l.b.m.j . . . . . ",
". . . . a.n.o.p.q.q.q.q.q.r.s.t.a.. . . . ",
". . . W u.v.j.w.w.x.y.z.w.w.A.:.u.W . . . ",
". . . a.B.C.D.D.E.F.G.H.I.D.D.J.K.a.. . . ",
". . . L.M.N.r.O.P.Q.R.S.T.U.r.%.V.L.. . . ",
". . . W.X.Y.Z.`. +.+J ++@+#+Z.$+%+W.. . . ",
". . . b.&+*+Y.=+-+;+>+,+'+)+Y.5.!+b.. . . ",
". . . A.~+{+*.*.]+^+/+(+_+*.*.u :+A.. . . ",
". . . a.X.<+9 1 1 [+}+|+1 1 2 -+X.a.. . . ",
". . . . 1+2+3+4+5+5+6+5+5+}+u.S.1+. . . . ",
". . . . %.d.7+8+9+)+( )+0+&+7+d.%.. . . . ",
". . . . . a.a+b+c+d+e+d+f+b+a+a.. . . . . ",
". . . . . . W g+h+m.i+m.h+g+W . . . . . . ",
". . . . . . . . . Y.%.Y.. . . . . . . . . ",
". . . . . . . . . . . . . . . . . . . . . ",
". . . . . . . . . . . . . . . . . . . . . "};
