/* XPM */
static char * rolldownO_xpm[] = {
"21 38 219 2",
"  	c None",
". 	c #E0DFDE",
"+ 	c #DDDDDE",
"@ 	c #DCDFDF",
"# 	c #DCDEDF",
"$ 	c #DCDDDF",
"% 	c #D4DAE0",
"& 	c #D0DCE6",
"* 	c #D9E2E9",
"= 	c #DFE6EA",
"- 	c #DAE3EA",
"; 	c #CADAE3",
"> 	c #E4E8EA",
", 	c #ECEBEA",
"' 	c #ECEAE9",
") 	c #EBEBE9",
"! 	c #EDEBEA",
"~ 	c #E3E8EB",
"{ 	c #C9D9E4",
"] 	c #C8D8E4",
"^ 	c #E6E8E7",
"/ 	c #E8E8E7",
"( 	c #E7E7E5",
"_ 	c #E9E9E6",
": 	c #E6E9E7",
"< 	c #C7D7E3",
"[ 	c #DFDEDE",
"} 	c #CCD7E1",
"| 	c #DAE1E4",
"1 	c #E5E5E4",
"2 	c #E3E3E2",
"3 	c #DEE1E3",
"4 	c #65B7F7",
"5 	c #D2DDE4",
"6 	c #E5E5E5",
"7 	c #D7E0E7",
"8 	c #C1D3E3",
"9 	c #E4E3E2",
"0 	c #64B6F6",
"a 	c #51B0FB",
"b 	c #53B0F9",
"c 	c #D2DBE1",
"d 	c #E4E5E4",
"e 	c #C0D4E4",
"f 	c #D7DCE0",
"g 	c #C2D6E4",
"h 	c #E0DFDF",
"i 	c #DCDBDA",
"j 	c #D8DADB",
"k 	c #66B5F4",
"l 	c #70BBF5",
"m 	c #ECEDEC",
"n 	c #8BC6F3",
"o 	c #52AFF8",
"p 	c #D0D8DD",
"q 	c #E1E0DF",
"r 	c #C1D6E5",
"s 	c #D2D9E0",
"t 	c #DDDBDA",
"u 	c #D9D7D6",
"v 	c #B4CCDF",
"w 	c #7ABEF3",
"x 	c #E9EAEA",
"y 	c #DBD9D8",
"z 	c #91C7F1",
"A 	c #9CC5E5",
"B 	c #DDDBDB",
"C 	c #C1D4E4",
"D 	c #D4DBE0",
"E 	c #B7D1E4",
"F 	c #DAD9D8",
"G 	c #D5D4D2",
"H 	c #DADAD9",
"I 	c #DEE5EA",
"J 	c #CCD4D8",
"K 	c #CAD1D5",
"L 	c #DCE4E8",
"M 	c #DDDEDE",
"N 	c #DBDAD8",
"O 	c #B5CFE5",
"P 	c #D9DCDF",
"Q 	c #B5D0E7",
"R 	c #D9D9DA",
"S 	c #D1D0CE",
"T 	c #ACC6DA",
"U 	c #48ABF9",
"V 	c #48ABF8",
"W 	c #96C0E1",
"X 	c #D9DAD9",
"Y 	c #B4CFE7",
"Z 	c #C0D5E4",
"` 	c #BCD0E0",
" .	c #D2CFCE",
"..	c #D6D4D3",
"+.	c #EAEAE9",
"@.	c #D9D8D7",
"#.	c #D3D1D0",
"$.	c #B9CEDF",
"%.	c #D3DAE0",
"&.	c #AFCDE6",
"*.	c #C7D2D9",
"=.	c #CECDCB",
"-.	c #CFCDCB",
";.	c #CFCDCC",
">.	c #CFCECC",
",.	c #C6D1DA",
"'.	c #AECDE6",
").	c #CAD8E2",
"!.	c #AACBE7",
"~.	c #B2CBDD",
"{.	c #CED1D3",
"].	c #CDCCCB",
"^.	c #CCCBC9",
"/.	c #B2CBDE",
"(.	c #CED8E1",
"_.	c #BBD2E5",
":.	c #9EC9EA",
"<.	c #97C5EA",
"[.	c #9BC5E6",
"}.	c #9DC8EA",
"|.	c #DFDFDE",
"1.	c #DBDDDF",
"2.	c #CFD8E1",
"3.	c #C6D7E3",
"4.	c #C4D6E3",
"5.	c #DEDEDE",
"6.	c #DDDCDB",
"7.	c #DCDCDB",
"8.	c #D1D0CF",
"9.	c #C1C0BE",
"0.	c #C5C4C3",
"a.	c #CAC9C7",
"b.	c #C5C3C3",
"c.	c #C1C1BF",
"d.	c #E1E0DE",
"e.	c #DBDBD8",
"f.	c #D7D6D5",
"g.	c #DBDAD7",
"h.	c #E2E0DF",
"i.	c #C0C0BF",
"j.	c #BFBDBC",
"k.	c #D6D5D4",
"l.	c #CCCAC9",
"m.	c #D7D6D4",
"n.	c #DCDBD9",
"o.	c #BEBDBC",
"p.	c #DFDEDD",
"q.	c #C8C7C6",
"r.	c #D0CECC",
"s.	c #CAC8C6",
"t.	c #494746",
"u.	c #BEBCB9",
"v.	c #D8D7D6",
"w.	c #B8B6B5",
"x.	c #E0E0DD",
"y.	c #D3D2D0",
"z.	c #4A4A49",
"A.	c #353534",
"B.	c #373736",
"C.	c #C4C3C1",
"D.	c #E0E0DE",
"E.	c #B7B6B5",
"F.	c #D5D5D4",
"G.	c #BBBAB9",
"H.	c #DDDDDB",
"I.	c #D2D1CF",
"J.	c #4E4D4C",
"K.	c #5A5A58",
"L.	c #7A7A78",
"M.	c #383737",
"N.	c #C9C8C6",
"O.	c #B8B7B6",
"P.	c #CFCECD",
"Q.	c #B8B8B7",
"R.	c #DEDDDC",
"S.	c #DADAD8",
"T.	c #AEAEAD",
"U.	c #686766",
"V.	c #DCDCDA",
"W.	c #E9E9E8",
"X.	c #838382",
"Y.	c #91918F",
"Z.	c #DDDDDC",
"`.	c #B7B7B4",
" +	c #ADADAC",
".+	c #E0DEDD",
"++	c #E0E0DF",
"@+	c #D2D1D0",
"#+	c #D0CFCE",
"$+	c #E2E1E1",
"%+	c #ABAAA9",
"&+	c #A9A8A8",
"*+	c #DDDCDC",
"=+	c #E2E1E0",
"-+	c #B2B0AF",
";+	c #2F2E2E",
">+	c #949393",
",+	c #A7A6A6",
"'+	c #B9B8B7",
")+	c #E7E7E6",
"!+	c #EEEEEC",
"~+	c #E8E8E8",
"{+	c #B3B3B2",
"]+	c #A2A1A0",
"^+	c #C9C9C8",
"/+	c #A1A0A0",
"(+	c #9A9998",
"_+	c #AEAEAC",
":+	c #DAD9D7",
"<+	c #E4E4E3",
"[+	c #CAC9C8",
"}+	c #B1B1B0",
"|+	c #8B8B8A",
"1+	c #838181",
"2+	c #898988",
"3+	c #8A8A89",
"4+	c #DBDAD9",
"5+	c #CBCAC9",
"6+	c #BDBCBB",
". . . . . . . . . . . . . . . . . . . . . ",
". . . . . . . . + @ # @ + . . . . . . . . ",
". . . . . . $ % & * = - & % $ . . . . . . ",
". . . . . # ; > , , ' ) ! ~ { # . . . . . ",
". . . . @ ] ^ / ( ( ( ( ( _ : < @ . . . . ",
". . . [ } | 1 2 2 3 4 5 2 2 6 7 } [ . . . ",
". . . @ 8 9 . . # 0 a b c . . d e @ . . . ",
". . . f g h i j k l m n o p i q r f . . . ",
". . . s 8 t u v w x y / z A u B C s . . . ",
". . . D E F G H I J K K L M G N O D . . . ",
". . . P Q R S T U V V V V W S X Y P . . . ",
". . . # Z `  ...+.+.+.+.+.@.#.$.Z # . . . ",
". . . . %.&.*.=.-.;.;.;.;.>.,.'.%.. . . . ",
". . . . + ).!.~.{.].^.].{./.!.).+ . . . . ",
". . . . . $ (._.:.<.[.<.}._.(.$ . . . . . ",
". . . . . . |.1.2.3.4.3.2.1.|.. . . . . . ",
". . . . . . . . . 5.+ 5.. . . . . . . . . ",
". . . . . . . . . . . . . . . . . . . . . ",
". . . . . . . . . . . . . . . . . . . . . ",
". . . . . . . . . . . . . . . . . . . . . ",
". . . . . . . . 6.7.i 7.6.. . . . . . . . ",
". . . . . . 7.8.9.0.a.b.9.8.7.. . . . . . ",
". . . . . i c.8.d.e.f.g.h.8.i.i . . . . . ",
". . . . 7.j.H k.l.l.l.l.l.m.n.o.7.. . . . ",
". . . p.q.>.f.r.r.s.t.u.r.r.v.].q.p.. . . ",
". . . 7.w.x.y.y.=.z.A.B.C.y.y.D.E.7.. . . ",
". . . F.G.H.m.I.J.K.) L.M.N.m.6.O.F.. . . ",
". . . P.Q.R.S.T.U./ V.W.X.Y.S.Z.`.P.. . . ",
". . . 8. +.+R.++Z.@+#+#+i $+R.|.%+8.. . . ",
". . . v.&+*+=+-+;+;+;+;+;+>+=+t ,+v.. . . ",
". . . 7.Q.'+9 )+!+!+!+!+!+~+2 {+Q.7.. . . ",
". . . . #+]+^+)++.+.+.+.+.( q./+#+. . . . ",
". . . . 6.0.(+_+:+<+( <+@. +(+0.6.. . . . ",
". . . . . 7.[+}+|+1+2+1+3+}+[+7.. . . . . ",
". . . . . . p.4+5+i.6+i.5+4+p.. . . . . . ",
". . . . . . . . . R.6.R.. . . . . . . . . ",
". . . . . . . . . . . . . . . . . . . . . ",
". . . . . . . . . . . . . . . . . . . . . "};
