/* XPM */
static char * rollupA_xpm[] = {
"21 38 173 2",
"  	c None",
". 	c #E0DFDE",
"+ 	c #DDDCDB",
"@ 	c #DCDCDB",
"# 	c #DCDBDA",
"$ 	c #D1D0CF",
"% 	c #CBCAC9",
"& 	c #D5D5D5",
"* 	c #DCDCDA",
"= 	c #D6D5D5",
"- 	c #C5C5C3",
"; 	c #E2E1E0",
"> 	c #ECEBEA",
", 	c #ECEAE9",
"' 	c #EBEBE9",
") 	c #EDEBEA",
"! 	c #E1E1E0",
"~ 	c #C4C4C3",
"{ 	c #C1C0BF",
"] 	c #E5E5E3",
"^ 	c #E8E8E7",
"/ 	c #E7E7E5",
"( 	c #E9E9E6",
"_ 	c #E6E6E3",
": 	c #C0BFBE",
"< 	c #DFDEDD",
"[ 	c #C8C7C6",
"} 	c #D7D7D4",
"| 	c #E5E5E4",
"1 	c #C2C2C2",
"2 	c #969696",
"3 	c #E3E3E2",
"4 	c #AAA9A8",
"5 	c #ADADAD",
"6 	c #E5E5E5",
"7 	c #D4D4D4",
"8 	c #B9B7B6",
"9 	c #E4E3E2",
"0 	c #31302F",
"a 	c #878584",
"b 	c #A1A19F",
"c 	c #272625",
"d 	c #BDBBBB",
"e 	c #E4E4E3",
"f 	c #B8B7B6",
"g 	c #D5D5D4",
"h 	c #BBBABA",
"i 	c #E0DFDF",
"j 	c #DFDEDE",
"k 	c #31302E",
"l 	c #62615F",
"m 	c #C3C3C1",
"n 	c #E1E0DF",
"o 	c #B9B8B8",
"p 	c #CFCECD",
"q 	c #DDDBDA",
"r 	c #D9D7D6",
"s 	c #DEDDDC",
"t 	c #282727",
"u 	c #BFBEBC",
"v 	c #DDDBDB",
"w 	c #B7B6B4",
"x 	c #ACACAB",
"y 	c #DAD9D8",
"z 	c #D5D4D2",
"A 	c #D3D2D0",
"B 	c #C8C7C5",
"C 	c #CECDCC",
"D 	c #DFDFDE",
"E 	c #D2D1CF",
"F 	c #D2D2D0",
"G 	c #DBDAD8",
"H 	c #D8D7D6",
"I 	c #A9A8A8",
"J 	c #D8D6D6",
"K 	c #D1D0CE",
"L 	c #A5A3A2",
"M 	c #2D2C2B",
"N 	c #2D2C2C",
"O 	c #898987",
"P 	c #D8D7D5",
"Q 	c #A7A6A6",
"R 	c #B8B8B7",
"S 	c #B4B3B2",
"T 	c #D2CFCE",
"U 	c #D6D4D3",
"V 	c #EAEAE9",
"W 	c #D9D8D7",
"X 	c #D3D1D0",
"Y 	c #AFAEAD",
"Z 	c #D0CFCE",
"` 	c #A2A1A0",
" .	c #C2C2C0",
"..	c #CECDCB",
"+.	c #CFCDCB",
"@.	c #CFCDCC",
"#.	c #CFCECC",
"$.	c #A1A0A0",
"%.	c #C5C4C3",
"&.	c #9A9998",
"*.	c #A7A7A5",
"=.	c #CCCCCB",
"-.	c #CDCCCB",
";.	c #CCCBC9",
">.	c #A6A5A4",
",.	c #CAC9C8",
"'.	c #B1B1B0",
").	c #8B8B8A",
"!.	c #838181",
"~.	c #888887",
"{.	c #8A8A89",
"].	c #DBDAD9",
"^.	c #C0C0BF",
"/.	c #BDBCBB",
"(.	c #C1C0BE",
"_.	c #CAC9C7",
":.	c #C5C3C3",
"<.	c #C1C1BF",
"[.	c #E1E0DE",
"}.	c #DBDBD8",
"|.	c #D7D6D5",
"1.	c #DBDAD7",
"2.	c #E2E0DF",
"3.	c #BFBDBC",
"4.	c #DADAD9",
"5.	c #D6D5D4",
"6.	c #CCCAC9",
"7.	c #D7D6D4",
"8.	c #DCDBD9",
"9.	c #BEBDBC",
"0.	c #B2B1AF",
"a.	c #8A8988",
"b.	c #D0CECC",
"c.	c #9C9A98",
"d.	c #9F9E9C",
"e.	c #B8B6B5",
"f.	c #E0E0DD",
"g.	c #2F2E2D",
"h.	c #7F7E7D",
"i.	c #989895",
"j.	c #262524",
"k.	c #B4B2B1",
"l.	c #E0E0DE",
"m.	c #B7B6B5",
"n.	c #BBBAB9",
"o.	c #DDDDDB",
"p.	c #D4D4D3",
"q.	c #302F2E",
"r.	c #605F5D",
"s.	c #272624",
"t.	c #DADAD8",
"u.	c #DFDFDD",
"v.	c #BFBFBD",
"w.	c #E2E2E0",
"x.	c #DDDDDC",
"y.	c #B7B7B4",
"z.	c #ADADAC",
"A.	c #E0DEDD",
"B.	c #D7D7D5",
"C.	c #ABAAA9",
"D.	c #DDDCDC",
"E.	c #B2B0AF",
"F.	c #2F2E2E",
"G.	c #949393",
"H.	c #B9B8B7",
"I.	c #E7E7E6",
"J.	c #EEEEEC",
"K.	c #E8E8E8",
"L.	c #B3B3B2",
"M.	c #C9C9C8",
"N.	c #AEAEAC",
"O.	c #DAD9D7",
"P.	c #898988",
". . . . . . . . . . . . . . . . . . . . . ",
". . . . . . . . + @ # @ + . . . . . . . . ",
". . . . . . @ $ % & * = % $ @ . . . . . . ",
". . . . . # - ; > > , ' ) ! ~ # . . . . . ",
". . . . @ { ] ^ / / / / / ( _ : @ . . . . ",
". . . < [ } | 1 2 3 3 3 4 5 6 7 [ < . . . ",
". . . @ 8 9 . % 0 a . b c d . e f @ . . . ",
". . . g h i # j g k l c m ! # n o g . . . ",
". . . p f q r r s g t u n r r v w p . . . ",
". . . $ x y z A B C D E B F z G 4 $ . . . ",
". . . H I J K L M M N M M O K P Q H . . . ",
". . . @ R S T U V V V V V W X Y R @ . . . ",
". . . . Z `  ...+.@.@.@.@.#.{ $.Z . . . . ",
". . . . + %.&.*.=.-.;.-.=.>.&.%.+ . . . . ",
". . . . . @ ,.'.).!.~.!.{.'.,.@ . . . . . ",
". . . . . . < ].% ^./.^.% ].< . . . . . . ",
". . . . . . . . . s + s . . . . . . . . . ",
". . . . . . . . . . . . . . . . . . . . . ",
". . . . . . . . . . . . . . . . . . . . . ",
". . . . . . . . . . . . . . . . . . . . . ",
". . . . . . . . + @ # @ + . . . . . . . . ",
". . . . . . @ $ (.%._.:.(.$ @ . . . . . . ",
". . . . . # <.$ [.}.|.1.2.$ ^.# . . . . . ",
". . . . @ 3.4.5.6.6.6.6.6.7.8.9.@ . . . . ",
". . . < [ #.|.0.a.b.b.b.c.d.H -.[ < . . . ",
". . . @ e.f.A ^.g.h.A i.j.k.A l.m.@ . . . ",
". . . g n.o.7.].p.q.r.s. .s 7.+ f g . . . ",
". . . p R s t.t.u.g t v.w.t.t.x.y.p . . . ",
". . . $ z.A.s # Z p.D B.Z ].s D C.$ . . . ",
". . . H I D.; E.F.F.F.F.F.G.; q Q H . . . ",
". . . @ R H.9 I.J.J.J.J.J.K.3 L.R @ . . . ",
". . . . Z ` M.I.V V V V V / [ $.Z . . . . ",
". . . . + %.&.N.O.e / e W z.&.%.+ . . . . ",
". . . . . @ ,.'.).!.P.!.{.'.,.@ . . . . . ",
". . . . . . < ].% ^./.^.% ].< . . . . . . ",
". . . . . . . . . s + s . . . . . . . . . ",
". . . . . . . . . . . . . . . . . . . . . ",
". . . . . . . . . . . . . . . . . . . . . "};
