/* XPM */
static char * rollupI_xpm[] = {
"21 38 164 2",
"  	c None",
". 	c #E0DFDE",
"+ 	c #DDDCDB",
"@ 	c #DCDCDB",
"# 	c #DCDBDA",
"$ 	c #D1D0CF",
"% 	c #CBCAC9",
"& 	c #D5D5D5",
"* 	c #DCDCDA",
"= 	c #D6D5D5",
"- 	c #C5C5C3",
"; 	c #E2E1E0",
"> 	c #ECEBEA",
", 	c #ECEAE9",
"' 	c #EBEBE9",
") 	c #EDEBEA",
"! 	c #E1E1E0",
"~ 	c #C4C4C3",
"{ 	c #C1C0BF",
"] 	c #E5E5E3",
"^ 	c #E8E8E7",
"/ 	c #E7E7E5",
"( 	c #E9E9E6",
"_ 	c #E6E6E3",
": 	c #C0BFBE",
"< 	c #DFDEDD",
"[ 	c #C8C7C6",
"} 	c #D7D7D4",
"| 	c #E5E5E4",
"1 	c #C3C3C2",
"2 	c #E3E3E2",
"3 	c #CBCBCA",
"4 	c #CCCCCC",
"5 	c #E5E5E5",
"6 	c #D4D4D4",
"7 	c #B9B7B6",
"8 	c #E4E3E2",
"9 	c #D8D7D6",
"0 	c #999897",
"a 	c #BCBAB9",
"b 	c #C6C6C4",
"c 	c #959493",
"d 	c #D2D1D1",
"e 	c #E4E4E3",
"f 	c #B8B7B6",
"g 	c #D5D5D4",
"h 	c #BBBABA",
"i 	c #E0DFDF",
"j 	c #DFDEDE",
"k 	c #E2E2E1",
"l 	c #999896",
"m 	c #ABABA9",
"n 	c #DBDAD9",
"o 	c #E1E0DF",
"p 	c #B9B8B8",
"q 	c #CFCECD",
"r 	c #DDDBDA",
"s 	c #D9D7D6",
"t 	c #DEDDDC",
"u 	c #969493",
"v 	c #DDDBDB",
"w 	c #B7B6B4",
"x 	c #ACACAB",
"y 	c #DAD9D8",
"z 	c #D5D4D2",
"A 	c #D4D3D1",
"B 	c #D0CFCD",
"C 	c #D6D5D4",
"D 	c #E7E7E6",
"E 	c #DAD9D7",
"F 	c #D4D4D2",
"G 	c #DBDAD8",
"H 	c #AAA9A8",
"I 	c #A9A8A8",
"J 	c #D8D6D6",
"K 	c #D1D0CE",
"L 	c #969593",
"M 	c #969594",
"N 	c #B7B7B4",
"O 	c #D8D7D5",
"P 	c #A7A6A6",
"Q 	c #B8B8B7",
"R 	c #B4B3B2",
"S 	c #D2CFCE",
"T 	c #D6D4D3",
"U 	c #EAEAE9",
"V 	c #D9D8D7",
"W 	c #D3D1D0",
"X 	c #AFAEAD",
"Y 	c #D0CFCE",
"Z 	c #A2A1A0",
"` 	c #C2C2C0",
" .	c #CECDCB",
"..	c #CFCDCB",
"+.	c #CFCDCC",
"@.	c #CFCECC",
"#.	c #A1A0A0",
"$.	c #C5C4C3",
"%.	c #9A9998",
"&.	c #A7A7A5",
"*.	c #CCCCCB",
"=.	c #CDCCCB",
"-.	c #CCCBC9",
";.	c #A6A5A4",
">.	c #CAC9C8",
",.	c #B1B1B0",
"'.	c #8B8B8A",
").	c #838181",
"!.	c #888887",
"~.	c #8A8A89",
"{.	c #C0C0BF",
"].	c #BDBCBB",
"^.	c #C1C0BE",
"/.	c #CAC9C7",
"(.	c #C5C3C3",
"_.	c #C1C1BF",
":.	c #E1E0DE",
"<.	c #DBDBD8",
"[.	c #D7D6D5",
"}.	c #DBDAD7",
"|.	c #E2E0DF",
"1.	c #BFBDBC",
"2.	c #DADAD9",
"3.	c #CCCAC9",
"4.	c #D7D6D4",
"5.	c #DCDBD9",
"6.	c #BEBDBC",
"7.	c #C5C4C2",
"8.	c #D0CECC",
"9.	c #BDBCBA",
"0.	c #BEBDBB",
"a.	c #B8B6B5",
"b.	c #E0E0DD",
"c.	c #D3D2D0",
"d.	c #CDCDCC",
"e.	c #979695",
"f.	c #BDBDBA",
"g.	c #949392",
"h.	c #C9C8C7",
"i.	c #E0E0DE",
"j.	c #B7B6B5",
"k.	c #BBBAB9",
"l.	c #DDDDDB",
"m.	c #989796",
"n.	c #AAA9A7",
"o.	c #959492",
"p.	c #DADAD8",
"q.	c #DFDFDD",
"r.	c #E2E2E0",
"s.	c #DDDDDC",
"t.	c #ADADAC",
"u.	c #E0DEDD",
"v.	c #DFDFDE",
"w.	c #ABAAA9",
"x.	c #DDDCDC",
"y.	c #CECDCC",
"z.	c #C2C1C0",
"A.	c #B9B8B7",
"B.	c #EEEEEC",
"C.	c #E8E8E8",
"D.	c #B3B3B2",
"E.	c #C9C9C8",
"F.	c #AEAEAC",
"G.	c #898988",
". . . . . . . . . . . . . . . . . . . . . ",
". . . . . . . . + @ # @ + . . . . . . . . ",
". . . . . . @ $ % & * = % $ @ . . . . . . ",
". . . . . # - ; > > , ' ) ! ~ # . . . . . ",
". . . . @ { ] ^ / / / / / ( _ : @ . . . . ",
". . . < [ } | & 1 2 2 2 3 4 5 6 [ < . . . ",
". . . @ 7 8 . 9 0 a . b c d . e f @ . . . ",
". . . g h i # j k l m c n ! # o p g . . . ",
". . . q f r s s t k u s o s s v w q . . . ",
". . . $ x y z A B C D E B F z G H $ . . . ",
". . . 9 I J K { L L M L L N K O P 9 . . . ",
". . . @ Q R S T U U U U U V W X Q @ . . . ",
". . . . Y Z `  ...+.+.+.+.@.{ #.Y . . . . ",
". . . . + $.%.&.*.=.-.=.*.;.%.$.+ . . . . ",
". . . . . @ >.,.'.).!.).~.,.>.@ . . . . . ",
". . . . . . < n % {.].{.% n < . . . . . . ",
". . . . . . . . . t + t . . . . . . . . . ",
". . . . . . . . . . . . . . . . . . . . . ",
". . . . . . . . . . . . . . . . . . . . . ",
". . . . . . . . . . . . . . . . . . . . . ",
". . . . . . . . + @ # @ + . . . . . . . . ",
". . . . . . @ $ ^.$./.(.^.$ @ . . . . . . ",
". . . . . # _.$ :.<.[.}.|.$ {.# . . . . . ",
". . . . @ 1.2.C 3.3.3.3.3.4.5.6.@ . . . . ",
". . . < [ @.[.7.w 8.8.8.9.0.9 =.[ < . . . ",
". . . @ a.b.c.d.e.R c.f.g.h.c.i.j.@ . . . ",
". . . g k.l.4.n ! m.n.o.y t 4.+ f g . . . ",
". . . q Q t p.p.q.k u V r.p.p.s.N q . . . ",
". . . $ t.u.t + 9 @ D q.9 + t v.w.$ . . . ",
". . . 9 I x.; y.m.m.m.m.m.z.; r P 9 . . . ",
". . . @ Q A.8 D B.B.B.B.B.C.2 D.Q @ . . . ",
". . . . Y Z E.D U U U U U / [ #.Y . . . . ",
". . . . + $.%.F.E e / e V t.%.$.+ . . . . ",
". . . . . @ >.,.'.).G.).~.,.>.@ . . . . . ",
". . . . . . < n % {.].{.% n < . . . . . . ",
". . . . . . . . . t + t . . . . . . . . . ",
". . . . . . . . . . . . . . . . . . . . . ",
". . . . . . . . . . . . . . . . . . . . . "};
