/* XPM */
static char * rolldownA_xpm[] = {
"21 38 175 2",
"  	c None",
". 	c #E0DFDE",
"+ 	c #DDDCDB",
"@ 	c #DCDCDB",
"# 	c #DCDBDA",
"$ 	c #D1D0CF",
"% 	c #CBCAC9",
"& 	c #D5D5D5",
"* 	c #DCDCDA",
"= 	c #D6D5D5",
"- 	c #C5C5C3",
"; 	c #E2E1E0",
"> 	c #ECEBEA",
", 	c #ECEAE9",
"' 	c #EBEBE9",
") 	c #EDEBEA",
"! 	c #E1E1E0",
"~ 	c #C4C4C3",
"{ 	c #C1C0BF",
"] 	c #E5E5E3",
"^ 	c #E8E8E7",
"/ 	c #E7E7E5",
"( 	c #E9E9E6",
"_ 	c #E6E6E3",
": 	c #C0BFBE",
"< 	c #DFDEDD",
"[ 	c #C8C7C6",
"} 	c #D7D7D4",
"| 	c #E5E5E4",
"1 	c #E3E3E2",
"2 	c #DDDDDC",
"3 	c #4F4D4D",
"4 	c #CFCFCD",
"5 	c #E5E5E5",
"6 	c #D4D4D4",
"7 	c #B9B7B6",
"8 	c #E4E3E2",
"9 	c #DBDAD9",
"0 	c #4E4E4D",
"a 	c #373735",
"b 	c #393938",
"c 	c #D0CFCE",
"d 	c #E4E4E3",
"e 	c #B8B7B6",
"f 	c #D5D5D4",
"g 	c #BBBABA",
"h 	c #E0DFDF",
"i 	c #D7D6D5",
"j 	c #504E4E",
"k 	c #5B5B59",
"l 	c #7B7B79",
"m 	c #393838",
"n 	c #CDCDCC",
"o 	c #E1E0DF",
"p 	c #B9B8B8",
"q 	c #CFCECD",
"r 	c #DDDBDA",
"s 	c #D9D7D6",
"t 	c #ADACAB",
"u 	c #686766",
"v 	c #DBD9D8",
"w 	c #828281",
"x 	c #908F8E",
"y 	c #DDDBDB",
"z 	c #B7B6B4",
"A 	c #ACACAB",
"B 	c #DAD9D8",
"C 	c #D5D4D2",
"D 	c #DAD9D7",
"E 	c #CACAC8",
"F 	c #C8C7C5",
"G 	c #DADAD8",
"H 	c #DBDAD8",
"I 	c #AAA9A8",
"J 	c #D8D7D6",
"K 	c #A9A8A8",
"L 	c #D8D6D6",
"M 	c #D1D0CE",
"N 	c #A5A3A2",
"O 	c #2D2C2C",
"P 	c #2D2C2B",
"Q 	c #8A8988",
"R 	c #D8D7D5",
"S 	c #A7A6A6",
"T 	c #B8B8B7",
"U 	c #B4B3B2",
"V 	c #D2CFCE",
"W 	c #D6D4D3",
"X 	c #EAEAE9",
"Y 	c #D9D8D7",
"Z 	c #D3D1D0",
"` 	c #AFAEAD",
" .	c #A2A1A0",
"..	c #C2C2C0",
"+.	c #CECDCB",
"@.	c #CFCDCB",
"#.	c #CFCDCC",
"$.	c #CFCECC",
"%.	c #A1A0A0",
"&.	c #C5C4C3",
"*.	c #9A9998",
"=.	c #A7A7A5",
"-.	c #CCCCCB",
";.	c #CDCCCB",
">.	c #CCCBC9",
",.	c #A6A5A4",
"'.	c #CAC9C8",
").	c #B1B1B0",
"!.	c #8B8B8A",
"~.	c #838181",
"{.	c #888887",
"].	c #8A8A89",
"^.	c #C0C0BF",
"/.	c #BDBCBB",
"(.	c #DEDDDC",
"_.	c #C1C0BE",
":.	c #CAC9C7",
"<.	c #C5C3C3",
"[.	c #C1C1BF",
"}.	c #E1E0DE",
"|.	c #DBDBD8",
"1.	c #DBDAD7",
"2.	c #E2E0DF",
"3.	c #BFBDBC",
"4.	c #DADAD9",
"5.	c #D6D5D4",
"6.	c #CCCAC9",
"7.	c #D7D6D4",
"8.	c #DCDBD9",
"9.	c #BEBDBC",
"0.	c #D0CECC",
"a.	c #CAC8C6",
"b.	c #494746",
"c.	c #BEBCB9",
"d.	c #B8B6B5",
"e.	c #E0E0DD",
"f.	c #D3D2D0",
"g.	c #4A4A49",
"h.	c #353534",
"i.	c #373736",
"j.	c #C4C3C1",
"k.	c #E0E0DE",
"l.	c #B7B6B5",
"m.	c #BBBAB9",
"n.	c #DDDDDB",
"o.	c #D2D1CF",
"p.	c #4E4D4C",
"q.	c #5A5A58",
"r.	c #7A7A78",
"s.	c #383737",
"t.	c #C9C8C6",
"u.	c #AEAEAD",
"v.	c #E9E9E8",
"w.	c #838382",
"x.	c #91918F",
"y.	c #B7B7B4",
"z.	c #ADADAC",
"A.	c #E0DEDD",
"B.	c #E0E0DF",
"C.	c #D2D1D0",
"D.	c #E2E1E1",
"E.	c #DFDFDE",
"F.	c #ABAAA9",
"G.	c #DDDCDC",
"H.	c #B2B0AF",
"I.	c #2F2E2E",
"J.	c #949393",
"K.	c #B9B8B7",
"L.	c #E7E7E6",
"M.	c #EEEEEC",
"N.	c #E8E8E8",
"O.	c #B3B3B2",
"P.	c #C9C9C8",
"Q.	c #AEAEAC",
"R.	c #898988",
". . . . . . . . . . . . . . . . . . . . . ",
". . . . . . . . + @ # @ + . . . . . . . . ",
". . . . . . @ $ % & * = % $ @ . . . . . . ",
". . . . . # - ; > > , ' ) ! ~ # . . . . . ",
". . . . @ { ] ^ / / / / / ( _ : @ . . . . ",
". . . < [ } | 1 1 2 3 4 1 1 5 6 [ < . . . ",
". . . @ 7 8 . . 9 0 a b c . . d e @ . . . ",
". . . f g h # i j k ' l m n # o p f . . . ",
". . . q e r s t u ^ v ^ w x s y z q . . . ",
". . . $ A B C D # E F F G @ C H I $ . . . ",
". . . J K L M N O P P P P Q M R S J . . . ",
". . . @ T U V W X X X X X Y Z ` T @ . . . ",
". . . . c  ...+.@.#.#.#.#.$.{ %.c . . . . ",
". . . . + &.*.=.-.;.>.;.-.,.*.&.+ . . . . ",
". . . . . @ '.).!.~.{.~.].).'.@ . . . . . ",
". . . . . . < 9 % ^./.^.% 9 < . . . . . . ",
". . . . . . . . . (.+ (.. . . . . . . . . ",
". . . . . . . . . . . . . . . . . . . . . ",
". . . . . . . . . . . . . . . . . . . . . ",
". . . . . . . . . . . . . . . . . . . . . ",
". . . . . . . . + @ # @ + . . . . . . . . ",
". . . . . . @ $ _.&.:.<._.$ @ . . . . . . ",
". . . . . # [.$ }.|.i 1.2.$ ^.# . . . . . ",
". . . . @ 3.4.5.6.6.6.6.6.7.8.9.@ . . . . ",
". . . < [ $.i 0.0.a.b.c.0.0.J ;.[ < . . . ",
". . . @ d.e.f.f.+.g.h.i.j.f.f.k.l.@ . . . ",
". . . f m.n.7.o.p.q.' r.s.t.7.+ e f . . . ",
". . . q T (.G u.u ^ * v.w.x.G 2 y.q . . . ",
". . . $ z.A.(.B.2 C.c c # D.(.E.F.$ . . . ",
". . . J K G.; H.I.I.I.I.I.J.; r S J . . . ",
". . . @ T K.8 L.M.M.M.M.M.N.1 O.T @ . . . ",
". . . . c  .P.L.X X X X X / [ %.c . . . . ",
". . . . + &.*.Q.D d / d Y z.*.&.+ . . . . ",
". . . . . @ '.).!.~.R.~.].).'.@ . . . . . ",
". . . . . . < 9 % ^./.^.% 9 < . . . . . . ",
". . . . . . . . . (.+ (.. . . . . . . . . ",
". . . . . . . . . . . . . . . . . . . . . ",
". . . . . . . . . . . . . . . . . . . . . "};
