/* XPM */
static char * rolldownI_xpm[] = {
"21 38 167 2",
"  	c None",
". 	c #E0DFDE",
"+ 	c #DDDCDB",
"@ 	c #DCDCDB",
"# 	c #DCDBDA",
"$ 	c #D1D0CF",
"% 	c #CBCAC9",
"& 	c #D5D5D5",
"* 	c #DCDCDA",
"= 	c #D6D5D5",
"- 	c #C5C5C3",
"; 	c #E2E1E0",
"> 	c #ECEBEA",
", 	c #ECEAE9",
"' 	c #EBEBE9",
") 	c #EDEBEA",
"! 	c #E1E1E0",
"~ 	c #C4C4C3",
"{ 	c #C1C0BF",
"] 	c #E5E5E3",
"^ 	c #E8E8E7",
"/ 	c #E7E7E5",
"( 	c #E9E9E6",
"_ 	c #E6E6E3",
": 	c #C0BFBE",
"< 	c #DFDEDD",
"[ 	c #C8C7C6",
"} 	c #D7D7D4",
"| 	c #E5E5E4",
"1 	c #E3E3E2",
"2 	c #A5A5A3",
"3 	c #DADAD9",
"4 	c #E5E5E5",
"5 	c #D4D4D4",
"6 	c #B9B7B6",
"7 	c #E4E3E2",
"8 	c #DEDDDC",
"9 	c #A5A4A3",
"0 	c #9C9B9A",
"a 	c #D9D9D8",
"b 	c #E4E4E3",
"c 	c #B8B7B6",
"d 	c #D5D5D4",
"e 	c #BBBABA",
"f 	c #E0DFDF",
"g 	c #DAD9D8",
"h 	c #A5A3A3",
"i 	c #ABAAA9",
"j 	c #EDEDEB",
"k 	c #B9B9B7",
"l 	c #9B9B9A",
"m 	c #D6D6D5",
"n 	c #E1E0DF",
"o 	c #B9B8B8",
"p 	c #CFCECD",
"q 	c #DDDBDA",
"r 	c #D9D7D6",
"s 	c #B0AFAE",
"t 	c #EAEAE9",
"u 	c #DBD9D8",
"v 	c #BCBBBA",
"w 	c #BDBCBA",
"x 	c #DDDBDB",
"y 	c #B7B6B4",
"z 	c #ACACAB",
"A 	c #D5D4D2",
"B 	c #DBDAD8",
"C 	c #D2D2D0",
"D 	c #D0CFCD",
"E 	c #E2E2E0",
"F 	c #DEDEDD",
"G 	c #AAA9A8",
"H 	c #D8D7D6",
"I 	c #A9A8A8",
"J 	c #D8D6D6",
"K 	c #D1D0CE",
"L 	c #969594",
"M 	c #969593",
"N 	c #B8B7B5",
"O 	c #D8D7D5",
"P 	c #A7A6A6",
"Q 	c #B8B8B7",
"R 	c #B4B3B2",
"S 	c #D2CFCE",
"T 	c #D6D4D3",
"U 	c #D9D8D7",
"V 	c #D3D1D0",
"W 	c #AFAEAD",
"X 	c #D0CFCE",
"Y 	c #A2A1A0",
"Z 	c #C2C2C0",
"` 	c #CECDCB",
" .	c #CFCDCB",
"..	c #CFCDCC",
"+.	c #CFCECC",
"@.	c #A1A0A0",
"#.	c #C5C4C3",
"$.	c #9A9998",
"%.	c #A7A7A5",
"&.	c #CCCCCB",
"*.	c #CDCCCB",
"=.	c #CCCBC9",
"-.	c #A6A5A4",
";.	c #CAC9C8",
">.	c #B1B1B0",
",.	c #8B8B8A",
"'.	c #838181",
").	c #888887",
"!.	c #8A8A89",
"~.	c #DBDAD9",
"{.	c #C0C0BF",
"].	c #BDBCBB",
"^.	c #C1C0BE",
"/.	c #CAC9C7",
"(.	c #C5C3C3",
"_.	c #C1C1BF",
":.	c #E1E0DE",
"<.	c #DBDBD8",
"[.	c #D7D6D5",
"}.	c #DBDAD7",
"|.	c #E2E0DF",
"1.	c #BFBDBC",
"2.	c #D6D5D4",
"3.	c #CCCAC9",
"4.	c #D7D6D4",
"5.	c #DCDBD9",
"6.	c #BEBDBC",
"7.	c #D0CECC",
"8.	c #CECCCA",
"9.	c #A09F9D",
"0.	c #CAC8C5",
"a.	c #B8B6B5",
"b.	c #E0E0DD",
"c.	c #D3D2D0",
"d.	c #A1A09F",
"e.	c #9A9999",
"f.	c #CDCDCB",
"g.	c #E0E0DE",
"h.	c #B7B6B5",
"i.	c #BBBAB9",
"j.	c #DDDDDB",
"k.	c #A3A2A1",
"l.	c #B8B8B6",
"m.	c #9A9A99",
"n.	c #D2D1CF",
"o.	c #DADAD8",
"p.	c #C9C9C8",
"q.	c #E9E9E8",
"r.	c #BEBEBB",
"s.	c #DDDDDC",
"t.	c #B7B7B4",
"u.	c #ADADAC",
"v.	c #E0DEDD",
"w.	c #E4E3E3",
"x.	c #DFDFDE",
"y.	c #DDDCDC",
"z.	c #CECDCC",
"A.	c #989796",
"B.	c #C2C1C0",
"C.	c #B9B8B7",
"D.	c #E7E7E6",
"E.	c #EEEEEC",
"F.	c #E8E8E8",
"G.	c #B3B3B2",
"H.	c #AEAEAC",
"I.	c #DAD9D7",
"J.	c #898988",
". . . . . . . . . . . . . . . . . . . . . ",
". . . . . . . . + @ # @ + . . . . . . . . ",
". . . . . . @ $ % & * = % $ @ . . . . . . ",
". . . . . # - ; > > , ' ) ! ~ # . . . . . ",
". . . . @ { ] ^ / / / / / ( _ : @ . . . . ",
". . . < [ } | 1 1 ! 2 3 1 1 4 5 [ < . . . ",
". . . @ 6 7 . . 8 9 0 0 a . . b c @ . . . ",
". . . d e f # g h i j k l m # n o d . . . ",
". . . p c q r [ s t u ^ v w r x y p . . . ",
". . . $ z g A B 7 C D D E F A B G $ . . . ",
". . . H I J K { L M M M M N K O P H . . . ",
". . . @ Q R S T t t t t t U V W Q @ . . . ",
". . . . X Y Z `  .........+.{ @.X . . . . ",
". . . . + #.$.%.&.*.=.*.&.-.$.#.+ . . . . ",
". . . . . @ ;.>.,.'.).'.!.>.;.@ . . . . . ",
". . . . . . < ~.% {.].{.% ~.< . . . . . . ",
". . . . . . . . . 8 + 8 . . . . . . . . . ",
". . . . . . . . . . . . . . . . . . . . . ",
". . . . . . . . . . . . . . . . . . . . . ",
". . . . . . . . . . . . . . . . . . . . . ",
". . . . . . . . + @ # @ + . . . . . . . . ",
". . . . . . @ $ ^.#./.(.^.$ @ . . . . . . ",
". . . . . # _.$ :.<.[.}.|.$ {.# . . . . . ",
". . . . @ 1.3 2.3.3.3.3.3.4.5.6.@ . . . . ",
". . . < [ +.[.7.7.8.9.0.7.7.H *.[ < . . . ",
". . . @ a.b.c.c.K d.e.$.f.c.c.g.h.@ . . . ",
". . . d i.j.4.A k.G j l.m.n.4.+ c d . . . ",
". . . p Q 8 o.p.s t * q.].r.o.s.t.p . . . ",
". . . $ u.v.8 ! | g H H 7 w.8 x.i $ . . . ",
". . . H I y.; z.A.A.A.A.A.B.; q P H . . . ",
". . . @ Q C.7 D.E.E.E.E.E.F.1 G.Q @ . . . ",
". . . . X Y p.D.t t t t t / [ @.X . . . . ",
". . . . + #.$.H.I.b / b U u.$.#.+ . . . . ",
". . . . . @ ;.>.,.'.J.'.!.>.;.@ . . . . . ",
". . . . . . < ~.% {.].{.% ~.< . . . . . . ",
". . . . . . . . . 8 + 8 . . . . . . . . . ",
". . . . . . . . . . . . . . . . . . . . . ",
". . . . . . . . . . . . . . . . . . . . . "};
