/* XPM */
static char * closeI_xpm[] = {
"25 36 245 2",
"  	c None",
". 	c #8F8F8F",
"+ 	c #8D8C8C",
"@ 	c #8C8C8D",
"# 	c #8C8D8D",
"$ 	c #8D8D8C",
"% 	c #8D8D8D",
"& 	c #8D8C8D",
"* 	c #8C8C8C",
"= 	c #8C8D8C",
"- 	c #3A482E",
"; 	c #39462D",
"> 	c #38452D",
", 	c #38442D",
"' 	c #37432C",
") 	c #37422C",
"! 	c #36412C",
"~ 	c #36402C",
"{ 	c #353F2C",
"] 	c #353E2C",
"^ 	c #343D2C",
"/ 	c #303829",
"( 	c #2F3829",
"_ 	c #2F3729",
": 	c #373D31",
"< 	c #444344",
"[ 	c #898989",
"} 	c #898A8A",
"| 	c #898889",
"1 	c #888888",
"2 	c #B6E38C",
"3 	c #CCFF9D",
"4 	c #CDFF9D",
"5 	c #CDFF9E",
"6 	c #CDFF9F",
"7 	c #CEFFA0",
"8 	c #CFFFA1",
"9 	c #D0FFA1",
"0 	c #D0FFA2",
"a 	c #A7C889",
"b 	c #3B3B3A",
"c 	c #868686",
"d 	c #858585",
"e 	c #A1C381",
"f 	c #CFFFA2",
"g 	c #D0FFA3",
"h 	c #D0FFA4",
"i 	c #8AA46F",
"j 	c #3F3F3F",
"k 	c #6C6C6C",
"l 	c #8AA86E",
"m 	c #CCFF9C",
"n 	c #CBFF9C",
"o 	c #BAE193",
"p 	c #303030",
"q 	c #6C6B6C",
"r 	c #6A9146",
"s 	c #B0FF67",
"t 	c #B1FF68",
"u 	c #B1FF67",
"v 	c #B2FF68",
"w 	c #AEF767",
"x 	c #2D2D2D",
"y 	c #6A6A6B",
"z 	c #6A6B6B",
"A 	c #6B6B6B",
"B 	c #568529",
"C 	c #92FF29",
"D 	c #84E129",
"E 	c #6A6A6A",
"F 	c #6A696A",
"G 	c #696A6A",
"H 	c #6A6A69",
"I 	c #609B29",
"J 	c #609629",
"K 	c #2F2F2F",
"L 	c #686969",
"M 	c #686968",
"N 	c #696869",
"O 	c #686869",
"P 	c #6DB429",
"Q 	c #87E929",
"R 	c #31362B",
"S 	c #3D3D3D",
"T 	c #686767",
"U 	c #676868",
"V 	c #686868",
"W 	c #67A629",
"X 	c #78CA29",
"Y 	c #78C929",
"Z 	c #77C929",
"` 	c #3F542B",
" .	c #333333",
"..	c #676767",
"+.	c #2E2E2E",
"@.	c #2C2C2C",
"#.	c #2B2B2B",
"$.	c #292929",
"%.	c #383838",
"&.	c #666666",
"*.	c #666767",
"=.	c #656565",
"-.	c #656665",
";.	c #666665",
">.	c #646464",
",.	c #636464",
"'.	c #636364",
").	c #646364",
"!.	c #636263",
"~.	c #626363",
"{.	c #636363",
"].	c #626263",
"^.	c #636362",
"/.	c #636262",
"(.	c #626262",
"_.	c #626162",
":.	c #626161",
"<.	c #626261",
"[.	c #616161",
"}.	c #616261",
"|.	c #616162",
"1.	c #616262",
"2.	c #606161",
"3.	c #606060",
"4.	c #606061",
"5.	c #616061",
"6.	c #616160",
"7.	c #616060",
"8.	c #606160",
"9.	c #E9FFD4",
"0.	c #E7FFD2",
"a.	c #E6FFD0",
"b.	c #E5FFCE",
"c.	c #E4FFCC",
"d.	c #E3FFCA",
"e.	c #E2FFC9",
"f.	c #E1FFC6",
"g.	c #E0FFC5",
"h.	c #DFFFC2",
"i.	c #DEFFC0",
"j.	c #DDFFBE",
"k.	c #DCFFBB",
"l.	c #DAFFB9",
"m.	c #DAFFB7",
"n.	c #D8FFB5",
"o.	c #D7FFB2",
"p.	c #E9FFD5",
"q.	c #E8FFD4",
"r.	c #E7FFD1",
"s.	c #E5FFD0",
"t.	c #E4FFCE",
"u.	c #E4FFCB",
"v.	c #E3FFC9",
"w.	c #E2FFC6",
"x.	c #DDFFBD",
"y.	c #DBFFBB",
"z.	c #DAFFB8",
"A.	c #D9FFB5",
"B.	c #D7FFB3",
"C.	c #D5FFB1",
"D.	c #E4FFCD",
"E.	c #E4FFCA",
"F.	c #E2FFCA",
"G.	c #E1FFC7",
"H.	c #DFFFC3",
"I.	c #D5FFB0",
"J.	c #D5FFAD",
"K.	c #D3FFA9",
"L.	c #D6FFB1",
"M.	c #D5FFAF",
"N.	c #D3FFAB",
"O.	c #D0FFA6",
"P.	c #CBFF9B",
"Q.	c #CAFF97",
"R.	c #C8FF94",
"S.	c #C5FF90",
"T.	c #C4FF8C",
"U.	c #C1FF87",
"V.	c #BFFF81",
"W.	c #BCFF7D",
"X.	c #B9FF79",
"Y.	c #CAFF98",
"Z.	c #C5FF8F",
"`.	c #C3FF8A",
" +	c #C0FF84",
".+	c #BDFF7E",
"++	c #BBFF7B",
"@+	c #B8FF75",
"#+	c #B5FF6F",
"$+	c #B2FF69",
"%+	c #AFFF63",
"&+	c #ACFF5D",
"*+	c #A9FF57",
"=+	c #A6FF51",
"-+	c #A3FF4A",
";+	c #9FFF43",
">+	c #9BFF3D",
",+	c #C8FF95",
"'+	c #C6FF90",
")+	c #C0FF86",
"!+	c #BCFF7C",
"~+	c #B9FF77",
"{+	c #B6FF72",
"]+	c #B4FF6B",
"^+	c #B0FF66",
"/+	c #ADFF60",
"(+	c #ABFF59",
"_+	c #A7FF53",
":+	c #A4FF4D",
"<+	c #A1FF48",
"[+	c #9DFF3F",
"}+	c #9AFF38",
"|+	c #C7FF91",
"1+	c #C5FF8C",
"2+	c #C2FF87",
"3+	c #C0FF83",
"4+	c #BCFF7E",
"5+	c #BBFF78",
"6+	c #B7FF73",
"7+	c #B5FF6D",
"8+	c #AFFF62",
"9+	c #ABFF5C",
"0+	c #A8FF55",
"a+	c #A5FF4F",
"b+	c #A2FF48",
"c+	c #9EFF42",
"d+	c #9BFF3B",
"e+	c #98FF34",
"f+	c #B8E28F",
"g+	c #B5E18A",
"h+	c #B1DF84",
"i+	c #AFDE7F",
"j+	c #ABDD7B",
"k+	c #A6DB74",
"l+	c #A4DA6F",
"m+	c #A1D86A",
"n+	c #9CD663",
"o+	c #99D55E",
"p+	c #95D457",
"q+	c #91D252",
"r+	c #8DD14B",
"s+	c #88CF45",
"t+	c #84CD3D",
"u+	c #80CB36",
"v+	c #7DCA31",
". . . . . . . . . . . . . . . . . . . . . . . . . ",
"+ + @ # $ % & & * % % @ & * # % + & * # % & # = @ ",
"- ; > , , ' ) ! ~ { ] ^ ^ ^ / ( _ : < [ [ [ } | 1 ",
"2 3 3 3 4 5 6 6 7 7 7 7 8 9 9 0 0 0 a b c c d c c ",
"e f f f g g 0 0 0 0 0 0 0 g f g g h h i j k k k k ",
"l m m m m n 3 3 3 3 3 5 4 4 3 3 5 4 4 o p k k q k ",
"r s s s t t u u u u u v v v t t t t t w x y y z A ",
"B C C C C C C C C C C C C C C C C C C D x E F G H ",
"I C C C C C C C C C C C C C C C C C C J K L M N O ",
"P C C C C C C C C C C C C C C C C C Q R S T U V U ",
"W X X X Y Z Z Y Y Y Y Y Y Z Z Z Z X `  ...........",
"+.+.+.x @.#.#.#.#.#.#.#.#.#.$.$.$.+.%.&.&.&.*.*.&.",
"=.=.=.=.=.=.=.=.=.=.=.=.-.=.=.=.-.;.=.=.=.=.=.=.=.",
">.>.>.>.>.>.>.>.>.,.'.).,.>.>.>.>.>.>.>.>.>.>.>.).",
"!.!.~.{.{.{.!.{.{.{.{.].^./.~.{.^.].!.{.{.].{.^.^.",
"(.(.(.(.(.(.(.(.(.(.(.(.(.(.(.(.(.(.(.(.(.(.(.(.(.",
"_._.:.<.:.<.<.:._.:._._.[.[.}.<.<.|.(.}.(._.1.(.(.",
"2.2.3.[.2.2.2.4.5.6.7.7.4.3.3.3.4.3.8.3.3.7.3.8.3.",
". . . . . . . . . . . . . . . . . . . . . . . . . ",
"+ + @ # $ % & & * % % @ & * # % + & * # % & # = @ ",
"- ; > , , ' ) ! ~ { ] ^ ^ ^ / ( _ : < [ [ [ } | 1 ",
"2 9.0.a.b.c.d.e.f.g.h.i.j.k.l.m.n.o.a b c c d c c ",
"e p.q.r.s.t.u.v.w.g.h.i.x.y.z.A.B.C.h i j k k k k ",
"l r.a.D.E.F.G.g.H.i.x.y.z.n.B.I.J.K.4 o p k k q k ",
"r m.n.L.M.N.O.g 6 P.Q.R.S.T.U.V.W.X.t w x y y z A ",
"B Y.R.Z.`. +.+++@+#+$+%+&+*+=+-+;+>+C D x E F G H ",
"I ,+'+T.)+V.!+~+{+]+^+/+(+_+:+<+[+}+C J K L M N O ",
"P |+1+2+3+4+5+6+7+u 8+9+0+a+b+c+d+e+Q R S T U V U ",
"W f+g+h+i+j+k+l+m+n+o+p+q+r+s+t+u+v+`  ...........",
"+.+.+.x @.#.#.#.#.#.#.#.#.#.$.$.$.+.%.&.&.&.*.*.&.",
"=.=.=.=.=.=.=.=.=.=.=.=.-.=.=.=.-.;.=.=.=.=.=.=.=.",
">.>.>.>.>.>.>.>.>.,.'.).,.>.>.>.>.>.>.>.>.>.>.>.).",
"!.!.~.{.{.{.!.{.{.{.{.].^./.~.{.^.].!.{.{.].{.^.^.",
"(.(.(.(.(.(.(.(.(.(.(.(.(.(.(.(.(.(.(.(.(.(.(.(.(.",
"_._.:.<.:.<.<.:._.:._._.[.[.}.<.<.|.(.}.(._.1.(.(.",
"2.2.3.[.2.2.2.4.5.6.7.7.4.3.3.3.4.3.8.3.3.7.3.8.3."};
