/* XPM */
static char * closeA_xpm[] = {
"25 36 265 2",
"  	c None",
". 	c #7A7A7A",
"+ 	c #787777",
"@ 	c #777778",
"# 	c #777878",
"$ 	c #787877",
"% 	c #787878",
"& 	c #787778",
"* 	c #777777",
"= 	c #777877",
"- 	c #152506",
"; 	c #142305",
"> 	c #132205",
", 	c #132105",
"' 	c #111F04",
") 	c #111E04",
"! 	c #101D04",
"~ 	c #101C04",
"{ 	c #0F1B04",
"] 	c #0F1A04",
"^ 	c #0E1904",
"/ 	c #0E1804",
"( 	c #091300",
"_ 	c #081200",
": 	c #081100",
"< 	c #11190A",
"[ 	c #212021",
"} 	c #737373",
"| 	c #737474",
"1 	c #737273",
"2 	c #727272",
"3 	c #A9DE77",
"4 	c #C3FF8B",
"5 	c #C4FF8B",
"6 	c #C4FF8C",
"7 	c #C4FF8D",
"8 	c #C5FF8E",
"9 	c #C6FF8F",
"0 	c #C7FF8F",
"a 	c #C7FF90",
"b 	c #C7FF91",
"c 	c #97BE73",
"d 	c #161615",
"e 	c #6F6F6F",
"f 	c #6E6E6E",
"g 	c #6F6F70",
"h 	c #8FB869",
"i 	c #C6FF91",
"j 	c #C7FF92",
"k 	c #C7FF93",
"l 	c #749354",
"m 	c #1B1B1B",
"n 	c #515151",
"o 	c #749853",
"p 	c #C3FF8A",
"q 	c #C2FF8A",
"r 	c #ADDC7F",
"s 	c #090909",
"t 	c #505050",
"u 	c #504F50",
"v 	c #4E7C23",
"w 	c #A2FF4A",
"x 	c #A2FF4B",
"y 	c #A3FF4C",
"z 	c #A3FF4B",
"A 	c #A4FF4C",
"B 	c #9FF64B",
"C 	c #050505",
"D 	c #4E4E4F",
"E 	c #4E4F4F",
"F 	c #4F4F4F",
"G 	c #366E00",
"H 	c #7EFF00",
"I 	c #6DDC00",
"J 	c #4E4E4E",
"K 	c #4E4D4E",
"L 	c #4D4E4E",
"M 	c #4E4E4D",
"N 	c #428800",
"O 	c #428301",
"P 	c #080808",
"Q 	c #4C4D4D",
"R 	c #4C4D4C",
"S 	c #4D4C4D",
"T 	c #4C4C4D",
"U 	c #52A600",
"V 	c #71E500",
"W 	c #0A1003",
"X 	c #191919",
"Y 	c #4C4B4B",
"Z 	c #4B4C4C",
"` 	c #4C4C4C",
" .	c #4A9600",
"..	c #5FC001",
"+.	c #5FBF00",
"@.	c #5EBF00",
"#.	c #1B3403",
"$.	c #0C0C0C",
"%.	c #4A4A4A",
"&.	c #4B4B4B",
"*.	c #060606",
"=.	c #040404",
"-.	c #030303",
";.	c #000000",
">.	c #131313",
",.	c #494949",
"'.	c #494A4A",
").	c #484848",
"!.	c #484948",
"~.	c #494948",
"{.	c #474747",
"].	c #464747",
"^.	c #464647",
"/.	c #474647",
"(.	c #464546",
"_.	c #454646",
":.	c #464646",
"<.	c #454546",
"[.	c #464645",
"}.	c #464545",
"|.	c #444545",
"1.	c #454544",
"2.	c #454545",
"3.	c #444444",
"4.	c #444445",
"5.	c #454445",
"6.	c #444544",
"7.	c #444344",
"8.	c #444343",
"9.	c #444443",
"0.	c #434343",
"a.	c #434443",
"b.	c #434344",
"c.	c #434444",
"d.	c #424343",
"e.	c #424242",
"f.	c #424243",
"g.	c #434243",
"h.	c #434342",
"i.	c #434242",
"j.	c #424342",
"k.	c #E5FFCC",
"l.	c #E3FFCA",
"m.	c #E2FFC8",
"n.	c #E1FFC5",
"o.	c #E0FFC3",
"p.	c #DEFFC1",
"q.	c #DDFFBF",
"r.	c #DCFFBC",
"s.	c #DBFFBB",
"t.	c #DAFFB7",
"u.	c #D8FFB4",
"v.	c #D7FFB2",
"w.	c #D6FFAE",
"x.	c #D4FFAC",
"y.	c #D4FFAA",
"z.	c #D1FFA7",
"A.	c #D0FFA4",
"B.	c #E5FFCE",
"C.	c #E4FFCC",
"D.	c #E3FFC9",
"E.	c #E1FFC7",
"F.	c #E0FFC5",
"G.	c #E0FFC2",
"H.	c #DEFFBF",
"I.	c #DDFFBC",
"J.	c #DBFFBA",
"K.	c #D9FFB7",
"L.	c #D7FFB1",
"M.	c #D5FFAF",
"N.	c #D3FFAB",
"O.	c #D2FFA8",
"P.	c #D0FFA5",
"Q.	c #CEFFA3",
"R.	c #E2FFC7",
"S.	c #E0FFC4",
"T.	c #E0FFC1",
"U.	c #DDFFC0",
"V.	c #DCFFBD",
"W.	c #D9FFB8",
"X.	c #D5FFAE",
"Y.	c #D4FFAB",
"Z.	c #D1FFA8",
"`.	c #CEFFA1",
" +	c #CDFF9E",
".+	c #CBFF99",
"++	c #D3FFAA",
"@+	c #CFFFA3",
"#+	c #CEFFA0",
"$+	c #CBFF9B",
"%+	c #C8FF96",
"&+	c #C2FF89",
"*+	c #C0FF84",
"=+	c #BEFF80",
"-+	c #BBFF7B",
";+	c #B9FF77",
">+	c #B6FF71",
",+	c #B3FF6A",
"'+	c #B0FF65",
")+	c #ACFF60",
"!+	c #C0FF85",
"~+	c #BAFF7A",
"{+	c #B8FF74",
"]+	c #B4FF6D",
"^+	c #B1FF66",
"/+	c #AFFF62",
"(+	c #ABFF5B",
"_+	c #A7FF54",
":+	c #A4FF4D",
"<+	c #A0FF46",
"[+	c #9DFF3F",
"}+	c #99FF38",
"|+	c #96FF30",
"1+	c #92FF28",
"2+	c #8DFF20",
"3+	c #89FF18",
"4+	c #BEFF81",
"5+	c #BCFF7B",
"6+	c #B9FF76",
"7+	c #B5FF70",
"8+	c #B0FF64",
"9+	c #ACFF5E",
"0+	c #A9FF57",
"a+	c #A6FF4F",
"b+	c #A2FF49",
"c+	c #9EFF42",
"d+	c #9BFF3A",
"e+	c #97FF33",
"f+	c #93FF2B",
"g+	c #90FF25",
"h+	c #8BFF1B",
"i+	c #87FF13",
"j+	c #BDFF7D",
"k+	c #BAFF77",
"l+	c #B7FF71",
"m+	c #B4FF6C",
"n+	c #B0FF66",
"o+	c #AEFF5F",
"p+	c #AAFF59",
"q+	c #A7FF52",
"r+	c #A0FF44",
"s+	c #9CFF3D",
"t+	c #98FF35",
"u+	c #94FF2E",
"v+	c #91FF26",
"w+	c #8CFF1E",
"x+	c #88FF16",
"y+	c #85FF0E",
"z+	c #ABDD7A",
"A+	c #A7DC74",
"B+	c #A3DA6D",
"C+	c #A0D867",
"D+	c #9BD762",
"E+	c #96D55A",
"F+	c #93D354",
"G+	c #90D14E",
"H+	c #8ACF46",
"I+	c #86CE40",
"J+	c #81CC38",
"K+	c #7CCA32",
"L+	c #78C929",
"M+	c #72C622",
"N+	c #6DC419",
"O+	c #68C210",
"P+	c #65C10A",
". . . . . . . . . . . . . . . . . . . . . . . . . ",
"+ + @ # $ % & & * % % @ & * # % + & * # % & # = @ ",
"- ; > , , ' ) ! ~ { ] ^ ^ / ( _ : < [ } } } | 1 2 ",
"3 4 4 4 5 6 7 7 8 8 8 8 9 0 a b b b c d e e f e g ",
"h i i i j j b b b b b b b j i j j k k l m n n n n ",
"o p p p p q 4 4 4 4 4 6 5 5 4 4 6 5 5 r s t t u t ",
"v w x x y y z z z z z A A A y y y y y B C D D E F ",
"G H H H H H H H H H H H H H H H H H H I C J K L M ",
"N H H H H H H H H H H H H H H H H H H O P Q R S T ",
"U H H H H H H H H H H H H H H H H H V W X Y Z ` Z ",
" .......+.@.@.+.+.+.+.+.+.@.@.@.@...#.$.%.%.%.%.&.",
"*.*.*.C =.-.-.-.-.-.-.-.-.-.;.;.;.*.>.,.,.,.'.'.,.",
").).).).).).).).).).).).!.).).).!.~.).).).).).).).",
"{.{.{.{.{.{.{.{.{.].^./.].{.{.{.{.{.{.{.{.{.{.{./.",
"(.(._.:.:.:.(.:.:.:.:.<.[.}._.:.[.<.(.:.:.<.:.[.[.",
"|.|.1.1.2.2.2.2.2.3.3.4.3.2.|.4.5.2.5.|.6.1.3.5.2.",
"7.7.8.9.8.9.9.8.7.8.7.7.0.0.a.9.9.b.3.a.3.7.c.3.3.",
"d.d.e.0.d.d.d.f.g.h.i.i.f.e.e.e.f.e.j.e.e.i.e.j.e.",
". . . . . . . . . . . . . . . . . . . . . . . . . ",
"+ + @ # $ % & & * % % @ & * # % + & * # % & # = @ ",
"- ; > , , ' ) ! ~ { ] ^ ^ / ( _ : < [ } } } | 1 2 ",
"3 k.l.m.n.o.p.q.r.s.t.u.v.w.x.y.z.A.c d e e f e g ",
"h B.C.D.E.F.G.H.I.J.K.u.L.M.N.O.P.Q.k l m n n n n ",
"o D.R.S.T.U.V.J.W.u.L.X.Y.Z.P.`. +.+5 r s t t u t ",
"v ++z.@+#+$+%+j 7 &+*+=+-+;+>+,+'+)+y B C D D E F ",
"G !+=+~+{+]+^+/+(+_+:+<+[+}+|+1+2+3+H I C J K L M ",
"N 4+5+6+7+,+8+9+0+a+b+c+d+e+f+g+h+i+H O P Q R S T ",
"U j+k+l+m+n+o+p+q+z r+s+t+u+v+w+x+y+V W X Y Z ` Z ",
" .z+A+B+C+D+E+F+G+H+I+J+K+L+M+N+O+P+#.$.%.%.%.%.&.",
"*.*.*.C =.-.-.-.-.-.-.-.-.-.;.;.;.*.>.,.,.,.'.'.,.",
").).).).).).).).).).).).!.).).).!.~.).).).).).).).",
"{.{.{.{.{.{.{.{.{.].^./.].{.{.{.{.{.{.{.{.{.{.{./.",
"(.(._.:.:.:.(.:.:.:.:.<.[.}._.:.[.<.(.:.:.<.:.[.[.",
"|.|.1.1.2.2.2.2.2.3.3.4.3.2.|.4.5.2.5.|.6.1.3.5.2.",
"7.7.8.9.8.9.9.8.7.8.7.7.0.0.a.9.9.b.3.a.3.7.c.3.3.",
"d.d.e.0.d.d.d.f.g.h.i.i.f.e.e.e.f.e.j.e.e.i.e.j.e."};
