/* XPM */
static char * maximizeA_xpm[] = {
"18 36 208 2",
"  	c None",
". 	c #7A7A7A",
"+ 	c #787777",
"@ 	c #777778",
"# 	c #777878",
"$ 	c #787877",
"% 	c #787878",
"& 	c #787778",
"* 	c #777777",
"= 	c #152506",
"- 	c #142305",
"; 	c #132205",
"> 	c #132105",
", 	c #111F04",
"' 	c #111E04",
") 	c #101D04",
"! 	c #101C04",
"~ 	c #0F1B04",
"{ 	c #0F1A04",
"] 	c #0E1904",
"^ 	c #0E1804",
"/ 	c #091300",
"( 	c #081200",
"_ 	c #081100",
": 	c #11190A",
"< 	c #C3FF8B",
"[ 	c #C4FF8B",
"} 	c #C4FF8C",
"| 	c #C4FF8D",
"1 	c #C5FF8E",
"2 	c #C6FF8F",
"3 	c #C7FF8F",
"4 	c #C7FF90",
"5 	c #C7FF91",
"6 	c #C6FF91",
"7 	c #C7FF92",
"8 	c #C7FF93",
"9 	c #C3FF8A",
"0 	c #C2FF8A",
"a 	c #A2FF4A",
"b 	c #A2FF4B",
"c 	c #A3FF4C",
"d 	c #A3FF4B",
"e 	c #A4FF4C",
"f 	c #7EFF00",
"g 	c #5FC001",
"h 	c #5FBF00",
"i 	c #5EBF00",
"j 	c #060606",
"k 	c #050505",
"l 	c #040404",
"m 	c #030303",
"n 	c #000000",
"o 	c #484848",
"p 	c #484948",
"q 	c #494948",
"r 	c #474747",
"s 	c #464747",
"t 	c #464647",
"u 	c #474647",
"v 	c #464546",
"w 	c #454646",
"x 	c #464646",
"y 	c #454546",
"z 	c #464645",
"A 	c #464545",
"B 	c #444545",
"C 	c #454544",
"D 	c #454545",
"E 	c #444444",
"F 	c #444445",
"G 	c #454445",
"H 	c #444344",
"I 	c #444343",
"J 	c #444443",
"K 	c #434343",
"L 	c #434443",
"M 	c #434344",
"N 	c #424343",
"O 	c #424242",
"P 	c #424243",
"Q 	c #434243",
"R 	c #434342",
"S 	c #434242",
"T 	c #E5FFCC",
"U 	c #E3FFCA",
"V 	c #E2FFC8",
"W 	c #E1FFC5",
"X 	c #E0FFC3",
"Y 	c #DEFFC1",
"Z 	c #DDFFBF",
"` 	c #DCFFBC",
" .	c #DBFFBB",
"..	c #DAFFB7",
"+.	c #D8FFB4",
"@.	c #D7FFB2",
"#.	c #D6FFAE",
"$.	c #D4FFAC",
"%.	c #D4FFAA",
"&.	c #D1FFA7",
"*.	c #D0FFA4",
"=.	c #E5FFCE",
"-.	c #E4FFCC",
";.	c #E3FFC9",
">.	c #E1FFC7",
",.	c #E0FFC5",
"'.	c #E0FFC2",
").	c #DEFFBF",
"!.	c #DDFFBC",
"~.	c #DBFFBA",
"{.	c #D9FFB7",
"].	c #D7FFB1",
"^.	c #D5FFAF",
"/.	c #D3FFAB",
"(.	c #D2FFA8",
"_.	c #D0FFA5",
":.	c #CEFFA3",
"<.	c #E2FFC7",
"[.	c #E0FFC4",
"}.	c #E0FFC1",
"|.	c #DDFFC0",
"1.	c #DCFFBD",
"2.	c #D9FFB8",
"3.	c #D5FFAE",
"4.	c #D4FFAB",
"5.	c #D1FFA8",
"6.	c #CEFFA1",
"7.	c #CDFF9E",
"8.	c #CBFF99",
"9.	c #D3FFAA",
"0.	c #CFFFA3",
"a.	c #CEFFA0",
"b.	c #CBFF9B",
"c.	c #C8FF96",
"d.	c #C2FF89",
"e.	c #C0FF84",
"f.	c #BEFF80",
"g.	c #BBFF7B",
"h.	c #B9FF77",
"i.	c #B6FF71",
"j.	c #B3FF6A",
"k.	c #B0FF65",
"l.	c #ACFF60",
"m.	c #C0FF85",
"n.	c #BAFF7A",
"o.	c #B8FF74",
"p.	c #B4FF6D",
"q.	c #B1FF66",
"r.	c #AFFF62",
"s.	c #ABFF5B",
"t.	c #A7FF54",
"u.	c #A4FF4D",
"v.	c #A0FF46",
"w.	c #9DFF3F",
"x.	c #99FF38",
"y.	c #96FF30",
"z.	c #92FF28",
"A.	c #8DFF20",
"B.	c #89FF18",
"C.	c #BEFF81",
"D.	c #BCFF7B",
"E.	c #B9FF76",
"F.	c #B5FF70",
"G.	c #B0FF64",
"H.	c #ACFF5E",
"I.	c #A9FF57",
"J.	c #A6FF4F",
"K.	c #A2FF49",
"L.	c #9EFF42",
"M.	c #9BFF3A",
"N.	c #97FF33",
"O.	c #93FF2B",
"P.	c #90FF25",
"Q.	c #8BFF1B",
"R.	c #87FF13",
"S.	c #BDFF7D",
"T.	c #BAFF77",
"U.	c #B7FF71",
"V.	c #B4FF6C",
"W.	c #B0FF66",
"X.	c #AEFF5F",
"Y.	c #AAFF59",
"Z.	c #A7FF52",
"`.	c #A0FF44",
" +	c #9CFF3D",
".+	c #98FF35",
"++	c #94FF2E",
"@+	c #91FF26",
"#+	c #8CFF1E",
"$+	c #88FF16",
"%+	c #85FF0E",
"&+	c #ABDD7A",
"*+	c #A7DC74",
"=+	c #A3DA6D",
"-+	c #A0D867",
";+	c #9BD762",
">+	c #96D55A",
",+	c #93D354",
"'+	c #90D14E",
")+	c #8ACF46",
"!+	c #86CE40",
"~+	c #81CC38",
"{+	c #7CCA32",
"]+	c #78C929",
"^+	c #72C622",
"/+	c #6DC419",
"(+	c #68C210",
"_+	c #65C10A",
". . . . . . . . . . . . . . . . . . ",
"+ + @ # $ % & & * % % @ & * # % + & ",
"= - ; > > , ' ) ! ~ { ] ] ^ / ( _ : ",
"< < < < [ } | | 1 1 1 1 2 3 4 5 5 5 ",
"6 6 6 6 7 7 5 5 5 5 5 5 5 7 6 7 7 8 ",
"9 9 9 9 9 0 < < < < < } [ [ < < } [ ",
"a a b b c c d d d d d e e e c c c c ",
"f f f f f f f f f f f f f f f f f f ",
"f f f f f f f f f f f f f f f f f f ",
"f f f f f f f f f f f f f f f f f f ",
"g g g g h i i h h h h h h i i i i g ",
"j j j k l m m m m m m m m m n n n j ",
"o o o o o o o o o o o o p o o o p q ",
"r r r r r r r r r s t u s r r r r r ",
"v v w x x x v x x x x y z A w x z y ",
"B B C C D D D D D E E F E D B F G D ",
"H H I J I J J I H I H H K K L J J M ",
"N N O K N N N P Q R S S P O O O P O ",
". . . . . . . . . . . . . . . . . . ",
"+ + @ # $ % & & * % % @ & * # % + & ",
"= - ; > > , ' ) ! ~ { ] ] ^ / ( _ : ",
"T T U V W X Y Z `  ...+.@.#.$.%.&.*.",
"=.=.-.;.>.,.'.).!.~.{.+.].^./.(._.:.",
";.;.<.[.}.|.1.~.2.+.].3.4.5._.6.7.8.",
"9.9.&.0.a.b.c.7 | d.e.f.g.h.i.j.k.l.",
"m.m.f.n.o.p.q.r.s.t.u.v.w.x.y.z.A.B.",
"C.C.D.E.F.j.G.H.I.J.K.L.M.N.O.P.Q.R.",
"S.S.T.U.V.W.X.Y.Z.d `. +.+++@+#+$+%+",
"&+&+*+=+-+;+>+,+'+)+!+~+{+]+^+/+(+_+",
"j j j k l m m m m m m m m m n n n j ",
"o o o o o o o o o o o o p o o o p q ",
"r r r r r r r r r s t u s r r r r r ",
"v v w x x x v x x x x y z A w x z y ",
"B B C C D D D D D E E F E D B F G D ",
"H H I J I J J I H I H H K K L J J M ",
"N N O K N N N P Q R S S P O O O P O "};
