/* XPM */
static char * maximizeI_xpm[] = {
"18 36 192 2",
"  	c None",
". 	c #8F8F8F",
"+ 	c #8D8C8C",
"@ 	c #8C8C8D",
"# 	c #8C8D8D",
"$ 	c #8D8D8C",
"% 	c #8D8D8D",
"& 	c #8D8C8D",
"* 	c #8C8C8C",
"= 	c #3A482E",
"- 	c #39462D",
"; 	c #38452D",
"> 	c #38442D",
", 	c #37432C",
"' 	c #37422C",
") 	c #36412C",
"! 	c #36402C",
"~ 	c #353F2C",
"{ 	c #353E2C",
"] 	c #343D2C",
"^ 	c #303829",
"/ 	c #2F3829",
"( 	c #2F3729",
"_ 	c #373D31",
": 	c #CCFF9D",
"< 	c #CDFF9D",
"[ 	c #CDFF9E",
"} 	c #CDFF9F",
"| 	c #CEFFA0",
"1 	c #CFFFA1",
"2 	c #D0FFA1",
"3 	c #D0FFA2",
"4 	c #CFFFA2",
"5 	c #D0FFA3",
"6 	c #D0FFA4",
"7 	c #CCFF9C",
"8 	c #CBFF9C",
"9 	c #B0FF67",
"0 	c #B1FF68",
"a 	c #B1FF67",
"b 	c #B2FF68",
"c 	c #92FF29",
"d 	c #78CA29",
"e 	c #78C929",
"f 	c #77C929",
"g 	c #2E2E2E",
"h 	c #2D2D2D",
"i 	c #2C2C2C",
"j 	c #2B2B2B",
"k 	c #292929",
"l 	c #656565",
"m 	c #656665",
"n 	c #666665",
"o 	c #646464",
"p 	c #636464",
"q 	c #636364",
"r 	c #646364",
"s 	c #636263",
"t 	c #626363",
"u 	c #636363",
"v 	c #626263",
"w 	c #636362",
"x 	c #636262",
"y 	c #626262",
"z 	c #626162",
"A 	c #626161",
"B 	c #626261",
"C 	c #616161",
"D 	c #616261",
"E 	c #616162",
"F 	c #606161",
"G 	c #606060",
"H 	c #606061",
"I 	c #616061",
"J 	c #616160",
"K 	c #616060",
"L 	c #E9FFD4",
"M 	c #E7FFD2",
"N 	c #E6FFD0",
"O 	c #E5FFCE",
"P 	c #E4FFCC",
"Q 	c #E3FFCA",
"R 	c #E2FFC9",
"S 	c #E1FFC6",
"T 	c #E0FFC5",
"U 	c #DFFFC2",
"V 	c #DEFFC0",
"W 	c #DDFFBE",
"X 	c #DCFFBB",
"Y 	c #DAFFB9",
"Z 	c #DAFFB7",
"` 	c #D8FFB5",
" .	c #D7FFB2",
"..	c #E9FFD5",
"+.	c #E8FFD4",
"@.	c #E7FFD1",
"#.	c #E5FFD0",
"$.	c #E4FFCE",
"%.	c #E4FFCB",
"&.	c #E3FFC9",
"*.	c #E2FFC6",
"=.	c #DDFFBD",
"-.	c #DBFFBB",
";.	c #DAFFB8",
">.	c #D9FFB5",
",.	c #D7FFB3",
"'.	c #D5FFB1",
").	c #E4FFCD",
"!.	c #E4FFCA",
"~.	c #E2FFCA",
"{.	c #E1FFC7",
"].	c #DFFFC3",
"^.	c #D5FFB0",
"/.	c #D5FFAD",
"(.	c #D3FFA9",
"_.	c #D6FFB1",
":.	c #D5FFAF",
"<.	c #D3FFAB",
"[.	c #D0FFA6",
"}.	c #CBFF9B",
"|.	c #CAFF97",
"1.	c #C8FF94",
"2.	c #C5FF90",
"3.	c #C4FF8C",
"4.	c #C1FF87",
"5.	c #BFFF81",
"6.	c #BCFF7D",
"7.	c #B9FF79",
"8.	c #CAFF98",
"9.	c #C5FF8F",
"0.	c #C3FF8A",
"a.	c #C0FF84",
"b.	c #BDFF7E",
"c.	c #BBFF7B",
"d.	c #B8FF75",
"e.	c #B5FF6F",
"f.	c #B2FF69",
"g.	c #AFFF63",
"h.	c #ACFF5D",
"i.	c #A9FF57",
"j.	c #A6FF51",
"k.	c #A3FF4A",
"l.	c #9FFF43",
"m.	c #9BFF3D",
"n.	c #C8FF95",
"o.	c #C6FF90",
"p.	c #C0FF86",
"q.	c #BCFF7C",
"r.	c #B9FF77",
"s.	c #B6FF72",
"t.	c #B4FF6B",
"u.	c #B0FF66",
"v.	c #ADFF60",
"w.	c #ABFF59",
"x.	c #A7FF53",
"y.	c #A4FF4D",
"z.	c #A1FF48",
"A.	c #9DFF3F",
"B.	c #9AFF38",
"C.	c #C7FF91",
"D.	c #C5FF8C",
"E.	c #C2FF87",
"F.	c #C0FF83",
"G.	c #BCFF7E",
"H.	c #BBFF78",
"I.	c #B7FF73",
"J.	c #B5FF6D",
"K.	c #AFFF62",
"L.	c #ABFF5C",
"M.	c #A8FF55",
"N.	c #A5FF4F",
"O.	c #A2FF48",
"P.	c #9EFF42",
"Q.	c #9BFF3B",
"R.	c #98FF34",
"S.	c #B8E28F",
"T.	c #B5E18A",
"U.	c #B1DF84",
"V.	c #AFDE7F",
"W.	c #ABDD7B",
"X.	c #A6DB74",
"Y.	c #A4DA6F",
"Z.	c #A1D86A",
"`.	c #9CD663",
" +	c #99D55E",
".+	c #95D457",
"++	c #91D252",
"@+	c #8DD14B",
"#+	c #88CF45",
"$+	c #84CD3D",
"%+	c #80CB36",
"&+	c #7DCA31",
". . . . . . . . . . . . . . . . . . ",
"+ + @ # $ % & & * % % @ & * # % + & ",
"= - ; > > , ' ) ! ~ { ] ] ] ^ / ( _ ",
": : : : < [ } } | | | | 1 2 2 3 3 3 ",
"4 4 4 4 5 5 3 3 3 3 3 3 3 5 4 5 5 6 ",
"7 7 7 7 7 8 : : : : : [ < < : : [ < ",
"9 9 9 9 0 0 a a a a a b b b 0 0 0 0 ",
"c c c c c c c c c c c c c c c c c c ",
"c c c c c c c c c c c c c c c c c c ",
"c c c c c c c c c c c c c c c c c c ",
"d d d d e f f e e e e e e f f f f d ",
"g g g h i j j j j j j j j j k k k g ",
"l l l l l l l l l l l l m l l l m n ",
"o o o o o o o o o p q r p o o o o o ",
"s s t u u u s u u u u v w x t u w v ",
"y y y y y y y y y y y y y y y y y y ",
"z z A B A B B A z A z z C C D B B E ",
"F F G C F F F H I J K K H G G G H G ",
". . . . . . . . . . . . . . . . . . ",
"+ + @ # $ % & & * % % @ & * # % + & ",
"= - ; > > , ' ) ! ~ { ] ] ] ^ / ( _ ",
"L L M N O P Q R S T U V W X Y Z `  .",
"....+.@.#.$.%.&.*.T U V =.-.;.>.,.'.",
"@.@.N ).!.~.{.T ].V =.-.;.` ,.^./.(.",
"Z Z ` _.:.<.[.5 } }.|.1.2.3.4.5.6.7.",
"8.8.1.9.0.a.b.c.d.e.f.g.h.i.j.k.l.m.",
"n.n.o.3.p.5.q.r.s.t.u.v.w.x.y.z.A.B.",
"C.C.D.E.F.G.H.I.J.a K.L.M.N.O.P.Q.R.",
"S.S.T.U.V.W.X.Y.Z.`. +.+++@+#+$+%+&+",
"g g g h i j j j j j j j j j k k k g ",
"l l l l l l l l l l l l m l l l m n ",
"o o o o o o o o o p q r p o o o o o ",
"s s t u u u s u u u u v w x t u w v ",
"y y y y y y y y y y y y y y y y y y ",
"z z A B A B B A z A z z C C D B B E ",
"F F G C F F F H I J K K H G G G H G "};
