/* XPM */
static char * minimizeI_xpm[] = {
"25 36 245 2",
"  	c None",
". 	c #8F8F8F",
"+ 	c #8C8C8D",
"@ 	c #8C8D8C",
"# 	c #8C8D8D",
"$ 	c #8D8C8D",
"% 	c #8D8D8D",
"& 	c #8C8C8C",
"* 	c #8D8C8C",
"= 	c #8D8D8C",
"- 	c #888888",
"; 	c #898889",
"> 	c #898A8A",
", 	c #898989",
"' 	c #444344",
") 	c #373D31",
"! 	c #2F3729",
"~ 	c #2F3829",
"{ 	c #303829",
"] 	c #343D2C",
"^ 	c #353E2C",
"/ 	c #353F2C",
"( 	c #36402C",
"_ 	c #36412C",
": 	c #37422C",
"< 	c #37432C",
"[ 	c #38442D",
"} 	c #38452D",
"| 	c #39462D",
"1 	c #3A482E",
"2 	c #868686",
"3 	c #858585",
"4 	c #3B3B3A",
"5 	c #A7C889",
"6 	c #D0FFA2",
"7 	c #D0FFA1",
"8 	c #CFFFA1",
"9 	c #CEFFA0",
"0 	c #CDFF9F",
"a 	c #CDFF9E",
"b 	c #CDFF9D",
"c 	c #CCFF9D",
"d 	c #B6E38C",
"e 	c #6C6C6C",
"f 	c #3F3F3F",
"g 	c #8AA46F",
"h 	c #D0FFA4",
"i 	c #D0FFA3",
"j 	c #CFFFA2",
"k 	c #A1C381",
"l 	c #6C6B6C",
"m 	c #303030",
"n 	c #BAE193",
"o 	c #CBFF9C",
"p 	c #CCFF9C",
"q 	c #8AA86E",
"r 	c #6B6B6B",
"s 	c #6A6B6B",
"t 	c #6A6A6B",
"u 	c #2D2D2D",
"v 	c #AEF767",
"w 	c #B1FF68",
"x 	c #B2FF68",
"y 	c #B1FF67",
"z 	c #B0FF67",
"A 	c #6A9146",
"B 	c #6A6A69",
"C 	c #696A6A",
"D 	c #6A696A",
"E 	c #6A6A6A",
"F 	c #84E129",
"G 	c #92FF29",
"H 	c #568529",
"I 	c #686869",
"J 	c #696869",
"K 	c #686968",
"L 	c #686969",
"M 	c #2F2F2F",
"N 	c #609629",
"O 	c #609B29",
"P 	c #676868",
"Q 	c #686868",
"R 	c #686767",
"S 	c #3D3D3D",
"T 	c #31362B",
"U 	c #87E929",
"V 	c #6DB429",
"W 	c #676767",
"X 	c #333333",
"Y 	c #3F542B",
"Z 	c #78CA29",
"` 	c #77C929",
" .	c #78C929",
"..	c #67A629",
"+.	c #666666",
"@.	c #666767",
"#.	c #383838",
"$.	c #2E2E2E",
"%.	c #292929",
"&.	c #2B2B2B",
"*.	c #2C2C2C",
"=.	c #656565",
"-.	c #666665",
";.	c #656665",
">.	c #646364",
",.	c #646464",
"'.	c #636464",
").	c #636364",
"!.	c #636362",
"~.	c #636363",
"{.	c #626263",
"].	c #636263",
"^.	c #626363",
"/.	c #636262",
"(.	c #626262",
"_.	c #616262",
":.	c #626162",
"<.	c #616261",
"[.	c #616162",
"}.	c #626261",
"|.	c #616161",
"1.	c #626161",
"2.	c #606060",
"3.	c #606160",
"4.	c #616060",
"5.	c #606061",
"6.	c #616160",
"7.	c #616061",
"8.	c #606161",
"9.	c #D7FFB2",
"0.	c #D8FFB5",
"a.	c #DAFFB7",
"b.	c #DAFFB9",
"c.	c #DCFFBB",
"d.	c #DDFFBE",
"e.	c #DEFFC0",
"f.	c #DFFFC2",
"g.	c #E0FFC5",
"h.	c #E1FFC6",
"i.	c #E2FFC9",
"j.	c #E3FFCA",
"k.	c #E4FFCC",
"l.	c #E5FFCE",
"m.	c #E6FFD0",
"n.	c #E7FFD2",
"o.	c #E9FFD4",
"p.	c #D5FFB1",
"q.	c #D7FFB3",
"r.	c #D9FFB5",
"s.	c #DAFFB8",
"t.	c #DBFFBB",
"u.	c #DDFFBD",
"v.	c #E2FFC6",
"w.	c #E3FFC9",
"x.	c #E4FFCB",
"y.	c #E4FFCE",
"z.	c #E5FFD0",
"A.	c #E7FFD1",
"B.	c #E8FFD4",
"C.	c #E9FFD5",
"D.	c #D3FFA9",
"E.	c #D5FFAD",
"F.	c #D5FFB0",
"G.	c #DFFFC3",
"H.	c #E1FFC7",
"I.	c #E2FFCA",
"J.	c #E4FFCA",
"K.	c #E4FFCD",
"L.	c #B9FF79",
"M.	c #BCFF7D",
"N.	c #BFFF81",
"O.	c #C1FF87",
"P.	c #C4FF8C",
"Q.	c #C5FF90",
"R.	c #C8FF94",
"S.	c #CAFF97",
"T.	c #CBFF9B",
"U.	c #D0FFA6",
"V.	c #D3FFAB",
"W.	c #D5FFAF",
"X.	c #D6FFB1",
"Y.	c #9BFF3D",
"Z.	c #9FFF43",
"`.	c #A3FF4A",
" +	c #A6FF51",
".+	c #A9FF57",
"++	c #ACFF5D",
"@+	c #AFFF63",
"#+	c #B2FF69",
"$+	c #B5FF6F",
"%+	c #B8FF75",
"&+	c #BBFF7B",
"*+	c #BDFF7E",
"=+	c #C0FF84",
"-+	c #C3FF8A",
";+	c #C5FF8F",
">+	c #CAFF98",
",+	c #9AFF38",
"'+	c #9DFF3F",
")+	c #A1FF48",
"!+	c #A4FF4D",
"~+	c #A7FF53",
"{+	c #ABFF59",
"]+	c #ADFF60",
"^+	c #B0FF66",
"/+	c #B4FF6B",
"(+	c #B6FF72",
"_+	c #B9FF77",
":+	c #BCFF7C",
"<+	c #C0FF86",
"[+	c #C6FF90",
"}+	c #C8FF95",
"|+	c #98FF34",
"1+	c #9BFF3B",
"2+	c #9EFF42",
"3+	c #A2FF48",
"4+	c #A5FF4F",
"5+	c #A8FF55",
"6+	c #ABFF5C",
"7+	c #AFFF62",
"8+	c #B5FF6D",
"9+	c #B7FF73",
"0+	c #BBFF78",
"a+	c #BCFF7E",
"b+	c #C0FF83",
"c+	c #C2FF87",
"d+	c #C5FF8C",
"e+	c #C7FF91",
"f+	c #7DCA31",
"g+	c #80CB36",
"h+	c #84CD3D",
"i+	c #88CF45",
"j+	c #8DD14B",
"k+	c #91D252",
"l+	c #95D457",
"m+	c #99D55E",
"n+	c #9CD663",
"o+	c #A1D86A",
"p+	c #A4DA6F",
"q+	c #A6DB74",
"r+	c #ABDD7B",
"s+	c #AFDE7F",
"t+	c #B1DF84",
"u+	c #B5E18A",
"v+	c #B8E28F",
". . . . . . . . . . . . . . . . . . . . . . . . . ",
"+ @ # $ % # & $ * % # & $ + % % & $ $ % = # + * * ",
"- ; > , , , ' ) ! ~ { ] ] ] ^ / ( _ : < [ [ } | 1 ",
"2 2 3 2 2 4 5 6 6 6 7 7 8 9 9 9 9 0 0 a b c c c d ",
"e e e e f g h h i i j i 6 6 6 6 6 6 6 i i j j j k ",
"e l e e m n b b a c c b b a c c c c c o p p p p q ",
"r s t t u v w w w w w x x x y y y y y w w z z z A ",
"B C D E u F G G G G G G G G G G G G G G G G G G H ",
"I J K L M N G G G G G G G G G G G G G G G G G G O ",
"P Q P R S T U G G G G G G G G G G G G G G G G G V ",
"W W W W W X Y Z ` ` ` `  . . . . . .` `  .Z Z Z ..",
"+.@.@.+.+.+.#.$.%.%.%.&.&.&.&.&.&.&.&.&.*.u $.$.$.",
"=.=.=.=.=.=.=.-.;.=.=.=.;.=.=.=.=.=.=.=.=.=.=.=.=.",
">.,.,.,.,.,.,.,.,.,.,.,.'.>.).'.,.,.,.,.,.,.,.,.,.",
"!.!.~.{.~.~.].{.!.~.^./.!.{.~.~.~.~.].~.~.~.^.].].",
"(.(.(.(.(.(.(.(.(.(.(.(.(.(.(.(.(.(.(.(.(.(.(.(.(.",
"(.(._.:.(.<.(.[.}.}.<.|.|.:.:.1.:.1.}.}.1.}.1.:.:.",
"2.3.2.4.2.2.3.2.5.2.2.2.5.4.4.6.7.5.8.8.8.|.2.8.8.",
". . . . . . . . . . . . . . . . . . . . . . . . . ",
"+ @ # $ % # & $ * % # & $ + % % & $ $ % = # + * * ",
"- ; > , , , ' ) ! ~ { ] ] ] ^ / ( _ : < [ [ } | 1 ",
"2 2 3 2 2 4 5 9.0.a.b.c.d.e.f.g.h.i.j.k.l.m.n.o.d ",
"e e e e f g h p.q.r.s.t.u.e.f.g.v.w.x.y.z.A.B.C.k ",
"e l e e m n b D.E.F.q.0.s.t.u.e.G.g.H.I.J.K.m.A.q ",
"r s t t u v w L.M.N.O.P.Q.R.S.T.0 i U.V.W.X.0.a.A ",
"B C D E u F G Y.Z.`. +.+++@+#+$+%+&+*+=+-+;+R.>+H ",
"I J K L M N G ,+'+)+!+~+{+]+^+/+(+_+:+N.<+P.[+}+O ",
"P Q P R S T U |+1+2+3+4+5+6+7+y 8+9+0+a+b+c+d+e+V ",
"W W W W W X Y f+g+h+i+j+k+l+m+n+o+p+q+r+s+t+u+v+..",
"+.@.@.+.+.+.#.$.%.%.%.&.&.&.&.&.&.&.&.&.*.u $.$.$.",
"=.=.=.=.=.=.=.-.;.=.=.=.;.=.=.=.=.=.=.=.=.=.=.=.=.",
">.,.,.,.,.,.,.,.,.,.,.,.'.>.).'.,.,.,.,.,.,.,.,.,.",
"!.!.~.{.~.~.].{.!.~.^./.!.{.~.~.~.~.].~.~.~.^.].].",
"(.(.(.(.(.(.(.(.(.(.(.(.(.(.(.(.(.(.(.(.(.(.(.(.(.",
"(.(._.:.(.<.(.[.}.}.<.|.|.:.:.1.:.1.}.}.1.}.1.:.:.",
"2.3.2.4.2.2.3.2.5.2.2.2.5.4.4.6.7.5.8.8.8.|.2.8.8."};
