/* XPM */
static char * minimizeA_xpm[] = {
"25 36 265 2",
"  	c None",
". 	c #7A7A7A",
"+ 	c #777778",
"@ 	c #777877",
"# 	c #777878",
"$ 	c #787778",
"% 	c #787878",
"& 	c #777777",
"* 	c #787777",
"= 	c #787877",
"- 	c #727272",
"; 	c #737273",
"> 	c #737474",
", 	c #737373",
"' 	c #212021",
") 	c #11190A",
"! 	c #081100",
"~ 	c #081200",
"{ 	c #091300",
"] 	c #0E1804",
"^ 	c #0E1904",
"/ 	c #0F1A04",
"( 	c #0F1B04",
"_ 	c #101C04",
": 	c #101D04",
"< 	c #111E04",
"[ 	c #111F04",
"} 	c #132105",
"| 	c #132205",
"1 	c #142305",
"2 	c #152506",
"3 	c #6F6F70",
"4 	c #6F6F6F",
"5 	c #6E6E6E",
"6 	c #161615",
"7 	c #97BE73",
"8 	c #C7FF91",
"9 	c #C7FF90",
"0 	c #C7FF8F",
"a 	c #C6FF8F",
"b 	c #C5FF8E",
"c 	c #C4FF8D",
"d 	c #C4FF8C",
"e 	c #C4FF8B",
"f 	c #C3FF8B",
"g 	c #A9DE77",
"h 	c #515151",
"i 	c #1B1B1B",
"j 	c #749354",
"k 	c #C7FF93",
"l 	c #C7FF92",
"m 	c #C6FF91",
"n 	c #8FB869",
"o 	c #505050",
"p 	c #504F50",
"q 	c #090909",
"r 	c #ADDC7F",
"s 	c #C2FF8A",
"t 	c #C3FF8A",
"u 	c #749853",
"v 	c #4F4F4F",
"w 	c #4E4F4F",
"x 	c #4E4E4F",
"y 	c #050505",
"z 	c #9FF64B",
"A 	c #A3FF4C",
"B 	c #A4FF4C",
"C 	c #A3FF4B",
"D 	c #A2FF4B",
"E 	c #A2FF4A",
"F 	c #4E7C23",
"G 	c #4E4E4D",
"H 	c #4D4E4E",
"I 	c #4E4D4E",
"J 	c #4E4E4E",
"K 	c #6DDC00",
"L 	c #7EFF00",
"M 	c #366E00",
"N 	c #4C4C4D",
"O 	c #4D4C4D",
"P 	c #4C4D4C",
"Q 	c #4C4D4D",
"R 	c #080808",
"S 	c #428301",
"T 	c #428800",
"U 	c #4B4C4C",
"V 	c #4C4C4C",
"W 	c #4C4B4B",
"X 	c #191919",
"Y 	c #0A1003",
"Z 	c #71E500",
"` 	c #52A600",
" .	c #4B4B4B",
"..	c #4A4A4A",
"+.	c #0C0C0C",
"@.	c #1B3403",
"#.	c #5FC001",
"$.	c #5EBF00",
"%.	c #5FBF00",
"&.	c #4A9600",
"*.	c #494949",
"=.	c #494A4A",
"-.	c #131313",
";.	c #060606",
">.	c #000000",
",.	c #030303",
"'.	c #040404",
").	c #484848",
"!.	c #494948",
"~.	c #484948",
"{.	c #474647",
"].	c #474747",
"^.	c #464747",
"/.	c #464647",
"(.	c #464645",
"_.	c #464646",
":.	c #454546",
"<.	c #464546",
"[.	c #454646",
"}.	c #464545",
"|.	c #454545",
"1.	c #454445",
"2.	c #444444",
"3.	c #454544",
"4.	c #444544",
"5.	c #444545",
"6.	c #444445",
"7.	c #434444",
"8.	c #444344",
"9.	c #434443",
"0.	c #434344",
"a.	c #444443",
"b.	c #434343",
"c.	c #444343",
"d.	c #424242",
"e.	c #424342",
"f.	c #434242",
"g.	c #424243",
"h.	c #434342",
"i.	c #434243",
"j.	c #424343",
"k.	c #D0FFA4",
"l.	c #D1FFA7",
"m.	c #D4FFAA",
"n.	c #D4FFAC",
"o.	c #D6FFAE",
"p.	c #D7FFB2",
"q.	c #D8FFB4",
"r.	c #DAFFB7",
"s.	c #DBFFBB",
"t.	c #DCFFBC",
"u.	c #DDFFBF",
"v.	c #DEFFC1",
"w.	c #E0FFC3",
"x.	c #E1FFC5",
"y.	c #E2FFC8",
"z.	c #E3FFCA",
"A.	c #E5FFCC",
"B.	c #CEFFA3",
"C.	c #D0FFA5",
"D.	c #D2FFA8",
"E.	c #D3FFAB",
"F.	c #D5FFAF",
"G.	c #D7FFB1",
"H.	c #D9FFB7",
"I.	c #DBFFBA",
"J.	c #DDFFBC",
"K.	c #DEFFBF",
"L.	c #E0FFC2",
"M.	c #E0FFC5",
"N.	c #E1FFC7",
"O.	c #E3FFC9",
"P.	c #E4FFCC",
"Q.	c #E5FFCE",
"R.	c #CBFF99",
"S.	c #CDFF9E",
"T.	c #CEFFA1",
"U.	c #D1FFA8",
"V.	c #D4FFAB",
"W.	c #D5FFAE",
"X.	c #D9FFB8",
"Y.	c #DCFFBD",
"Z.	c #DDFFC0",
"`.	c #E0FFC1",
" +	c #E0FFC4",
".+	c #E2FFC7",
"++	c #ACFF60",
"@+	c #B0FF65",
"#+	c #B3FF6A",
"$+	c #B6FF71",
"%+	c #B9FF77",
"&+	c #BBFF7B",
"*+	c #BEFF80",
"=+	c #C0FF84",
"-+	c #C2FF89",
";+	c #C8FF96",
">+	c #CBFF9B",
",+	c #CEFFA0",
"'+	c #CFFFA3",
")+	c #D3FFAA",
"!+	c #89FF18",
"~+	c #8DFF20",
"{+	c #92FF28",
"]+	c #96FF30",
"^+	c #99FF38",
"/+	c #9DFF3F",
"(+	c #A0FF46",
"_+	c #A4FF4D",
":+	c #A7FF54",
"<+	c #ABFF5B",
"[+	c #AFFF62",
"}+	c #B1FF66",
"|+	c #B4FF6D",
"1+	c #B8FF74",
"2+	c #BAFF7A",
"3+	c #C0FF85",
"4+	c #87FF13",
"5+	c #8BFF1B",
"6+	c #90FF25",
"7+	c #93FF2B",
"8+	c #97FF33",
"9+	c #9BFF3A",
"0+	c #9EFF42",
"a+	c #A2FF49",
"b+	c #A6FF4F",
"c+	c #A9FF57",
"d+	c #ACFF5E",
"e+	c #B0FF64",
"f+	c #B5FF70",
"g+	c #B9FF76",
"h+	c #BCFF7B",
"i+	c #BEFF81",
"j+	c #85FF0E",
"k+	c #88FF16",
"l+	c #8CFF1E",
"m+	c #91FF26",
"n+	c #94FF2E",
"o+	c #98FF35",
"p+	c #9CFF3D",
"q+	c #A0FF44",
"r+	c #A7FF52",
"s+	c #AAFF59",
"t+	c #AEFF5F",
"u+	c #B0FF66",
"v+	c #B4FF6C",
"w+	c #B7FF71",
"x+	c #BAFF77",
"y+	c #BDFF7D",
"z+	c #65C10A",
"A+	c #68C210",
"B+	c #6DC419",
"C+	c #72C622",
"D+	c #78C929",
"E+	c #7CCA32",
"F+	c #81CC38",
"G+	c #86CE40",
"H+	c #8ACF46",
"I+	c #90D14E",
"J+	c #93D354",
"K+	c #96D55A",
"L+	c #9BD762",
"M+	c #A0D867",
"N+	c #A3DA6D",
"O+	c #A7DC74",
"P+	c #ABDD7A",
". . . . . . . . . . . . . . . . . . . . . . . . . ",
"+ @ # $ % # & $ * % # & $ + % % & $ $ % = # + * * ",
"- ; > , , , ' ) ! ~ { ] ^ ^ / ( _ : < [ } } | 1 2 ",
"3 4 5 4 4 6 7 8 8 8 9 0 a b b b b c c d e f f f g ",
"h h h h i j k k l l m l 8 8 8 8 8 8 8 l l m m m n ",
"o p o o q r e e d f f e e d f f f f f s t t t t u ",
"v w x x y z A A A A A B B B C C C C C A A D D E F ",
"G H I J y K L L L L L L L L L L L L L L L L L L M ",
"N O P Q R S L L L L L L L L L L L L L L L L L L T ",
"U V U W X Y Z L L L L L L L L L L L L L L L L L ` ",
" .........+.@.#.$.$.$.$.%.%.%.%.%.%.$.$.%.#.#.#.&.",
"*.=.=.*.*.*.-.;.>.>.>.,.,.,.,.,.,.,.,.,.'.y ;.;.;.",
").).).).).).).!.~.).).).~.).).).).).).).).).).).).",
"{.].].].].].].].].].].].^.{./.^.].].].].].].].].].",
"(.(._.:._._.<.:.(._.[.}.(.:._._._._.<._._._.[.<.<.",
"|.1.2.3.4.5.1.|.1.6.5.|.2.6.2.2.|.|.|.|.|.3.3.5.5.",
"2.2.7.8.2.9.2.0.a.a.9.b.b.8.8.c.8.c.a.a.c.a.c.8.8.",
"d.e.d.f.d.d.e.d.g.d.d.d.g.f.f.h.i.g.j.j.j.b.d.j.j.",
". . . . . . . . . . . . . . . . . . . . . . . . . ",
"+ @ # $ % # & $ * % # & $ + % % & $ $ % = # + * * ",
"- ; > , , , ' ) ! ~ { ] ^ ^ / ( _ : < [ } } | 1 2 ",
"3 4 5 4 4 6 7 k.l.m.n.o.p.q.r.s.t.u.v.w.x.y.z.A.g ",
"h h h h i j k B.C.D.E.F.G.q.H.I.J.K.L.M.N.O.P.Q.n ",
"o p o o q r e R.S.T.C.U.V.W.G.q.X.I.Y.Z.`. +.+O.u ",
"v w x x y z A ++@+#+$+%+&+*+=+-+c l ;+>+,+'+l.)+F ",
"G H I J y K L !+~+{+]+^+/+(+_+:+<+[+}+|+1+2+*+3+M ",
"N O P Q R S L 4+5+6+7+8+9+0+a+b+c+d+e+#+f+g+h+i+T ",
"U V U W X Y Z j+k+l+m+n+o+p+q+C r+s+t+u+v+w+x+y+` ",
" .........+.@.z+A+B+C+D+E+F+G+H+I+J+K+L+M+N+O+P+&.",
"*.=.=.*.*.*.-.;.>.>.>.,.,.,.,.,.,.,.,.,.'.y ;.;.;.",
").).).).).).).!.~.).).).~.).).).).).).).).).).).).",
"{.].].].].].].].].].].].^.{./.^.].].].].].].].].].",
"(.(._.:._._.<.:.(._.[.}.(.:._._._._.<._._._.[.<.<.",
"|.1.2.3.4.5.1.|.1.6.5.|.2.6.2.2.|.|.|.|.|.3.3.5.5.",
"2.2.7.8.2.9.2.0.a.a.9.b.b.8.8.c.8.c.a.a.c.a.c.8.8.",
"d.e.d.f.d.d.e.d.g.d.d.d.g.f.f.h.i.g.j.j.j.b.d.j.j."};
