/* XPM */
static char * titleAB_xpm[] = {
"20 18 103 2",
"  	c None",
". 	c #7A7A7A",
"+ 	c #787777",
"@ 	c #777778",
"# 	c #777878",
"$ 	c #787877",
"% 	c #787778",
"& 	c #777777",
"* 	c #787878",
"= 	c #777877",
"- 	c #737473",
"; 	c #747474",
"> 	c #737373",
", 	c #747373",
"' 	c #747374",
") 	c #747473",
"! 	c #737474",
"~ 	c #737374",
"{ 	c #737273",
"] 	c #727272",
"^ 	c #707070",
"/ 	c #6F706F",
"( 	c #706F70",
"_ 	c #6F6F6F",
": 	c #706F6F",
"< 	c #6F6F70",
"[ 	c #6E6E6E",
"} 	c #525251",
"| 	c #515151",
"1 	c #525151",
"2 	c #515251",
"3 	c #505050",
"4 	c #504F50",
"5 	c #4E4F4F",
"6 	c #4F4F4F",
"7 	c #4F4E4F",
"8 	c #4E4F4E",
"9 	c #4F4E4E",
"0 	c #4F4F4E",
"a 	c #4E4E4F",
"b 	c #4E4E4E",
"c 	c #4E4E4D",
"d 	c #4E4D4E",
"e 	c #4D4E4E",
"f 	c #4E4D4D",
"g 	c #4D4C4C",
"h 	c #4D4C4D",
"i 	c #4C4C4C",
"j 	c #4D4D4C",
"k 	c #4D4D4D",
"l 	c #4C4D4D",
"m 	c #4C4D4C",
"n 	c #4C4C4D",
"o 	c #4B4C4B",
"p 	c #4B4B4B",
"q 	c #4B4B4C",
"r 	c #4C4C4B",
"s 	c #4C4B4B",
"t 	c #4B4C4C",
"u 	c #4C4B4C",
"v 	c #4A4A4B",
"w 	c #4A4B4B",
"x 	c #4A4A4A",
"y 	c #4B4A4B",
"z 	c #4B4B4A",
"A 	c #4B4A4A",
"B 	c #4A4A49",
"C 	c #49494A",
"D 	c #494949",
"E 	c #4A4949",
"F 	c #494A4A",
"G 	c #484848",
"H 	c #484948",
"I 	c #494948",
"J 	c #474747",
"K 	c #464747",
"L 	c #474647",
"M 	c #464546",
"N 	c #454646",
"O 	c #464646",
"P 	c #454546",
"Q 	c #464645",
"R 	c #464545",
"S 	c #444545",
"T 	c #454544",
"U 	c #454545",
"V 	c #444444",
"W 	c #444445",
"X 	c #454445",
"Y 	c #444344",
"Z 	c #444343",
"` 	c #444443",
" .	c #434343",
"..	c #434443",
"+.	c #434344",
"@.	c #434444",
"#.	c #424343",
"$.	c #424242",
"%.	c #424243",
"&.	c #434243",
"*.	c #434342",
"=.	c #434242",
"-.	c #424342",
". . . . . . . . . . . . . . . . . . . . ",
"+ @ # $ % % & * @ % & # + % & # % # = @ ",
"- ; > , ' ) ! > ~ ! > ' ~ > ' > > ! { ] ",
"^ / ( _ ( : _ < _ _ / _ ( _ _ _ _ [ _ < ",
"} | 1 | 2 1 1 | | } | | | | | | | | | | ",
"3 3 3 3 3 3 3 3 3 3 3 3 3 3 3 3 3 3 4 3 ",
"5 6 7 6 7 8 6 8 6 9 6 0 6 6 5 6 a a 5 6 ",
"b c d c d e f b d b e d b d e d b d e c ",
"g h g h i j j h k l h i g k g i l m h n ",
"o p q p q r q q p o s t p u p u s t i t ",
"v w v x x x w x y z y x x x x A x x x p ",
"B C D D D D E D D D D C D D E D D F F D ",
"G G G G G G G G G H G G H I G G G G G G ",
"J J J J J J J K L K J J J J J J J J J L ",
"M N O O M O O O P Q R N Q P M O P O Q Q ",
"S T T U U U U V W V U S X U X S T V X U ",
"Y Z ` Z ` Z Y Z Y  . ...` +.V ..Y @.V V ",
"#.$. .#.#.%.&.*.=.%.$.$.%.$.-.$.=.$.-.$."};
