/* XPM */
static char * titleIB_xpm[] = {
"20 18 86 1",
" 	c None",
".	c #8F8F8F",
"+	c #8D8C8C",
"@	c #8C8C8D",
"#	c #8C8D8D",
"$	c #8D8D8C",
"%	c #8D8C8D",
"&	c #8C8C8C",
"*	c #8D8D8D",
"=	c #8C8D8C",
"-	c #898A89",
";	c #8A8A8A",
">	c #898989",
",	c #8A8989",
"'	c #8A898A",
")	c #8A8A89",
"!	c #898A8A",
"~	c #89898A",
"{	c #898889",
"]	c #888888",
"^	c #868686",
"/	c #858585",
"(	c #6D6D6C",
"_	c #6C6C6C",
":	c #6D6C6C",
"<	c #6C6D6C",
"[	c #6C6B6C",
"}	c #6A6B6B",
"|	c #6B6B6B",
"1	c #6B6A6B",
"2	c #6A6B6A",
"3	c #6B6A6A",
"4	c #6B6B6A",
"5	c #6A6A6B",
"6	c #6A6A6A",
"7	c #6A6A69",
"8	c #6A696A",
"9	c #696A6A",
"0	c #6A6969",
"a	c #696868",
"b	c #696869",
"c	c #686868",
"d	c #696968",
"e	c #696969",
"f	c #686969",
"g	c #686968",
"h	c #686869",
"i	c #676867",
"j	c #676767",
"k	c #676768",
"l	c #686867",
"m	c #686767",
"n	c #676868",
"o	c #686768",
"p	c #676766",
"q	c #666667",
"r	c #666666",
"s	c #676666",
"t	c #666767",
"u	c #656565",
"v	c #656665",
"w	c #666665",
"x	c #646464",
"y	c #636464",
"z	c #646364",
"A	c #636263",
"B	c #626363",
"C	c #636363",
"D	c #626263",
"E	c #636362",
"F	c #636262",
"G	c #626262",
"H	c #626162",
"I	c #626161",
"J	c #626261",
"K	c #616161",
"L	c #616261",
"M	c #616162",
"N	c #616262",
"O	c #606161",
"P	c #606060",
"Q	c #606061",
"R	c #616061",
"S	c #616160",
"T	c #616060",
"U	c #606160",
"....................",
"+@#$%%&*@%&#+%&#%#=@",
"-;>,')!>~!>'~>'>>!{]",
"^^^^^^^^^^^^^^^^^/^^",
"(_:_<::__(__________",
"__________________[_",
"}|1|12|2|3|4||}|55}|",
"67878906869868986897",
"ababcddbefbcaeacfgbh",
"ijkjklkkjimnjojomncn",
"jjjjjjjjjjjjjjjjjjjj",
"pqrrrrsrrrrqrrsrrttr",
"uuuuuuuuuvuuvwuuuuuu",
"xxxxxxxyzyxxxxxxxxxz",
"ABCCACCCDEFBEDACDCEE",
"GGGGGGGGGGGGGGGGGGGG",
"HIJIJIHIHKKLJMGLHNGG",
"OPKOOQRSTQPPQPUPTPUP"};
