/* XPM */
static char * expand_xpm[] = {
"20 20 124 2",
"  	c None",
". 	c #B2B2B1",
"+ 	c #9B9B9A",
"@ 	c #8F8F8F",
"# 	c #919190",
"$ 	c #919191",
"% 	c #848484",
"& 	c #B2B1B1",
"* 	c #909090",
"= 	c #B4B4B4",
"- 	c #DADADA",
"; 	c #EBEBEB",
"> 	c #ECECEC",
", 	c #B3B3B3",
"' 	c #90908F",
") 	c #B3B3B2",
"! 	c #9F9F9E",
"~ 	c #A3A3A3",
"{ 	c #E0E0E0",
"] 	c #E6E6E6",
"^ 	c #DFDFDF",
"/ 	c #A1A1A1",
"( 	c #A1A1A0",
"_ 	c #A09F9F",
": 	c #AEAEAE",
"< 	c #ACACAC",
"[ 	c #AEADAC",
"} 	c #9E9E9E",
"| 	c #D9D9D9",
"1 	c #B9B9B9",
"2 	c #9C9C9C",
"3 	c #AFAFAE",
"4 	c #C3C2C1",
"5 	c #8A8A89",
"6 	c #D0D0D0",
"7 	c #D5D5D5",
"8 	c #C8C8C8",
"9 	c #333333",
"0 	c #000000",
"a 	c #707070",
"b 	c #CECECE",
"c 	c #898989",
"d 	c #A9A8A8",
"e 	c #A4A4A4",
"f 	c #C0C0C0",
"g 	c #2C2C2C",
"h 	c #787878",
"i 	c #A0A0A0",
"j 	c #A8A7A7",
"k 	c #BBBBBB",
"l 	c #C9C9C9",
"m 	c #282828",
"n 	c #565656",
"o 	c #DCDCDC",
"p 	c #858585",
"q 	c #C2C2C2",
"r 	c #C3C3C3",
"s 	c #B1B1B1",
"t 	c #232323",
"u 	c #5A5A5A",
"v 	c #E1E1E1",
"w 	c #848483",
"x 	c #838383",
"y 	c #BDBDBD",
"z 	c #383838",
"A 	c #606060",
"B 	c #DDDDDD",
"C 	c #818181",
"D 	c #828282",
"E 	c #B7B7B7",
"F 	c #424242",
"G 	c #4F4F4F",
"H 	c #808080",
"I 	c #B2B2B2",
"J 	c #CDCDCD",
"K 	c #2E2E2E",
"L 	c #ADADAD",
"M 	c #8B8B8B",
"N 	c #AAAAAA",
"O 	c #D7D7D7",
"P 	c #373737",
"Q 	c #2F2F2F",
"R 	c #A2A2A2",
"S 	c #9F9F9F",
"T 	c #8C8C8C",
"U 	c #9F9E9E",
"V 	c #8A8A8A",
"W 	c #A6A6A6",
"X 	c #414141",
"Y 	c #525252",
"Z 	c #888888",
"` 	c #7D7D7D",
" .	c #979797",
"..	c #9A9A9A",
"+.	c #D4D4D4",
"@.	c #505050",
"#.	c #020202",
"$.	c #7C7C7C",
"%.	c #7D7C7C",
"&.	c #B4B3B2",
"*.	c #A09F9E",
"=.	c #929292",
"-.	c #939393",
";.	c #CFCFCF",
">.	c #E7E7E7",
",.	c #B5B5B5",
"'.	c #7E7E7E",
").	c #A0A09F",
"!.	c #8E8D8D",
"~.	c #8E8E8D",
"{.	c #8D8C8C",
"].	c #777777",
"^.	c #767676",
"/.	c #747474",
"(.	c #7A7A7A",
"_.	c #757575",
":.	c #787777",
"<.	c #9D9C9C",
"[.	c #999897",
"}.	c #757574",
"|.	c #727272",
"1.	c #777776",
"2.	c #6D6C6C",
"3.	c #999998",
"            . + @ # # $ % &             ",
"        & * = - ; > > ; - , ' )         ",
"      ! ~ { ] ] ] ] ] ] ] ] ^ / (       ",
"    _ : ^ { { { { { { { { { { ^ < _     ",
"  [ } | - - - - - - | 1 - - - - | 2 3   ",
"4 5 6 7 7 7 7 7 7 8 9 0 a 7 7 7 7 b c 4 ",
"d e b b b b b b f g 0 0 h b b b b b i j ",
"# k l l l l l 1 m 0 0 n o l l l l l 1 ' ",
"p q r r r r s t 0 0 u v r r r r r r q w ",
"x y y y y y z 0 0 A B y y y y y y y y C ",
"D E E E E E F 0 0 G = E E E E E E E E H ",
"D I I I I I J K 0 0 z L I I I I I I I H ",
"M i N N N N : O P 0 0 Q R N N N N N S T ",
"U V R R R R R W 7 X 0 0 Y R R R R R Z i ",
"  `  ...........2 +.@.#.$......... .%.&.",
"  *.` $ =.=.=.=.=.-.;.>.,.=.=.=.$ '.).  ",
"    !.$.c V V V V V V M V V V c ` ~.    ",
"      {.].H D D D D D D D D H ^.{.      ",
"        + ]./.^.(.(.(.(.]._.:.<.        ",
"            [.H }.|.|.1.2.3.            "};
