/* XPM */
static char * start_xpm[] = {
"60 25 126 2",
"  	c None",
". 	c #BDBEC8",
"+ 	c #969594",
"@ 	c #868584",
"# 	c #838282",
"$ 	c #858484",
"% 	c #979796",
"& 	c #BFC1CA",
"* 	c #8B8B8A",
"= 	c #C6C5C5",
"- 	c #DBDBDA",
"; 	c #DDDDDC",
"> 	c #C4C4C3",
", 	c #8B8A89",
"' 	c #929292",
") 	c #D8D8D7",
"! 	c #D4D4D3",
"~ 	c #C2C2C1",
"{ 	c #939393",
"] 	c #81807F",
"^ 	c #D8D7D7",
"/ 	c #D2D1D0",
"( 	c #D1D1D0",
"_ 	c #7E7D7D",
": 	c #D9D8D7",
"< 	c #D0CFCE",
"[ 	c #7D7C7C",
"} 	c #7D7C7B",
"| 	c #D7D6D6",
"1 	c #CECDCC",
"2 	c #4E4E4E",
"3 	c #343434",
"4 	c #0D0D0D",
"5 	c #D7D7D6",
"6 	c #7C7B7A",
"7 	c #7C7B7B",
"8 	c #D6D6D5",
"9 	c #CDCCCB",
"0 	c #C4C4C4",
"a 	c #E8E8E8",
"b 	c #818181",
"c 	c #CCCCCC",
"d 	c #B2B2B2",
"e 	c #9E9E9E",
"f 	c #D7D6D5",
"g 	c #7B7A7A",
"h 	c #D5D4D3",
"i 	c #CBCAC9",
"j 	c #D5D4D4",
"k 	c #7A7979",
"l 	c #7A7978",
"m 	c #D3D3D2",
"n 	c #C9C8C7",
"o 	c #E0E0E0",
"p 	c #D4D3D2",
"q 	c #797877",
"r 	c #787877",
"s 	c #C7C7C6",
"t 	c #636363",
"u 	c #D2D1D1",
"v 	c #777776",
"w 	c #787776",
"x 	c #D1D0D0",
"y 	c #C7C6C5",
"z 	c #C6C6C6",
"A 	c #777675",
"B 	c #767675",
"C 	c #C5C4C3",
"D 	c #757574",
"E 	c #CECDCD",
"F 	c #C3C2C1",
"G 	c #CECECD",
"H 	c #747473",
"I 	c #747373",
"J 	c #C1C0BF",
"K 	c #737272",
"L 	c #737372",
"M 	c #CCCBCA",
"N 	c #C0BFBE",
"O 	c #CCCBCB",
"P 	c #727271",
"Q 	c #727272",
"R 	c #CACACA",
"S 	c #BEBDBD",
"T 	c #CBCACA",
"U 	c #717171",
"V 	c #727170",
"W 	c #CAC9C8",
"X 	c #BDBCBB",
"Y 	c #71706F",
"Z 	c #707070",
"` 	c #C8C7C7",
" .	c #BBBBBB",
"..	c #C8C8C8",
"+.	c #6F6F6F",
"@.	c #706F6F",
"#.	c #BBBAB9",
"$.	c #C8C7C6",
"%.	c #6F6E6E",
"&.	c #6A6968",
"*.	c #C2C1C0",
"=.	c #B9B8B7",
"-.	c #6A6A69",
";.	c #777676",
">.	c #A6A5A4",
",.	c #B6B5B4",
"'.	c #B7B6B5",
").	c #A4A3A3",
"!.	c #A09F9E",
"~.	c #A4A3A2",
"{.	c #B9B8B8",
"].	c #BCBBBA",
"^.	c #BBBABA",
"/.	c #BAB9B8",
"(.	c #A3A2A1",
"_.	c #6E6E6D",
":.	c #A1A09F",
"<.	c #ADACAB",
"[.	c #9E9D9D",
"}.	c #757474",
"|.	c #676665",
"1.	c #646362",
"2.	c #646463",
"3.	c #666565",
"4.	c #767574",
"5.	c #9F9E9E",
". . + @ # # # # # # # # # # # # # # # # # # # # # # # # # # # # # # # # # # # # # # # # # # # # # # # # # # # # $ % . . ",
"& * = - ; ; ; ; ; ; ; ; ; ; ; ; ; ; ; ; ; ; ; ; ; ; ; ; ; ; ; ; ; ; ; ; ; ; ; ; ; ; ; ; ; ; ; ; ; ; ; ; ; ; ; ; - > , & ",
"' > ) ! ! ! ! ! ! ! ! ! ! ! ! ! ! ! ! ! ! ! ! ! ! ! ! ! ! ! ! ! ! ! ! ! ! ! ! ! ! ! ! ! ! ! ! ! ! ! ! ! ! ! ! ! ! ) ~ { ",
"] ^ / ( / / / / / / / / / / / / / / / / / / / / / / / / / / / / / / / / / / / / / / / / / / / / / / / / / / / / / / ) ] ",
"_ : < < < < < < < < < < < < < < < < < < < < < < < < < < < < < < < < < < < < < < < < < < < < < < < < < < < < < < < < : [ ",
"_ : < < < < < < < < < < < < < < < < < < < < < < < < < < < < < < < < < < < < < < < < < < < < < < < < < < < < < < < < : [ ",
"} | 1 1 1 1 1 1 1 1 1 1 1 1 1 1 1 1 1 1 1 1 1 2 2 3 1 4 2 2 3 1 4 2 2 1 2 2 2 3 1 4 2 2 2 1 1 1 1 1 1 1 1 1 1 1 1 1 5 6 ",
"7 8 9 9 9 9 9 9 9 9 9 9 9 9 9 9 9 9 9 9 9 9 3 0 a a 4 b a a c 4 d a a 4 a a a e 4 2 a a a 2 9 9 9 9 9 9 9 9 9 9 9 9 f g ",
"g h i i i i i i i 2 2 i i i i i i i i i i i 3 e a a 3 c a a a 3 d a a 4 a a a a 4 e a a a 2 i i i i i i i i i i i i j k ",
"l m n n n n n n 2 o o 4 n n n n n n n n n n 3 3 c a b a a a a b a a e 4 a a 0 a 4 0 a a a 2 n n n n 4 4 n n n n n n p q ",
"r / s s s s s s 2 o o 4 s 4 2 2 3 4 3 4 4 2 2 4 4 e a a a d a a a a b 4 a a d a 2 a e a a t s s s 4 2 a s s s s s s u v ",
"w x y y y y y y 2 o o 4 4 z o o o d 4 2 o o o o 2 3 a a e t a a a a 2 4 a a 2 3 3 4 4 a a 2 y y y 4 a 0 y y y y y y ( A ",
"B < C C C C C C 2 o o 4 b o b 4 b t 4 z o t t o z 4 a a b 4 a a a a 4 4 a a 4 d e t 3 a a 2 C C 3 d a d C C C C C C < D ",
"D E F F F F F F 2 o o 4 e o 2 F 4 4 4 o o e e e e 3 a a 4 4 c a a d 4 4 a 4 e e e b 2 4 3 4 F 4 e a a 0 F F F F F F G H ",
"I 9 J J J J J J 2 o o 4 t o e 2 z z 4 d o t 2 e b 2 a a 4 3 b a a e 3 4 4 t c t e e b 2 b 2 4 4 c c a a J J J J J J 9 K ",
"L M N N N N N N 2 o o 4 4 b o o z t 3 4 z o o d 4 3 2 3 4 N 3 t 2 4 4 3 t b d e b e b t t b 2 b 0 e c a N N N N N N O P ",
"Q R S S S S S S S 4 4 S S 4 4 4 4 4 S 3 4 4 4 4 S S S S S S S S 4 4 b c d t e b b d b b t 2 t 0 e d e a S S S S S S T U ",
"V W X X X X X X X X X X X X X X X X X X X X X X X X X X X 4 3 3 t 0 a e e e b t e 0 b t t 3 e e 0 d d a X X X X X X W Y ",
"Z `  . . . . . . . . . . . . . .2 3 3 4 4 4 4 4 3 4 4 3 3 t t b d a 0 b e t b t 0 e b b t b c e b d c 0  . . . . . ...+.",
"@.s #.#.#.#.#.#.#.#.#.#.#.#.#.4 2 t b b b b b b e e b e b e c c 0 c b e d t t d b e e t 2 a d d t e a 0 #.#.#.#.#.#.$.%.",
"&.*.=.=.=.=.=.=.=.=.=.=.=.=.=.=.=.=.=.=.=.=.=.=.=.=.=.=.=.=.=.=.=.=.=.=.=.=.=.=.=.=.=.=.=.=.=.=.=.=.=.=.=.=.=.=.=.=.*.-.",
"&.*.=.=.=.=.=.=.=.=.=.=.=.=.=.=.=.=.=.=.=.=.=.=.=.=.=.=.=.=.=.=.=.=.=.=.=.=.=.=.=.=.=.=.=.=.=.=.=.=.=.=.=.=.=.=.=.=.*.-.",
";.>.,.'.'.'.'.'.'.'.'.'.'.'.'.'.'.'.'.'.'.'.'.'.'.'.'.'.'.'.'.'.'.'.'.'.'.'.'.'.'.'.'.'.'.'.'.'.'.'.'.'.'.'.'.'.'.,.).r ",
"!.%.~.{.].].].].].].].].].].].].].].].].].].].].].].].].].].].].].].].].].].].].].].].].].].].].].].].].].].^.]./.(._.:.",
"<.[.}.|.1.1.1.1.1.1.1.1.1.1.1.1.1.1.1.1.1.1.1.1.1.1.1.1.1.1.1.1.1.1.1.1.1.1.1.1.1.1.1.1.1.1.1.1.1.1.1.1.1.1.2.1.3.4.5.<."};
