/* XPM */
static char * taskbarbg_xpm[] = {
"1 32 7 1",
" 	c None",
".	c #E0DFDE",
"+	c #BDBEC8",
"@	c #BFC1CA",
"#	c #BFC0CA",
"$	c #BFC0C9",
"%	c #BFC0C8",
".",
"+",
"+",
"+",
"@",
"@",
"@",
"#",
"#",
"$",
"$",
"$",
"$",
"$",
"$",
"$",
"$",
"$",
"$",
"$",
"$",
"$",
"$",
"$",
"$",
"%",
"%",
"%",
"%",
"%",
"%",
"%"};
