/* XPM */
static char * taskbuttonbg_xpm[] = {
"1 31 6 1",
" 	c None",
".	c #BDBEC8",
"+	c #BFC1CA",
"@	c #BFC0CA",
"#	c #BFC0C9",
"$	c #BFC0C8",
".",
".",
".",
"+",
"+",
"+",
"@",
"@",
"#",
"#",
"#",
"#",
"#",
"#",
"#",
"#",
"#",
"#",
"#",
"#",
"#",
"#",
"#",
"#",
"$",
"$",
"$",
"$",
"$",
"$",
"$"};
