/* XPM */
static char * workspacebuttonactive_xpm[] = {
"31 31 193 2",
"  	c None",
". 	c #BDBEC8",
"+ 	c #C1C1C0",
"@ 	c #899198",
"# 	c #737980",
"$ 	c #6B7177",
"% 	c #6D7379",
"& 	c #6C6E72",
"* 	c #74767B",
"= 	c #8C8F95",
"- 	c #C4C3C2",
"; 	c #BFC1CA",
"> 	c #BFBEBE",
", 	c #767D83",
"' 	c #6F757B",
") 	c #7A8187",
"! 	c #7D848B",
"~ 	c #7E858C",
"{ 	c #7F8187",
"] 	c #7A7C81",
"^ 	c #77797E",
"/ 	c #727478",
"( 	c #7D7F84",
"_ 	c #C1C0BF",
": 	c #9098A0",
"< 	c #81888F",
"[ 	c #8D959D",
"} 	c #929AA2",
"| 	c #949CA4",
"1 	c #97A0A8",
"2 	c #999CA2",
"3 	c #92959B",
"4 	c #8C8F94",
"5 	c #818388",
"6 	c #828991",
"7 	c #949CA5",
"8 	c #9DA6AE",
"9 	c #A1AAB3",
"0 	c #A4ADB6",
"a 	c #A7B1BA",
"b 	c #A8ACB3",
"c 	c #A2A6AC",
"d 	c #9DA0A7",
"e 	c #93969C",
"f 	c #82848A",
"g 	c #7E8085",
"h 	c #BFC0CA",
"i 	c #7C838A",
"j 	c #9EA7AF",
"k 	c #A6B0B8",
"l 	c #AEB3B9",
"m 	c #AEB2B9",
"n 	c #A7ABB1",
"o 	c #A5A9AF",
"p 	c #9FA2A9",
"q 	c #91949A",
"r 	c #7C7E83",
"s 	c #BFC0C9",
"t 	c #878E95",
"u 	c #9CA5AD",
"v 	c #A5AEB7",
"w 	c #A8B1BA",
"x 	c #AAB3BC",
"y 	c #B1B6BC",
"z 	c #B1B5BC",
"A 	c #ACB0B6",
"B 	c #A9ADB3",
"C 	c #A5A8AF",
"D 	c #9B9EA4",
"E 	c #87898F",
"F 	c #8C949B",
"G 	c #9FA8B0",
"H 	c #A7B0B9",
"I 	c #AAB4BD",
"J 	c #AEB8C1",
"K 	c #B4B9BF",
"L 	c #B4B8BF",
"M 	c #B1B4BB",
"N 	c #ACAFB6",
"O 	c #A9ABB2",
"P 	c #A0A3AA",
"Q 	c #8D9095",
"R 	c #AAB4BC",
"S 	c #AEB8C0",
"T 	c #B1B4BA",
"U 	c #ACAFB5",
"V 	c #A0A3A9",
"W 	c #8D8F95",
"X 	c #9FA8AF",
"Y 	c #A7B0B8",
"Z 	c #AEB7C0",
"` 	c #B1B3BA",
" .	c #ACAEB5",
"..	c #8C939A",
"+.	c #9FA7AF",
"@.	c #AAB3BB",
"#.	c #AEB7BF",
"$.	c #B4B8BE",
"%.	c #8B939A",
"&.	c #9FA7AE",
"*.	c #A7AFB7",
"=.	c #B4B7BE",
"-.	c #8B9399",
";.	c #AEB6BE",
">.	c #A9ABB1",
",.	c #A6AEB6",
"'.	c #A9B1B9",
").	c #ADB5BD",
"!.	c #B0B2B9",
"~.	c #ABADB3",
"{.	c #A7AAB0",
"].	c #8C8E93",
"^.	c #9FA6AE",
"/.	c #A6AEB5",
"(.	c #A9B1B8",
"_.	c #AFB2B8",
":.	c #AAADB3",
"<.	c #8A9198",
"[.	c #9EA5AC",
"}.	c #A5ADB4",
"|.	c #A8B0B7",
"1.	c #ACB4BC",
"2.	c #AEB1B7",
"3.	c #A9ACB2",
"4.	c #A6A9AF",
"5.	c #9FA2A8",
"6.	c #8B8D92",
"7.	c #8B9298",
"8.	c #9DA4AB",
"9.	c #A4ABB3",
"0.	c #ABB3BA",
"a.	c #B3B7BD",
"b.	c #B3B6BD",
"c.	c #ABAEB4",
"d.	c #A5A8AE",
"e.	c #9DA0A5",
"f.	c #8D8F94",
"g.	c #899096",
"h.	c #9BA2A8",
"i.	c #A3AAB1",
"j.	c #A6ADB4",
"k.	c #AAB1B8",
"l.	c #B1B5BA",
"m.	c #A4A7AD",
"n.	c #9B9DA3",
"o.	c #BFC0C8",
"p.	c #8E959B",
"q.	c #979DA4",
"r.	c #A1A8AF",
"s.	c #A4ABB2",
"t.	c #A9B0B7",
"u.	c #AEB2B7",
"v.	c #A2A5AA",
"w.	c #989AA0",
"x.	c #909297",
"y.	c #9FA5AB",
"z.	c #9BA1A8",
"A.	c #A1A8AE",
"B.	c #A8AFB6",
"C.	c #A7AAAF",
"D.	c #9C9EA4",
"E.	c #919398",
"F.	c #9FA1A6",
"G.	c #A7ABAE",
"H.	c #868D92",
"I.	c #999FA5",
"J.	c #9DA4AA",
"K.	c #A4ABB1",
"L.	c #A2A9AF",
"M.	c #A3A6AB",
"N.	c #9EA1A6",
"O.	c #9A9CA2",
"P.	c #858584",
"Q.	c #B4B6B7",
"R.	c #BABFC5",
"S.	c #99A0A5",
"T.	c #8A9196",
"U.	c #878D93",
"V.	c #8D9499",
"W.	c #8E959A",
"X.	c #8A8C91",
"Y.	c #9D9FA4",
"Z.	c #7E7D7C",
"`.	c #B2B1B0",
" +	c #BDBCBB",
".+	c #B9BBBC",
"++	c #CAD0D6",
"@+	c #CDD4D9",
"#+	c #CDD3D9",
"$+	c #CFD1D6",
"%+	c #CBCDD3",
"&+	c #B8B7B7",
"*+	c #BDBCBC",
". . . . . . . . . . . . . . . . . . . . . . . . . . . . . . . ",
". . . . . . . . . . . . . . . . . . . . . . . . . . . . . . . ",
". . . + @ # $ % $ $ $ $ $ $ $ $ $ $ $ $ $ $ & & & * = - . . . ",
"; ; > , ' , ) ! ~ ~ ~ ~ ~ ~ ~ ~ ~ ~ ~ ~ ~ ~ { { ] ^ / ( _ ; ; ",
"; ; : # < [ } | 1 1 1 1 1 1 1 1 1 1 1 1 1 1 2 2 3 4 5 * 3 ; ; ",
"; ; ! 6 7 8 9 0 a a a a a a a a a a a a a a b b c d e f g ; ; ",
"h h i : j 0 k l l l l l l l l l l l l l l l m m n o p q r h h ",
"s s t u v w x y y y y y y y y y y y y y y y z z A B C D E h s ",
"s s F G H I J K K K K K K K K K K K K K K K L L M N O P Q s s ",
"s s F G H R S K K K K K K K K K K K K K K K L L T N O P Q s s ",
"s s F G H R S K K K K K K K K K K K K K K K L L T U O V W s s ",
"s s F X Y x Z K K K K K K K K K K K K K K K L L `  .O V W s s ",
"s s ..+.Y x Z K K K K K K K K K K K K K K K L L `  .O V W s s ",
"s s ..+.Y @.#.K K K K K K K K K K K K K K K $.$.`  .O V W s s ",
"s s %.+.Y @.#.$.L $.$.$.L $.$.$.$.$.L $.$.$.$.$.`  .O V W s s ",
"s s %.+.Y @.#.$.L $.$.$.L $.$.$.$.$.L $.$.$.$.$.`  .O V W s s ",
"s s %.+.Y @.#.$.$.$.$.$.$.$.$.$.$.$.$.$.$.$.$.$.`  .O V W s s ",
"s s %.&.*.@.#.$.$.$.$.$.$.$.$.$.$.$.$.$.$.$.=.=.`  .O V W s s ",
"s s -.&.*.@.;.$.$.$.$.$.$.$.$.$.$.$.$.$.$.$.=.=.`  .>.V W s s ",
"s s -.&.,.'.).$.$.$.$.$.$.$.$.$.$.$.$.$.$.$.=.=.!.~.{.V ].s s ",
"s s -.^./.(.).$.$.$.$.$.$.$.$.$.$.$.$.$.$.$.=.=._.:.{.V ].s s ",
"s s <.[.}.|.1.$.$.$.$.$.$.$.$.$.$.$.$.$.$.$.=.=.2.3.4.5.6.s s ",
"s s 7.8.9.|.0.a.a.a.a.a.a.a.a.a.a.a.a.a.a.a.b.b.c.3.d.e.f.s s ",
"s s g.h.i.j.k.l.l.l.l.l.l.l.l.l.l.l.l.l.l.l.T T :.{.m.n.6.s s ",
"o.o.p.q.r.s.t.u.u.u.u.u.u.u.u.u.u.u.u.u.u.u.2.2.:.d.v.w.x.o.o.",
"o.o.y.p.z.A.j.B.t.t.t.t.t.t.t.t.t.t.t.t.t.t.c.c.C.v.D.E.F.o.o.",
"o.o.G.H.7.I.J.K.L.L.L.L.L.L.L.L.L.L.L.L.L.L.M.M.N.O.f.].P.o.o.",
"o.o.Q.R.S.T.U.V.p.W.W.W.W.W.W.W.W.W.W.W.W.W.E.E.X.f.Y.Z.`.o.o.",
"o.o. +.+++@+#+#+#+#+#+#+#+#+#+#+#+#+#+#+#+#+$+$+$+$+%+&+*+o.o.",
"o.o.o.o.o.o.o.o.o.o.o.o.o.o.o.o.o.o.o.o.o.o.o.o.o.o.o.o.o.o.o.",
"o.o.o.o.o.o.o.o.o.o.o.o.o.o.o.o.o.o.o.o.o.o.o.o.o.o.o.o.o.o.o."};
