/* XPM */
static char * workspacebuttonactive_xpm[] = {
"31 31 126 2",
"  	c None",
". 	c #D5D4D3",
"+ 	c #D6D5D4",
"@ 	c #D8D7D6",
"# 	c #DBDAD9",
"$ 	c #DCDBDA",
"% 	c #D2D1D0",
"& 	c #C1C1C0",
"* 	c #8B8B8A",
"= 	c #847F7E",
"- 	c #8D8D8C",
"; 	c #C4C3C2",
"> 	c #D0CFCE",
", 	c #BFBEBE",
"' 	c #7A7979",
") 	c #8E8D8C",
"! 	c #ACA8A7",
"~ 	c #C1C0BF",
"{ 	c #CECDCC",
"] 	c #898887",
"^ 	c #929191",
"/ 	c #A3A2A2",
"( 	c #AFAEAD",
"_ 	c #A2A1A0",
": 	c #919090",
"< 	c #8A8A89",
"[ 	c #CCCBCA",
"} 	c #757574",
"| 	c #A1A09F",
"1 	c #AEAEAD",
"2 	c #757473",
"3 	c #CAC9C8",
"4 	c #767574",
"5 	c #A6A6A5",
"6 	c #ADACAB",
"7 	c #C9C8C7",
"8 	c #7F7E7D",
"9 	c #A8A7A6",
"0 	c #ACABAA",
"a 	c #A9A8A7",
"b 	c #C7C6C5",
"c 	c #828181",
"d 	c #A9A9A8",
"e 	c #C5C4C3",
"f 	c #81807F",
"g 	c #A7A6A5",
"h 	c #AAA9A8",
"i 	c #ABAAA9",
"j 	c #C2C1C0",
"k 	c #7F7F7E",
"l 	c #A5A4A4",
"m 	c #A6A5A4",
"n 	c #C0BFBE",
"o 	c #7E7D7C",
"p 	c #A3A2A1",
"q 	c #A7A7A6",
"r 	c #A4A3A2",
"s 	c #BEBDBC",
"t 	c #7C7C7B",
"u 	c #7B7A7A",
"v 	c #9F9F9E",
"w 	c #A5A4A3",
"x 	c #A09F9F",
"y 	c #A5A5A4",
"z 	c #7A7978",
"A 	c #9E9D9C",
"B 	c #A4A4A3",
"C 	c #9F9E9D",
"D 	c #BCBBBA",
"E 	c #797878",
"F 	c #9D9C9B",
"G 	c #BBBAB9",
"H 	c #787777",
"I 	c #9B9A9A",
"J 	c #A2A1A1",
"K 	c #9C9B9B",
"L 	c #B9B8B8",
"M 	c #767575",
"N 	c #999898",
"O 	c #9F9E9E",
"P 	c #999999",
"Q 	c #B6B5B5",
"R 	c #757474",
"S 	c #989796",
"T 	c #9E9D9D",
"U 	c #999897",
"V 	c #B5B4B3",
"W 	c #747373",
"X 	c #969595",
"Y 	c #979695",
"Z 	c #B3B2B1",
"` 	c #737271",
" .	c #959493",
"..	c #9B9A99",
"+.	c #959494",
"@.	c #B1B0AF",
"#.	c #717171",
"$.	c #939292",
"%.	c #949393",
"&.	c #AFAEAE",
"*.	c #71706F",
"=.	c #929190",
"-.	c #939291",
";.	c #AEADAC",
">.	c #6F6F6E",
",.	c #90908F",
"'.	c #969695",
").	c #91908F",
"!.	c #727170",
"~.	c #8D8C8B",
"{.	c #878686",
"].	c #908F8E",
"^.	c #B0AFAE",
"/.	c #8D8C8C",
"(.	c #8F8E8D",
"_.	c #B2B1B0",
":.	c #BDBCBB",
"<.	c #B6B6B5",
"[.	c #828180",
"}.	c #80807F",
"|.	c #B8B7B7",
"1.	c #BDBCBC",
"2.	c #CDCCCB",
"3.	c #D3D2D2",
"4.	c #D3D3D2",
"5.	c #BCBCBB",
". . . . . . . . . . . . . . . . . . . . . . . . . . . . . . . ",
"+ + . @ # $ $ $ $ $ $ $ $ $ $ $ $ $ $ $ $ $ $ $ $ $ # @ . + + ",
"% % # & * = = = = = = = = = = = = = = = = = = = = = - ; # % % ",
"> > , ' ) ! ! ! ! ! ! ! ! ! ! ! ! ! ! ! ! ! ! ! ! ! ) ' ~ > > ",
"{ { ] ^ / ( ( ( ( ( ( ( ( ( ( ( ( ( ( ( ( ( ( ( ( ( _ : < { { ",
"[ [ } | 1 1 1 1 1 1 1 1 1 1 1 1 1 1 1 1 1 1 1 1 1 1 1 | 2 [ [ ",
"3 3 4 5 6 6 6 6 6 6 6 6 6 6 6 6 6 6 6 6 6 6 6 6 6 6 6 5 4 3 3 ",
"7 7 8 9 0 0 0 0 0 0 0 0 0 0 0 0 0 0 0 0 0 0 0 0 0 0 0 a 8 7 7 ",
"b b c a 0 0 0 0 0 0 0 0 0 0 0 0 0 0 0 0 0 0 0 0 0 0 0 d c b b ",
"e e f g h h i i i i i i i i i i i i i i i i i i i i h 9 f e e ",
"j j k l a a a a a a a a a a a a a a a a a a a a a a a m k j j ",
"n n o p q q q q q q q q q q q q q q q q q q q q q q q r o n n ",
"s s t | 5 5 5 5 5 5 5 5 5 5 5 5 5 5 5 5 5 5 5 5 5 5 5 _ t s s ",
"s s u v w w w w w w w w w w w w w w w w w w w w w w w x u s s ",
"s s u v y y y y y y y y y y y y y y y y y y y y y y y x u s s ",
"s s z A B B B B B B B B B B B B B B B B B B B B B B B C z s s ",
"D D E F r r r r r r r r r r r r r r r r r r r r r r r A E D D ",
"G G H I J J J J J J J J J J J J J J J J J J J J J J J K H G G ",
"L L M N O O O O O O O O O O O O O O O O O O O O O O O P M L L ",
"Q Q R S T T T T T T T T T T T T T T T T T T T T T T T U R Q Q ",
"V V W X F F F F F F F F F F F F F F F F F F F F F F F Y W V V ",
"Z Z `  ...............................................+.` Z Z ",
"@.@.#.$.N N N N N N N N N N N N N N N N N N N N N N N %.#.@.@.",
"&.&.*.=.S S S S S S S S S S S S S S S S S S S S S S S -.*.&.&.",
";.;.>.,.'.'.'.'.'.'.'.'.'.'.'.'.'.'.'.'.'.'.'.'.'.'.'.).>.;.;.",
"0 0 !.) -.-.-.-.-.-.-.-.-.-.-.-.-.-.-.-.-.-.-.-.-.-.-.~.!.0 0 ",
"g g !.{.].=.).).).).).).).).).).).).).).).).).).).).].~.!.g g ",
"w w ^.o ] /.(.(.(.(.(.(.(.(.(.(.(.(.(.(.(.(.(.(.(.(.] o _.w w ",
"p p :.<.].[.}.}.}.}.}.}.}.}.}.}.}.}.}.}.}.}.}.}.}.[.,.|.1.p p ",
"p p p :.2.3.4.4.4.4.4.4.4.4.4.4.4.4.4.4.4.4.4.4.4.3.2.5.p p p ",
"p p p p p p p p p p p p p p p p p p p p p p p p p p p p p p p "};
