/* XPM */
static char * workspacebuttonactive_xpm[] = {
"50 29 126 2",
"  	c None",
". 	c #D5D4D3",
"+ 	c #D8D7D6",
"@ 	c #DBDAD9",
"# 	c #DCDBDA",
"$ 	c #D6D5D4",
"% 	c #C1C1C0",
"& 	c #8B8B8A",
"* 	c #847F7E",
"= 	c #8D8D8C",
"- 	c #C4C3C2",
"; 	c #D2D1D0",
"> 	c #BFBEBE",
", 	c #7A7979",
"' 	c #8E8D8C",
") 	c #ACA8A7",
"! 	c #C1C0BF",
"~ 	c #D0CFCE",
"{ 	c #898887",
"] 	c #929191",
"^ 	c #A3A2A2",
"/ 	c #AFAEAD",
"( 	c #A2A1A0",
"_ 	c #919090",
": 	c #8A8A89",
"< 	c #CECDCC",
"[ 	c #757574",
"} 	c #A1A09F",
"| 	c #AEAEAD",
"1 	c #757473",
"2 	c #CCCBCA",
"3 	c #767574",
"4 	c #A6A6A5",
"5 	c #ADACAB",
"6 	c #CAC9C8",
"7 	c #7F7E7D",
"8 	c #A8A7A6",
"9 	c #ACABAA",
"0 	c #A9A8A7",
"a 	c #C9C8C7",
"b 	c #828181",
"c 	c #A9A9A8",
"d 	c #C7C6C5",
"e 	c #81807F",
"f 	c #A7A6A5",
"g 	c #AAA9A8",
"h 	c #ABAAA9",
"i 	c #C5C4C3",
"j 	c #7F7F7E",
"k 	c #A5A4A4",
"l 	c #A6A5A4",
"m 	c #C2C1C0",
"n 	c #7E7D7C",
"o 	c #A3A2A1",
"p 	c #A7A7A6",
"q 	c #A4A3A2",
"r 	c #C0BFBE",
"s 	c #7C7C7B",
"t 	c #BEBDBC",
"u 	c #7B7A7A",
"v 	c #9F9F9E",
"w 	c #A5A4A3",
"x 	c #A09F9F",
"y 	c #A5A5A4",
"z 	c #BCBBBA",
"A 	c #7A7978",
"B 	c #9E9D9C",
"C 	c #A4A4A3",
"D 	c #9F9E9D",
"E 	c #BBBAB9",
"F 	c #797878",
"G 	c #9D9C9B",
"H 	c #B9B8B8",
"I 	c #787777",
"J 	c #9B9A9A",
"K 	c #A2A1A1",
"L 	c #9C9B9B",
"M 	c #B6B5B5",
"N 	c #767575",
"O 	c #999898",
"P 	c #9F9E9E",
"Q 	c #999999",
"R 	c #B5B4B3",
"S 	c #757474",
"T 	c #989796",
"U 	c #9E9D9D",
"V 	c #999897",
"W 	c #B3B2B1",
"X 	c #747373",
"Y 	c #969595",
"Z 	c #979695",
"` 	c #B1B0AF",
" .	c #737271",
"..	c #959493",
"+.	c #9B9A99",
"@.	c #959494",
"#.	c #AFAEAE",
"$.	c #717171",
"%.	c #939292",
"&.	c #949393",
"*.	c #AEADAC",
"=.	c #71706F",
"-.	c #929190",
";.	c #939291",
">.	c #6F6F6E",
",.	c #90908F",
"'.	c #969695",
").	c #91908F",
"!.	c #727170",
"~.	c #8D8C8B",
"{.	c #878686",
"].	c #908F8E",
"^.	c #B0AFAE",
"/.	c #8D8C8C",
"(.	c #8F8E8D",
"_.	c #B2B1B0",
":.	c #BDBCBB",
"<.	c #B6B6B5",
"[.	c #828180",
"}.	c #80807F",
"|.	c #B8B7B7",
"1.	c #BDBCBC",
"2.	c #CDCCCB",
"3.	c #D3D2D2",
"4.	c #D3D3D2",
"5.	c #BCBCBB",
". . . + @ # # # # # # # # # # # # # # # # # # # # # # # # # # # # # # # # # # # # # # # # @ + . . . ",
"$ $ @ % & * * * * * * * * * * * * * * * * * * * * * * * * * * * * * * * * * * * * * * * * = - @ $ $ ",
"; ; > , ' ) ) ) ) ) ) ) ) ) ) ) ) ) ) ) ) ) ) ) ) ) ) ) ) ) ) ) ) ) ) ) ) ) ) ) ) ) ) ) ) ' , ! ; ; ",
"~ ~ { ] ^ / / / / / / / / / / / / / / / / / / / / / / / / / / / / / / / / / / / / / / / / ( _ : ~ ~ ",
"< < [ } | | | | | | | | | | | | | | | | | | | | | | | | | | | | | | | | | | | | | | | | | | } 1 < < ",
"2 2 3 4 5 5 5 5 5 5 5 5 5 5 5 5 5 5 5 5 5 5 5 5 5 5 5 5 5 5 5 5 5 5 5 5 5 5 5 5 5 5 5 5 5 5 4 3 2 2 ",
"6 6 7 8 9 9 9 9 9 9 9 9 9 9 9 9 9 9 9 9 9 9 9 9 9 9 9 9 9 9 9 9 9 9 9 9 9 9 9 9 9 9 9 9 9 9 0 7 6 6 ",
"a a b 0 9 9 9 9 9 9 9 9 9 9 9 9 9 9 9 9 9 9 9 9 9 9 9 9 9 9 9 9 9 9 9 9 9 9 9 9 9 9 9 9 9 9 c b a a ",
"d d e f g g h h h h h h h h h h h h h h h h h h h h h h h h h h h h h h h h h h h h h h h g 8 e d d ",
"i i j k 0 0 0 0 0 0 0 0 0 0 0 0 0 0 0 0 0 0 0 0 0 0 0 0 0 0 0 0 0 0 0 0 0 0 0 0 0 0 0 0 0 0 l j i i ",
"m m n o p p p p p p p p p p p p p p p p p p p p p p p p p p p p p p p p p p p p p p p p p p q n m m ",
"r r s } 4 4 4 4 4 4 4 4 4 4 4 4 4 4 4 4 4 4 4 4 4 4 4 4 4 4 4 4 4 4 4 4 4 4 4 4 4 4 4 4 4 4 ( s r r ",
"t t u v w w w w w w w w w w w w w w w w w w w w w w w w w w w w w w w w w w w w w w w w w w x u t t ",
"t t u v y y y y y y y y y y y y y y y y y y y y y y y y y y y y y y y y y y y y y y y y y y x u t t ",
"z z A B C C C C C C C C C C C C C C C C C C C C C C C C C C C C C C C C C C C C C C C C C C D A z z ",
"E E F G q q q q q q q q q q q q q q q q q q q q q q q q q q q q q q q q q q q q q q q q q q B F E E ",
"H H I J K K K K K K K K K K K K K K K K K K K K K K K K K K K K K K K K K K K K K K K K K K L I H H ",
"M M N O P P P P P P P P P P P P P P P P P P P P P P P P P P P P P P P P P P P P P P P P P P Q N M M ",
"R R S T U U U U U U U U U U U U U U U U U U U U U U U U U U U U U U U U U U U U U U U U U U V S R R ",
"W W X Y G G G G G G G G G G G G G G G G G G G G G G G G G G G G G G G G G G G G G G G G G G Z X W W ",
"` `  ...+.+.+.+.+.+.+.+.+.+.+.+.+.+.+.+.+.+.+.+.+.+.+.+.+.+.+.+.+.+.+.+.+.+.+.+.+.+.+.+.+.+.@. .` ` ",
"#.#.$.%.O O O O O O O O O O O O O O O O O O O O O O O O O O O O O O O O O O O O O O O O O O &.$.#.#.",
"*.*.=.-.T T T T T T T T T T T T T T T T T T T T T T T T T T T T T T T T T T T T T T T T T T ;.=.*.*.",
"9 9 >.,.'.'.'.'.'.'.'.'.'.'.'.'.'.'.'.'.'.'.'.'.'.'.'.'.'.'.'.'.'.'.'.'.'.'.'.'.'.'.'.'.'.'.).>.9 9 ",
"f f !.' ;.;.;.;.;.;.;.;.;.;.;.;.;.;.;.;.;.;.;.;.;.;.;.;.;.;.;.;.;.;.;.;.;.;.;.;.;.;.;.;.;.;.~.!.f f ",
"w w !.{.].-.).).).).).).).).).).).).).).).).).).).).).).).).).).).).).).).).).).).).).).).].~.!.w w ",
"o o ^.n { /.(.(.(.(.(.(.(.(.(.(.(.(.(.(.(.(.(.(.(.(.(.(.(.(.(.(.(.(.(.(.(.(.(.(.(.(.(.(.(.{ n _.o o ",
"o o :.<.].[.}.}.}.}.}.}.}.}.}.}.}.}.}.}.}.}.}.}.}.}.}.}.}.}.}.}.}.}.}.}.}.}.}.}.}.}.}.}.[.,.|.1.o o ",
"5 5 5 :.2.3.4.4.4.4.4.4.4.4.4.4.4.4.4.4.4.4.4.4.4.4.4.4.4.4.4.4.4.4.4.4.4.4.4.4.4.4.4.4.3.2.5.5 5 5 "};
