/* XPM */
static char * workspacebuttonbg_xpm[] = {
"50 29 141 2",
"  	c None",
". 	c #D5D4D3",
"+ 	c #D8D7D6",
"@ 	c #DBDAD9",
"# 	c #DCDBDA",
"$ 	c #D6D5D4",
"% 	c #C5C4C3",
"& 	c #969594",
"* 	c #868584",
"= 	c #838282",
"- 	c #858484",
"; 	c #979796",
"> 	c #C7C6C5",
", 	c #D2D1D0",
"' 	c #C3C2C1",
") 	c #8B8B8A",
"! 	c #C6C5C5",
"~ 	c #DBDBDA",
"{ 	c #DDDDDC",
"] 	c #C4C4C3",
"^ 	c #8B8A89",
"/ 	c #C4C3C3",
"( 	c #D0CFCE",
"_ 	c #929292",
": 	c #D8D8D7",
"< 	c #D4D4D3",
"[ 	c #C2C2C1",
"} 	c #939393",
"| 	c #CECDCC",
"1 	c #81807F",
"2 	c #D8D7D7",
"3 	c #D1D1D0",
"4 	c #CCCBCA",
"5 	c #7E7D7D",
"6 	c #D9D8D7",
"7 	c #7D7C7C",
"8 	c #CAC9C8",
"9 	c #7D7C7B",
"0 	c #D7D6D6",
"a 	c #D7D7D6",
"b 	c #7C7B7A",
"c 	c #C9C8C7",
"d 	c #7C7B7B",
"e 	c #D6D6D5",
"f 	c #CDCCCB",
"g 	c #D7D6D5",
"h 	c #7B7A7A",
"i 	c #CBCAC9",
"j 	c #D5D4D4",
"k 	c #7A7979",
"l 	c #7A7978",
"m 	c #D3D3D2",
"n 	c #D4D3D2",
"o 	c #797877",
"p 	c #C2C1C0",
"q 	c #787877",
"r 	c #C7C7C6",
"s 	c #D2D1D1",
"t 	c #777776",
"u 	c #C0BFBE",
"v 	c #787776",
"w 	c #D1D0D0",
"x 	c #777675",
"y 	c #BEBDBC",
"z 	c #767675",
"A 	c #757574",
"B 	c #CECDCD",
"C 	c #CECECD",
"D 	c #747473",
"E 	c #BCBBBA",
"F 	c #747373",
"G 	c #C1C0BF",
"H 	c #737272",
"I 	c #BBBAB9",
"J 	c #737372",
"K 	c #CCCBCB",
"L 	c #727271",
"M 	c #B9B8B8",
"N 	c #727272",
"O 	c #CACACA",
"P 	c #BEBDBD",
"Q 	c #CBCACA",
"R 	c #717171",
"S 	c #B6B5B5",
"T 	c #727170",
"U 	c #BDBCBB",
"V 	c #71706F",
"W 	c #B5B4B3",
"X 	c #707070",
"Y 	c #C8C7C7",
"Z 	c #BBBBBB",
"` 	c #C8C8C8",
" .	c #6F6F6F",
"..	c #B3B2B1",
"+.	c #706F6F",
"@.	c #C8C7C6",
"#.	c #6F6E6E",
"$.	c #B1B0AF",
"%.	c #6F6E6D",
"&.	c #C6C5C4",
"*.	c #B9B8B7",
"=.	c #6E6D6C",
"-.	c #AFAEAE",
";.	c #6D6D6C",
">.	c #B7B6B5",
",.	c #6C6C6B",
"'.	c #AEADAC",
").	c #6C6B6B",
"!.	c #C3C2C2",
"~.	c #B5B4B4",
"{.	c #6B6A6A",
"].	c #ACABAA",
"^.	c #6D6C6C",
"/.	c #B4B3B2",
"(.	c #6A6A69",
"_.	c #A7A6A5",
":.	c #6A6968",
"<.	c #B0AFAE",
"[.	c #BDBDBC",
"}.	c #A5A4A3",
"|.	c #777676",
"1.	c #A6A5A4",
"2.	c #B6B5B4",
"3.	c #A4A3A3",
"4.	c #A3A2A1",
"5.	c #A09F9E",
"6.	c #A4A3A2",
"7.	c #BBBABA",
"8.	c #BAB9B8",
"9.	c #6E6E6D",
"0.	c #A1A09F",
"a.	c #ADACAB",
"b.	c #9E9D9D",
"c.	c #757474",
"d.	c #676665",
"e.	c #646362",
"f.	c #646463",
"g.	c #666565",
"h.	c #767574",
"i.	c #9F9E9E",
"j.	c #B2B1B0",
". . . + @ # # # # # # # # # # # # # # # # # # # # # # # # # # # # # # # # # # # # # # # # @ + . . . ",
"$ $ @ % & * = = = = = = = = = = = = = = = = = = = = = = = = = = = = = = = = = = = = = = - ; > @ $ $ ",
", , ' ) ! ~ { { { { { { { { { { { { { { { { { { { { { { { { { { { { { { { { { { { { { { ~ ] ^ / , , ",
"( ( _ ] : < < < < < < < < < < < < < < < < < < < < < < < < < < < < < < < < < < < < < < < < : [ } ( ( ",
"| | 1 2 , 3 , , , , , , , , , , , , , , , , , , , , , , , , , , , , , , , , , , , , , , , , : 1 | | ",
"4 4 5 6 ( ( ( ( ( ( ( ( ( ( ( ( ( ( ( ( ( ( ( ( ( ( ( ( ( ( ( ( ( ( ( ( ( ( ( ( ( ( ( ( ( ( 6 7 4 4 ",
"8 8 9 0 | | | | | | | | | | | | | | | | | | | | | | | | | | | | | | | | | | | | | | | | | | a b 8 8 ",
"c c d e f f f f f f f f f f f f f f f f f f f f f f f f f f f f f f f f f f f f f f f f f f g h c c ",
"> > h . i i i i i i i i i i i i i i i i i i i i i i i i i i i i i i i i i i i i i i i i i i j k > > ",
"% % l m c c c c c c c c c c c c c c c c c c c c c c c c c c c c c c c c c c c c c c c c c c n o % % ",
"p p q , r r r r r r r r r r r r r r r r r r r r r r r r r r r r r r r r r r r r r r r r r r s t p p ",
"u u v w > > > > > > > > > > > > > > > > > > > > > > > > > > > > > > > > > > > > > > > > > > 3 x u u ",
"y y z ( % % % % % % % % % % % % % % % % % % % % % % % % % % % % % % % % % % % % % % % % % % ( A y y ",
"y y A B ' ' ' ' ' ' ' ' ' ' ' ' ' ' ' ' ' ' ' ' ' ' ' ' ' ' ' ' ' ' ' ' ' ' ' ' ' ' ' ' ' ' C D y y ",
"E E F f G G G G G G G G G G G G G G G G G G G G G G G G G G G G G G G G G G G G G G G G G G f H E E ",
"I I J 4 u u u u u u u u u u u u u u u u u u u u u u u u u u u u u u u u u u u u u u u u u u K L I I ",
"M M N O P P P P P P P P P P P P P P P P P P P P P P P P P P P P P P P P P P P P P P P P P P Q R M M ",
"S S T 8 U U U U U U U U U U U U U U U U U U U U U U U U U U U U U U U U U U U U U U U U U U 8 V S S ",
"W W X Y Z Z Z Z Z Z Z Z Z Z Z Z Z Z Z Z Z Z Z Z Z Z Z Z Z Z Z Z Z Z Z Z Z Z Z Z Z Z Z Z Z Z `  .W W ",
"....+.r I I I I I I I I I I I I I I I I I I I I I I I I I I I I I I I I I I I I I I I I I I @.#.....",
"$.$.%.&.*.*.*.*.*.*.*.*.*.*.*.*.*.*.*.*.*.*.*.*.*.*.*.*.*.*.*.*.*.*.*.*.*.*.*.*.*.*.*.*.*.*.! =.$.$.",
"-.-.;.] >.>.>.>.>.>.>.>.>.>.>.>.>.>.>.>.>.>.>.>.>.>.>.>.>.>.>.>.>.>.>.>.>.>.>.>.>.>.>.>.>.>.% ,.-.-.",
"'.'.).!.~.~.~.~.~.~.~.~.~.~.~.~.~.~.~.~.~.~.~.~.~.~.~.~.~.~.~.~.~.~.~.~.~.~.~.~.~.~.~.~.~.~.!.{.'.'.",
"].].^.p /./././././././././././././././././././././././././././././././././././././././././.[ (.].].",
"_._.:.y $.<.<.<.<.<.<.<.<.<.<.<.<.<.<.<.<.<.<.<.<.<.<.<.<.<.<.<.<.<.<.<.<.<.<.<.<.<.<.<.<.$.[.(._._.",
"}.}.|.1.2.'.'.'.'.'.'.'.'.'.'.'.'.'.'.'.'.'.'.'.'.'.'.'.'.'.'.'.'.'.'.'.'.'.'.'.'.'.'.'.'.2.3.q }.}.",
"4.4.5.#.6.M E E E E E E E E E E E E E E E E E E E E E E E E E E E E E E E E E E E E E 7.8.4.9.0.4.4.",
"4.4.a.b.c.d.e.e.e.e.e.e.e.e.e.e.e.e.e.e.e.e.e.e.e.e.e.e.e.e.e.e.e.e.e.e.e.e.e.e.e.e.e.f.g.h.i.a.4.4.",
"a.a.a.a.-.j.j.j.j.j.j.j.j.j.j.j.j.j.j.j.j.j.j.j.j.j.j.j.j.j.j.j.j.j.j.j.j.j.j.j.j.j.j.j.j.-.j.j.a.a."};
