<?xml version="1.0" encoding="UTF-8" standalone="no"?>
<!-- Created with Inkscape (http://www.inkscape.org/) -->

<svg
   xmlns:dc="http://purl.org/dc/elements/1.1/"
   xmlns:cc="http://creativecommons.org/ns#"
   xmlns:rdf="http://www.w3.org/1999/02/22-rdf-syntax-ns#"
   xmlns:svg="http://www.w3.org/2000/svg"
   xmlns="http://www.w3.org/2000/svg"
   xmlns:sodipodi="http://sodipodi.sourceforge.net/DTD/sodipodi-0.dtd"
   xmlns:inkscape="http://www.inkscape.org/namespaces/inkscape"
   width="32"
   height="32"
   id="svg3031"
   version="1.1"
   inkscape:version="0.48.4 r9939"
   sodipodi:docname="Nouveau document 3">
  <defs
     id="defs3033" />
  <sodipodi:namedview
     id="base"
     pagecolor="#ffffff"
     bordercolor="#666666"
     borderopacity="1.0"
     inkscape:pageopacity="0.0"
     inkscape:pageshadow="2"
     inkscape:zoom="29.15625"
     inkscape:cx="16"
     inkscape:cy="16"
     inkscape:document-units="px"
     inkscape:current-layer="layer1"
     showgrid="false"
     inkscape:showpageshadow="false"
     inkscape:window-width="1889"
     inkscape:window-height="1146"
     inkscape:window-x="31"
     inkscape:window-y="25"
     inkscape:window-maximized="1" />
  <metadata
     id="metadata3036">
    <rdf:RDF>
      <cc:Work
         rdf:about="">
        <dc:format>image/svg+xml</dc:format>
        <dc:type
           rdf:resource="http://purl.org/dc/dcmitype/StillImage" />
        <dc:title></dc:title>
      </cc:Work>
    </rdf:RDF>
  </metadata>
  <g
     inkscape:label="Calque 1"
     inkscape:groupmode="layer"
     id="layer1"
     transform="translate(0,-1020.3622)">
    <rect
       style="fill:#3c3b37;fill-opacity:1;stroke:none"
       id="rect2987"
       width="32"
       height="32"
       x="1.9029733e-09"
       y="1020.3622" />
    <g
       id="g2992"
       transform="matrix(0.55279063,0,0,0.55279063,1.374242,1023.6248)"
       style="fill:#ffffff">
      <g
         transform="matrix(0.965926,0.258819,-0.258819,0.965926,8.16213,8.6355)"
         id="g2904"
         style="fill:#ffffff">
        <path
           style="fill:#ffffff;fill-opacity:1;stroke:none"
           d="M 31,0.5 C 30.438064,0.530303 29.8842,0.547001 29.34375,0.625 L 29.125,3.71875 C 28.16536,3.9344947 27.275486,4.3022815 26.46875,4.8125 L 24.125,2.78125 C 22.999999,3.5000009 22.5,4 21.78125,5.125 L 23.8125,7.46875 C 23.302281,8.2754859 22.934495,9.1653595 22.71875,10.125 L 19.625,10.34375 C 19.547,10.8842 19.5,11.438062 19.5,12 c -1e-6,0.561939 0.047,1.115801 0.125,1.65625 l 3.09375,0.21875 c 0.215745,0.959641 0.583531,1.849514 1.09375,2.65625 L 21.78125,18.875 C 22.5,19.999999 23,20.5 24.125,21.21875 l 2.34375,-2.03125 c 0.806736,0.510219 1.696609,0.878005 2.65625,1.09375 L 29.34375,23.375 C 29.8842,23.453 30.438063,23.5 31,23.5 c 0.561936,0 1.115801,-0.047 1.65625,-0.125 L 32.875,20.28125 c 0.959641,-0.215745 1.849514,-0.583531 2.65625,-1.09375 L 37.875,21.21875 C 39.000002,20.499999 39.5,20 40.21875,18.875 L 38.1875,16.53125 c 0.510219,-0.806736 0.878005,-1.696609 1.09375,-2.65625 L 42.375,13.65625 C 42.453,13.115801 42.499999,12.561939 42.5,12 c 0,-0.561937 -0.047,-1.115801 -0.125,-1.65625 L 39.28125,10.125 C 39.065505,9.1653595 38.697719,8.2754859 38.1875,7.46875 L 40.21875,5.125 C 39.569261,4.0173152 39,3.5 37.875,2.78125 L 35.53125,4.8125 C 34.724514,4.3022815 33.834641,3.9344947 32.875,3.71875 L 32.65625,0.625 C 32.1158,0.54700102 31.561938,0.5 31,0.5 z m 0,9 c 1.380001,3e-7 2.499999,1.119998 2.5,2.5 10e-7,1.380003 -1.119997,2.5 -2.5,2.5 -1.380002,0 -2.5,-1.119997 -2.5,-2.5 0,-1.380002 1.119998,-2.5 2.5,-2.5 z"
           id="path2779"
           inkscape:connector-curvature="0" />
      </g>
      <g
         transform="matrix(0.965926,0.258819,-0.258819,0.965926,-8.58787,-6.8645)"
         id="g2924"
         style="fill:#ffffff">
        <path
           style="fill:#ffffff;fill-opacity:1;stroke:none"
           d="M 31,0.5 C 30.438064,0.530303 29.8842,0.547001 29.34375,0.625 L 29.125,3.71875 C 28.16536,3.9344947 27.275486,4.3022815 26.46875,4.8125 L 24.125,2.78125 C 22.999999,3.5000009 22.5,4 21.78125,5.125 L 23.8125,7.46875 C 23.302281,8.2754859 22.934495,9.1653595 22.71875,10.125 L 19.625,10.34375 C 19.547,10.8842 19.5,11.438062 19.5,12 c -1e-6,0.561939 0.047,1.115801 0.125,1.65625 l 3.09375,0.21875 c 0.215745,0.959641 0.583531,1.849514 1.09375,2.65625 L 21.78125,18.875 C 22.5,19.999999 23,20.5 24.125,21.21875 l 2.34375,-2.03125 c 0.806736,0.510219 1.696609,0.878005 2.65625,1.09375 L 29.34375,23.375 C 29.8842,23.453 30.438063,23.5 31,23.5 c 0.561936,0 1.115801,-0.047 1.65625,-0.125 L 32.875,20.28125 c 0.959641,-0.215745 1.849514,-0.583531 2.65625,-1.09375 L 37.875,21.21875 C 39.000002,20.499999 39.5,20 40.21875,18.875 L 38.1875,16.53125 c 0.510219,-0.806736 0.878005,-1.696609 1.09375,-2.65625 L 42.375,13.65625 C 42.453,13.115801 42.499999,12.561939 42.5,12 c 0,-0.561937 -0.047,-1.115801 -0.125,-1.65625 L 39.28125,10.125 C 39.065505,9.1653595 38.697719,8.2754859 38.1875,7.46875 L 40.21875,5.125 C 39.569261,4.0173152 39,3.5 37.875,2.78125 L 35.53125,4.8125 C 34.724514,4.3022815 33.834641,3.9344947 32.875,3.71875 L 32.65625,0.625 C 32.1158,0.54700102 31.561938,0.5 31,0.5 z m 0,9 c 1.380001,3e-7 2.499999,1.119998 2.5,2.5 10e-7,1.380003 -1.119997,2.5 -2.5,2.5 -1.380002,0 -2.5,-1.119997 -2.5,-2.5 0,-1.380002 1.119998,-2.5 2.5,-2.5 z"
           id="path2926"
           inkscape:connector-curvature="0" />
      </g>
      <path
         id="path2978"
         d="m 15.15625,26.75 c -0.488396,0.01878 -0.972005,0.09379 -1.4375,0.1875 l -0.03125,0 c -0.34946,0.07157 -0.697793,0.170415 -1.03125,0.28125 -0.482338,0.16032 -0.932718,0.35785 -1.375,0.59375 l 0.65625,3.125 c -0.476244,0.352714 -0.924071,0.765183 -1.28125,1.25 L 7.5625,31.5625 c -0.2563974,0.484385 -0.4907769,0.968357 -0.65625,1.5 C 6.676383,33.801032 6.5309966,34.599931 6.5,35.40625 L 9.5625,36.4375 C 9.632137,37.029968 9.764473,37.618191 10,38.15625 l -2.125,2.375 c 0.2776891,0.441317 0.5897247,0.864646 0.9375,1.25 l 0.625,0.59375 c 0.388221,0.355401 0.803922,0.685104 1.25,0.96875 l 2.375,-2.125 c 0.285486,0.127273 0.563555,0.229049 0.875,0.3125 0.294716,0.07897 0.611933,0.154201 0.90625,0.1875 l 1,3.03125 c 0.488396,-0.01877 0.972005,-0.09379 1.4375,-0.1875 l 0.03125,0 c 0.34946,-0.07157 0.697793,-0.170415 1.03125,-0.28125 0.482338,-0.16032 0.932718,-0.35785 1.375,-0.59375 l -0.65625,-3.125 c 0.476244,-0.352713 0.924071,-0.765183 1.28125,-1.25 l 3.09375,0.625 c 0.256397,-0.484385 0.490777,-0.968357 0.65625,-1.5 0.229867,-0.738532 0.375253,-1.537431 0.40625,-2.34375 L 21.4375,35.0625 C 21.367863,34.470032 21.235527,33.881809 21,33.34375 l 2.125,-2.375 c -0.277689,-0.441317 -0.589725,-0.864646 -0.9375,-1.25 L 21.5625,29.125 c -0.388221,-0.355401 -0.803922,-0.685104 -1.25,-0.96875 l -2.375,2.125 c -0.285487,-0.127273 -0.563555,-0.229049 -0.875,-0.3125 -0.294716,-0.07897 -0.611933,-0.154201 -0.90625,-0.1875 l -1,-3.03125 z m 0.125,7 c 0.113509,-0.01267 0.227707,-0.0069 0.34375,0 0.13262,0.0079 0.272952,0.02678 0.40625,0.0625 1.066381,0.285733 1.691987,1.402366 1.40625,2.46875 -0.285736,1.066388 -1.402369,1.691985 -2.46875,1.40625 -1.066381,-0.285733 -1.691986,-1.402365 -1.40625,-2.46875 0.218768,-0.81645 0.924186,-1.380056 1.71875,-1.46875 z"
         style="fill:#ffffff;fill-opacity:1;stroke:none"
         inkscape:connector-curvature="0" />
    </g>
  </g>
</svg>
