<?xml version="1.0" encoding="UTF-8" standalone="no"?>
<!-- Created with Inkscape (http://www.inkscape.org/) -->

<svg
   xmlns:dc="http://purl.org/dc/elements/1.1/"
   xmlns:cc="http://creativecommons.org/ns#"
   xmlns:rdf="http://www.w3.org/1999/02/22-rdf-syntax-ns#"
   xmlns:svg="http://www.w3.org/2000/svg"
   xmlns="http://www.w3.org/2000/svg"
   xmlns:sodipodi="http://sodipodi.sourceforge.net/DTD/sodipodi-0.dtd"
   xmlns:inkscape="http://www.inkscape.org/namespaces/inkscape"
   width="32"
   height="24"
   id="svg2996"
   version="1.1"
   inkscape:version="0.48.4 r9939"
   sodipodi:docname="Nouveau document 1">
  <defs
     id="defs2998" />
  <sodipodi:namedview
     id="base"
     pagecolor="#ffffff"
     bordercolor="#666666"
     borderopacity="1.0"
     inkscape:pageopacity="0.0"
     inkscape:pageshadow="2"
     inkscape:zoom="39.75"
     inkscape:cx="16"
     inkscape:cy="12"
     inkscape:document-units="px"
     inkscape:current-layer="layer1"
     showgrid="false"
     inkscape:showpageshadow="false"
     inkscape:window-width="1889"
     inkscape:window-height="1146"
     inkscape:window-x="31"
     inkscape:window-y="25"
     inkscape:window-maximized="1" />
  <metadata
     id="metadata3001">
    <rdf:RDF>
      <cc:Work
         rdf:about="">
        <dc:format>image/svg+xml</dc:format>
        <dc:type
           rdf:resource="http://purl.org/dc/dcmitype/StillImage" />
        <dc:title></dc:title>
      </cc:Work>
    </rdf:RDF>
  </metadata>
  <g
     inkscape:label="Calque 1"
     inkscape:groupmode="layer"
     id="layer1"
     transform="translate(0,-1028.3622)">
    <rect
       style="fill:#25baa5;fill-opacity:1;stroke:none"
       id="rect3818"
       width="32"
       height="24"
       x="0"
       y="1028.3625" />
    <g
       transform="matrix(1,0,0,-1,-8.2513595,13.974866)"
       style="font-size:16px;font-style:normal;font-variant:normal;font-weight:normal;font-stretch:normal;line-height:125%;letter-spacing:0px;word-spacing:0px;fill:#000000;fill-opacity:1;stroke:none;font-family:Carlito;-inkscape-font-specification:Carlito"
       id="text3786" />
    <g
       style="font-size:16px;font-style:normal;font-variant:normal;font-weight:normal;font-stretch:normal;line-height:125%;letter-spacing:0px;word-spacing:0px;fill:#ffffff;fill-opacity:1;stroke:none;font-family:Carlito;-inkscape-font-specification:Carlito"
       id="text3782"
       transform="translate(0,-1.0002336)">
      <path
         d="m 5.14192,1033.4373 c 0.4639995,-0.416 0.4960005,-0.448 1.04,-0.864 -0.096,-0.192 -0.176,-0.32 -0.208,-0.368 -0.096,-0.192 -0.1120001,-0.208 -0.24,-0.512 -0.032,-0.064 -0.064,-0.128 -0.096,-0.208 -0.08,0.064 -0.1760001,0.128 -0.224,0.176 -0.064,0.064 -0.1920002,0.16 -0.352,0.288 -0.08,0.064 -0.1920002,0.144 -0.336,0.24 -0.064,0.048 -0.1280001,0.096 -0.192,0.128 0.1119999,0.352 0.2560003,0.608 0.608,1.12 m 1.104,6.048 c -1.5199985,0.816 -1.5520002,0.832 -1.76,0.832 -0.1759998,0 -0.288,-0.176 -0.288,-0.448 0,-0.16 0.048,-0.464 0.144,-0.816 0.8159992,-3.36 0.976,-4 0.976,-4.128 0,-0.096 -0.08,-0.16 -0.192,-0.16 -0.2719997,0 -1.2160013,0.528 -2.528,1.408 l -0.032,0.448 c 0.943999,-0.512 1.0240001,-0.544 1.168,-0.544 0.1279999,0 0.192,0.096 0.192,0.288 0,0.208 -0.048,0.432 -0.288,1.344 -0.7519993,2.8 -0.752,2.8 -0.752,3.2 0,0.384 0.1600002,0.64 0.384,0.64 0.2719997,0 0.7040008,-0.208 1.552,-0.752 0.3039997,-0.192 0.6080003,-0.384 0.912,-0.592 0.1439998,-0.08 0.2880002,-0.176 0.448,-0.272 l 0.064,-0.448"
         style="font-style:italic;font-weight:bold;fill:#ffffff;font-family:URW Chancery L;-inkscape-font-specification:URW Chancery L Bold Italic"
         id="path2994"
         inkscape:connector-curvature="0" />
      <path
         d="m 11.24167,1039.3093 c -1.231999,0.88 -2.0800005,1.328 -2.592,1.328 -0.5759994,0 -0.912,-0.448 -0.912,-1.216 0,-0.768 0.1920003,-1.792 0.496,-2.544 0.3199997,-0.848 0.7360005,-1.28 1.2,-1.28 0.3839996,0 0.592,0.304 0.672,1.008 l 0.928,-0.544 c 0.016,-0.08 0.016,-0.16 0.016,-0.176 0,-0.688 -0.352001,-1.12 -0.912,-1.12 -0.2879997,0 -0.4640006,0.064 -1.04,0.448 -1.1999988,0.752 -1.4560004,0.992 -1.808,1.648 -0.4479996,0.864 -0.784,2.224 -0.784,3.216 0,0.928 0.4320007,1.472 1.168,1.472 0.7679992,0 2.0800014,-0.64 3.536,-1.728 l 0.032,-0.512"
         style="font-style:italic;font-weight:bold;fill:#ffffff;font-family:URW Chancery L;-inkscape-font-specification:URW Chancery L Bold Italic"
         id="path2996"
         inkscape:connector-curvature="0" />
      <path
         d="m 16.63117,1039.1493 c -1.199999,1.04 -1.968001,1.488 -2.576,1.488 -0.4,0 -0.736,-0.272 -0.848,-0.688 -0.064,-0.256 -0.08,-0.432 -0.08,-0.896 0.719999,-0.448 1.200001,-0.784 2.144,-1.488 0.863999,-0.656 1.2,-1.184 1.2,-1.904 0,-0.56 -0.352001,-0.896 -0.912,-0.896 -0.352,0 -0.608,0.08 -0.976,0.288 -0.607999,0.352 -1.152,0.784 -1.488,1.168 -0.607999,0.736 -1.152,2.496 -1.152,3.792 0,0.944 0.496001,1.536 1.312,1.536 0.943999,0 2.112001,-0.672 3.376,-1.936 l 0,-0.464 m -3.456,-0.672 c 0.272,-1.712 1.008001,-3.04 1.696,-3.04 0.272,0 0.448,0.272 0.448,0.656 0,0.8 -0.432002,1.28 -2.144,2.384"
         style="font-style:italic;font-weight:bold;fill:#ffffff;font-family:URW Chancery L;-inkscape-font-specification:URW Chancery L Bold Italic"
         id="path2998"
         inkscape:connector-curvature="0" />
    </g>
    <g
       style="font-size:16px;font-style:normal;font-variant:normal;font-weight:normal;font-stretch:normal;line-height:125%;letter-spacing:0px;word-spacing:0px;fill:#ffffff;fill-opacity:1;stroke:none;font-family:Verdana;-inkscape-font-specification:Verdana"
       id="text3808"
       transform="translate(0,-1.0002336)">
      <path
         d="m 12.976424,1046.0515 c -0.17734,0.4014 -0.378006,0.8167 -0.602,1.246 -0.224006,0.42 -0.457339,0.8354 -0.7,1.246 -0.242672,0.4014 -0.485338,0.7887 -0.728,1.162 -0.242671,0.364 -0.466671,0.6907 -0.672,0.98 l -1.4,0 c -0.084003,-0.4293 -0.1680026,-0.9193 -0.252,-1.47 -0.074669,-0.5506 -0.144669,-1.1386 -0.21,-1.764 -0.065336,-0.6253 -0.1260022,-1.2833 -0.182,-1.974 -0.046669,-0.6906 -0.079335,-1.3953 -0.098,-2.114 l 1.68,0 c -3.7e-6,0.3921 0.00466,0.8167 0.014,1.274 0.00933,0.4481 0.02333,0.9101 0.042,1.386 0.027996,0.4667 0.055996,0.9287 0.084,1.386 0.037329,0.4574 0.083996,0.8867 0.14,1.288 0.261329,-0.4013 0.517995,-0.826 0.77,-1.274 0.261328,-0.4573 0.508661,-0.9146 0.742,-1.372 0.233328,-0.4666 0.447994,-0.9286 0.644,-1.386 0.205327,-0.4573 0.38266,-0.8913 0.532,-1.302 l 1.456,0 c -8e-6,0.3827 0.0047,0.7887 0.014,1.218 0.0093,0.4294 0.02332,0.8727 0.042,1.33 0.02799,0.4574 0.05599,0.9241 0.084,1.4 0.03732,0.4667 0.08399,0.9287 0.14,1.386 0.242658,-0.3546 0.489991,-0.7606 0.742,-1.218 0.251991,-0.4573 0.494657,-0.9239 0.728,-1.4 0.233323,-0.4853 0.443323,-0.9613 0.63,-1.428 0.195989,-0.4759 0.354656,-0.9053 0.476,-1.288 l 1.764,0 c -0.196013,0.5601 -0.438679,1.1574 -0.728,1.792 -0.280012,0.6254 -0.597345,1.2601 -0.952,1.904 -0.354677,0.644 -0.737344,1.2787 -1.148,1.904 -0.401343,0.616 -0.821342,1.19 -1.26,1.722 l -1.4,0 c -0.102674,-0.784 -0.19134,-1.554 -0.266,-2.31 -0.06534,-0.7653 -0.10734,-1.5399 -0.126,-2.324"
         style="font-size:14px;font-style:italic;font-weight:500;fill:#ffffff;font-family:Ubuntu;-inkscape-font-specification:Ubuntu Medium Italic"
         id="path3001"
         inkscape:connector-curvature="0" />
      <path
         d="m 20.19408,1043.6715 c 0.37333,-0.1119 0.79333,-0.2146 1.26,-0.308 0.466662,-0.1026 0.979995,-0.1539 1.54,-0.154 0.419994,10e-5 0.769994,0.061 1.05,0.182 0.289327,0.1214 0.531993,0.2941 0.728,0.518 0.270659,-0.1586 0.597326,-0.3126 0.98,-0.462 0.391992,-0.1586 0.835324,-0.2379 1.33,-0.238 0.429324,10e-5 0.793323,0.061 1.092,0.182 0.298656,0.1214 0.541322,0.2894 0.728,0.504 0.186655,0.2147 0.321988,0.4714 0.406,0.77 0.08399,0.2894 0.125988,0.6067 0.126,0.952 -1.2e-5,0.3827 -0.05135,0.7887 -0.154,1.218 l -0.924,3.85 -1.694,0 0.868,-3.668 c 0.04666,-0.1773 0.08866,-0.3686 0.126,-0.574 0.04666,-0.2146 0.06999,-0.4293 0.07,-0.644 -10e-6,-0.1493 -0.01868,-0.2939 -0.056,-0.434 -0.02801,-0.1493 -0.08401,-0.2753 -0.168,-0.378 -0.08401,-0.1026 -0.200676,-0.1866 -0.35,-0.252 -0.140009,-0.065 -0.322009,-0.098 -0.546,-0.098 -0.242675,10e-5 -0.480675,0.047 -0.714,0.14 -0.233341,0.093 -0.429341,0.1914 -0.588,0.294 0.03733,0.1774 0.05599,0.3687 0.056,0.574 -8e-6,0.1867 -0.01401,0.3827 -0.042,0.588 -0.02801,0.2054 -0.06534,0.4061 -0.112,0.602 l -0.924,3.85 -1.694,0 0.868,-3.668 c 0.04666,-0.1679 0.08866,-0.3593 0.126,-0.574 0.04666,-0.2239 0.06999,-0.4433 0.07,-0.658 -6e-6,-0.3079 -0.07467,-0.5739 -0.224,-0.798 -0.140006,-0.2333 -0.410672,-0.3499 -0.812,-0.35 -0.186671,10e-5 -0.364005,0.014 -0.532,0.042 -0.168004,0.019 -0.322004,0.047 -0.462,0.084 l -1.414,5.922 -1.694,0 1.68,-7.014"
         style="font-size:14px;font-style:italic;font-weight:500;fill:#ffffff;font-family:Ubuntu;-inkscape-font-specification:Ubuntu Medium Italic"
         id="path3003"
         inkscape:connector-curvature="0" />
    </g>
  </g>
</svg>
