/* XPM */
static char * folder_16x16_xpm[] = {
"16 16 136 2",
"  	c None",
". 	c #547FB5",
"+ 	c #5180B7",
"@ 	c #517FB7",
"# 	c #527FB7",
"$ 	c #527EB8",
"% 	c #5684BB",
"& 	c #4972A6",
"* 	c #8FB9EF",
"= 	c #8EB6EA",
"- 	c #90B8EB",
"; 	c #93BBEF",
"> 	c #4B79B1",
", 	c #5180BA",
"' 	c #5380BA",
") 	c #5382BA",
"! 	c #5381BA",
"~ 	c #5482BA",
"{ 	c #5481BB",
"] 	c #5887C2",
"^ 	c #3D6392",
"/ 	c #86AFE1",
"( 	c #568CCD",
"_ 	c #588CCF",
": 	c #79A3D8",
"< 	c #8AAFE0",
"[ 	c #88AFE1",
"} 	c #87AFE1",
"| 	c #85AEDF",
"1 	c #84ADE1",
"2 	c #81AADE",
"3 	c #7FA9DF",
"4 	c #7DA7DD",
"5 	c #7DA9E2",
"6 	c #4976AD",
"7 	c #2F517A",
"8 	c #77A2D6",
"9 	c #5283C2",
"0 	c #5585C2",
"a 	c #5284C2",
"b 	c #4F7FBF",
"c 	c #3A6AA3",
"d 	c #2F5B93",
"e 	c #2D5A93",
"f 	c #2E5A93",
"g 	c #2E5B93",
"h 	c #2B5993",
"i 	c #4C74A6",
"j 	c #193A63",
"k 	c #203D60",
"l 	c #49709F",
"m 	c #27538A",
"n 	c #2A558B",
"o 	c #2A558C",
"p 	c #224C7F",
"q 	c #6D8FB1",
"r 	c #BEDDF4",
"s 	c #BCDBF3",
"t 	c #BCDBF4",
"u 	c #BCDBF2",
"v 	c #C3DFF5",
"w 	c #C1E2FB",
"x 	c #99B6CE",
"y 	c #54799F",
"z 	c #C7E4F8",
"A 	c #BADAF1",
"B 	c #BCDCF2",
"C 	c #BBDBF3",
"D 	c #B4D4ED",
"E 	c #8EB1DC",
"F 	c #88ACDA",
"G 	c #89ACDA",
"H 	c #8AACDA",
"I 	c #8DB0DB",
"J 	c #8EB4E3",
"K 	c #4D6179",
"L 	c #537CA9",
"M 	c #8BB0DF",
"N 	c #87AAD9",
"O 	c #86AAD9",
"P 	c #88ABDA",
"Q 	c #87AEDA",
"R 	c #8CAEDA",
"S 	c #8AAEDA",
"T 	c #89AEDA",
"U 	c #91B5E5",
"V 	c #4E637D",
"W 	c #527BAA",
"X 	c #8DB1DF",
"Y 	c #87ACDA",
"Z 	c #86ACDA",
"` 	c #8DB3E4",
" .	c #4E627D",
"..	c #517AAA",
"+.	c #89AFDE",
"@.	c #84AAD9",
"#.	c #85AAD9",
"$.	c #83AAD9",
"%.	c #83A9D9",
"&.	c #84A9D9",
"*.	c #8BB1E3",
"=.	c #4A617C",
"-.	c #5079A9",
";.	c #87ACDD",
">.	c #80A7D8",
",.	c #81A7D8",
"'.	c #82A7D8",
").	c #87AEE1",
"!.	c #495F7B",
"~.	c #39679B",
"{.	c #4076B4",
"].	c #3F74B0",
"^.	c #3E74B0",
"/.	c #4074B0",
"(.	c #437AB9",
"_.	c #274466",
":.	c #587FAD",
"<.	c #87ADDF",
"[.	c #84A9DA",
"}.	c #85A9DA",
"|.	c #86A9DA",
"1.	c #83A9DA",
"2.	c #8AB0E3",
"3.	c #506481",
"4.	c #81A8DD",
"5.	c #7DA3D9",
"6.	c #7EA4D9",
"7.	c #7CA3D9",
"8.	c #78A3D9",
"9.	c #7EA3D9",
"0.	c #79A3D9",
"a.	c #7AA3D9",
"b.	c #7EA3D8",
"c.	c #81A9E0",
"d.	c #4A75A7",
"e.	c #465F80",
"                                ",
". + @ # $ %                     ",
"& * = - ; > @ , ' , ) ! ~ { ]   ",
"^ / ( _ : < [ } | 1 2 3 4 5 6   ",
"7 8 9 0 a b c d e f g f h i j   ",
"k l m n o p q r s s s t u v w x ",
"y z A B B C D E F G H H G I J K ",
"L M N N O O P Q R S T S S S U V ",
"W X Y Y G Z Y Y Z H Z Y Y Y `  .",
"..+.@.#.$.#.%.@.#.@.$.#.@.&.*.=.",
"-.;.>.,.,.'.,.'.>.>.>.'.,.,.).!.",
"~.{.].].].^./.]./.].].].].].(._.",
":.<.[.}.|.}.[.[.}.|.}.1.}.[.2.3.",
":.<.[.}.|.}.[.[.}.|.}.1.}.[.2.3.",
":.4.5.6.7.8.5.6.6.9.0.a.6.b.c.3.",
"d.@ , ' , ) ! @ , ' , ) ! ~ { e."};
